G75*
%MOIN*%
%OFA0B0*%
%FSLAX25Y25*%
%IPPOS*%
%LPD*%
%AMOC8*
5,1,8,0,0,1.08239X$1,22.5*
%
%ADD10C,0.05600*%
%ADD11OC8,0.05600*%
%ADD12C,0.01600*%
D10*
X0329241Y0101800D03*
X0349241Y0101800D03*
X0349241Y0301800D03*
X0329241Y0301800D03*
D11*
X0339241Y0301800D03*
X0339241Y0291800D03*
X0349241Y0291800D03*
X0359241Y0291800D03*
X0359241Y0281800D03*
X0349241Y0281800D03*
X0349241Y0271800D03*
X0359241Y0271800D03*
X0359241Y0261800D03*
X0359241Y0251800D03*
X0349241Y0251800D03*
X0349241Y0261800D03*
X0339241Y0261800D03*
X0339241Y0251800D03*
X0339241Y0241800D03*
X0349241Y0241800D03*
X0359241Y0241800D03*
X0359241Y0231800D03*
X0349241Y0231800D03*
X0349241Y0221800D03*
X0359241Y0221800D03*
X0359241Y0211800D03*
X0359241Y0201800D03*
X0349241Y0201800D03*
X0349241Y0211800D03*
X0339241Y0211800D03*
X0339241Y0201800D03*
X0339241Y0191800D03*
X0349241Y0191800D03*
X0359241Y0191800D03*
X0359241Y0181800D03*
X0349241Y0181800D03*
X0349241Y0171800D03*
X0359241Y0171800D03*
X0359241Y0161800D03*
X0349241Y0161800D03*
X0349241Y0151800D03*
X0359241Y0151800D03*
X0359241Y0141800D03*
X0349241Y0141800D03*
X0349241Y0131800D03*
X0359241Y0131800D03*
X0359241Y0121800D03*
X0359241Y0111800D03*
X0349241Y0111800D03*
X0349241Y0121800D03*
X0339241Y0121800D03*
X0339241Y0111800D03*
X0339241Y0101800D03*
X0339241Y0091800D03*
X0349241Y0091800D03*
X0359241Y0091800D03*
X0359241Y0081800D03*
X0349241Y0081800D03*
X0349241Y0071800D03*
X0359241Y0071800D03*
X0359241Y0061800D03*
X0349241Y0061800D03*
X0349241Y0051800D03*
X0359241Y0051800D03*
X0339241Y0051800D03*
X0339241Y0061800D03*
X0339241Y0071800D03*
X0339241Y0081800D03*
X0329241Y0081800D03*
X0329241Y0071800D03*
X0329241Y0061800D03*
X0329241Y0051800D03*
X0329241Y0091800D03*
X0329241Y0111800D03*
X0329241Y0121800D03*
X0329241Y0131800D03*
X0339241Y0131800D03*
X0339241Y0141800D03*
X0339241Y0151800D03*
X0339241Y0161800D03*
X0339241Y0171800D03*
X0339241Y0181800D03*
X0329241Y0181800D03*
X0329241Y0171800D03*
X0329241Y0161800D03*
X0329241Y0151800D03*
X0329241Y0141800D03*
X0359241Y0101800D03*
X0329241Y0191800D03*
X0329241Y0201800D03*
X0329241Y0211800D03*
X0329241Y0221800D03*
X0339241Y0221800D03*
X0339241Y0231800D03*
X0329241Y0231800D03*
X0329241Y0241800D03*
X0329241Y0251800D03*
X0329241Y0261800D03*
X0329241Y0271800D03*
X0339241Y0271800D03*
X0339241Y0281800D03*
X0329241Y0281800D03*
X0329241Y0291800D03*
X0359241Y0301800D03*
D12*
X0008004Y0010240D02*
X0006303Y0011941D01*
X0005101Y0014023D01*
X0004479Y0016346D01*
X0004400Y0017548D01*
X0004400Y0341564D01*
X0004479Y0342766D01*
X0005101Y0345089D01*
X0006303Y0347171D01*
X0008004Y0348871D01*
X0010086Y0350074D01*
X0012409Y0350696D01*
X0013611Y0350775D01*
X0036762Y0350775D01*
X0036804Y0350759D01*
X0037277Y0350775D01*
X0037750Y0350775D01*
X0037792Y0350792D01*
X0037838Y0350794D01*
X0038269Y0350990D01*
X0038706Y0351171D01*
X0038738Y0351203D01*
X0046458Y0354712D01*
X0314244Y0354712D01*
X0341248Y0336786D01*
X0341430Y0336604D01*
X0341674Y0336502D01*
X0341895Y0336356D01*
X0342148Y0336306D01*
X0342385Y0336208D01*
X0342650Y0336208D01*
X0342910Y0336157D01*
X0343162Y0336208D01*
X0365776Y0336208D01*
X0366979Y0336129D01*
X0369301Y0335507D01*
X0371384Y0334304D01*
X0373084Y0332604D01*
X0374286Y0330522D01*
X0374909Y0328199D01*
X0374987Y0326997D01*
X0374987Y0304535D01*
X0367967Y0290384D01*
X0367903Y0290320D01*
X0367739Y0289924D01*
X0367548Y0289539D01*
X0367542Y0289449D01*
X0367507Y0289364D01*
X0367507Y0288935D01*
X0367478Y0288507D01*
X0367507Y0288421D01*
X0367507Y0065402D01*
X0367475Y0065304D01*
X0367507Y0064888D01*
X0367507Y0064472D01*
X0367547Y0064376D01*
X0367555Y0064272D01*
X0367744Y0063901D01*
X0367903Y0063516D01*
X0367976Y0063443D01*
X0374987Y0049642D01*
X0374987Y0022666D01*
X0374909Y0021464D01*
X0374286Y0019141D01*
X0373084Y0017059D01*
X0371384Y0015359D01*
X0369301Y0014156D01*
X0366979Y0013534D01*
X0365776Y0013455D01*
X0265727Y0013455D01*
X0265600Y0013494D01*
X0265214Y0013455D01*
X0264826Y0013455D01*
X0264703Y0013404D01*
X0264571Y0013391D01*
X0264229Y0013208D01*
X0263871Y0013059D01*
X0263776Y0012965D01*
X0247801Y0004400D01*
X0042592Y0004400D01*
X0033545Y0008138D01*
X0033065Y0008337D01*
X0033064Y0008337D01*
X0033063Y0008337D01*
X0032553Y0008337D01*
X0013611Y0008337D01*
X0012409Y0008416D01*
X0010086Y0009038D01*
X0008004Y0010240D01*
X0008779Y0009793D02*
X0257859Y0009793D01*
X0260840Y0011391D02*
X0006853Y0011391D01*
X0005698Y0012990D02*
X0018861Y0012990D01*
X0019361Y0012783D02*
X0016090Y0014137D01*
X0013586Y0016641D01*
X0012231Y0019912D01*
X0012231Y0023452D01*
X0013586Y0026723D01*
X0016090Y0029226D01*
X0019361Y0030581D01*
X0022901Y0030581D01*
X0026172Y0029226D01*
X0028675Y0026723D01*
X0030030Y0023452D01*
X0030030Y0019912D01*
X0028675Y0016641D01*
X0026172Y0014137D01*
X0022901Y0012783D01*
X0019361Y0012783D01*
X0023400Y0012990D02*
X0263801Y0012990D01*
X0254877Y0008194D02*
X0033410Y0008194D01*
X0037278Y0006596D02*
X0251896Y0006596D01*
X0248914Y0004997D02*
X0041147Y0004997D01*
X0028221Y0016187D02*
X0372212Y0016187D01*
X0373503Y0017785D02*
X0029149Y0017785D01*
X0029811Y0019384D02*
X0374351Y0019384D01*
X0374780Y0020982D02*
X0030030Y0020982D01*
X0030030Y0022581D02*
X0374982Y0022581D01*
X0374987Y0024179D02*
X0363654Y0024179D01*
X0363652Y0024177D02*
X0366155Y0026680D01*
X0367510Y0029951D01*
X0367510Y0033491D01*
X0366155Y0036762D01*
X0363652Y0039266D01*
X0360381Y0040620D01*
X0356841Y0040620D01*
X0353570Y0039266D01*
X0351067Y0036762D01*
X0349712Y0033491D01*
X0349712Y0029951D01*
X0351067Y0026680D01*
X0353570Y0024177D01*
X0356841Y0022822D01*
X0360381Y0022822D01*
X0363652Y0024177D01*
X0365253Y0025778D02*
X0374987Y0025778D01*
X0374987Y0027376D02*
X0366444Y0027376D01*
X0367106Y0028975D02*
X0374987Y0028975D01*
X0374987Y0030573D02*
X0367510Y0030573D01*
X0367510Y0032172D02*
X0374987Y0032172D01*
X0374987Y0033770D02*
X0367395Y0033770D01*
X0366733Y0035369D02*
X0374987Y0035369D01*
X0374987Y0036967D02*
X0365950Y0036967D01*
X0364352Y0038566D02*
X0374987Y0038566D01*
X0374987Y0040164D02*
X0361483Y0040164D01*
X0355740Y0040164D02*
X0004400Y0040164D01*
X0004400Y0038566D02*
X0352870Y0038566D01*
X0351272Y0036967D02*
X0004400Y0036967D01*
X0004400Y0035369D02*
X0350489Y0035369D01*
X0349827Y0033770D02*
X0004400Y0033770D01*
X0004400Y0032172D02*
X0349712Y0032172D01*
X0349712Y0030573D02*
X0022920Y0030573D01*
X0019341Y0030573D02*
X0004400Y0030573D01*
X0004400Y0028975D02*
X0015838Y0028975D01*
X0014240Y0027376D02*
X0004400Y0027376D01*
X0004400Y0025778D02*
X0013195Y0025778D01*
X0012533Y0024179D02*
X0004400Y0024179D01*
X0004400Y0022581D02*
X0012231Y0022581D01*
X0012231Y0020982D02*
X0004400Y0020982D01*
X0004400Y0019384D02*
X0012450Y0019384D01*
X0013112Y0017785D02*
X0004400Y0017785D01*
X0004521Y0016187D02*
X0014041Y0016187D01*
X0015639Y0014588D02*
X0004950Y0014588D01*
X0026423Y0028975D02*
X0350116Y0028975D01*
X0350778Y0027376D02*
X0028022Y0027376D01*
X0029067Y0025778D02*
X0351969Y0025778D01*
X0353568Y0024179D02*
X0029729Y0024179D01*
X0026622Y0014588D02*
X0370049Y0014588D01*
X0374987Y0041763D02*
X0004400Y0041763D01*
X0004400Y0043361D02*
X0374987Y0043361D01*
X0374987Y0044960D02*
X0004400Y0044960D01*
X0004400Y0046558D02*
X0374987Y0046558D01*
X0374987Y0048157D02*
X0362386Y0048157D01*
X0361229Y0047000D02*
X0364041Y0049812D01*
X0364041Y0053788D01*
X0361229Y0056600D01*
X0357253Y0056600D01*
X0354441Y0053788D01*
X0354441Y0049812D01*
X0357253Y0047000D01*
X0361229Y0047000D01*
X0363984Y0049755D02*
X0374930Y0049755D01*
X0374118Y0051354D02*
X0364041Y0051354D01*
X0364041Y0052952D02*
X0373306Y0052952D01*
X0372494Y0054551D02*
X0363278Y0054551D01*
X0361680Y0056149D02*
X0371682Y0056149D01*
X0370869Y0057748D02*
X0361977Y0057748D01*
X0361229Y0057000D02*
X0364041Y0059812D01*
X0364041Y0063788D01*
X0361229Y0066600D01*
X0357253Y0066600D01*
X0354441Y0063788D01*
X0354441Y0059812D01*
X0357253Y0057000D01*
X0361229Y0057000D01*
X0363576Y0059346D02*
X0370057Y0059346D01*
X0369245Y0060945D02*
X0364041Y0060945D01*
X0364041Y0062543D02*
X0368433Y0062543D01*
X0367621Y0064142D02*
X0363687Y0064142D01*
X0362089Y0065740D02*
X0367507Y0065740D01*
X0367507Y0067339D02*
X0361568Y0067339D01*
X0361229Y0067000D02*
X0364041Y0069812D01*
X0364041Y0073788D01*
X0361229Y0076600D01*
X0357253Y0076600D01*
X0354441Y0073788D01*
X0354441Y0069812D01*
X0357253Y0067000D01*
X0361229Y0067000D01*
X0363167Y0068937D02*
X0367507Y0068937D01*
X0367507Y0070536D02*
X0364041Y0070536D01*
X0364041Y0072134D02*
X0367507Y0072134D01*
X0367507Y0073733D02*
X0364041Y0073733D01*
X0362498Y0075332D02*
X0367507Y0075332D01*
X0367507Y0076930D02*
X0004400Y0076930D01*
X0004400Y0075332D02*
X0325984Y0075332D01*
X0327253Y0076600D02*
X0324441Y0073788D01*
X0324441Y0069812D01*
X0327253Y0067000D01*
X0331229Y0067000D01*
X0334041Y0069812D01*
X0334041Y0073788D01*
X0331229Y0076600D01*
X0327253Y0076600D01*
X0327253Y0077000D02*
X0331229Y0077000D01*
X0334041Y0079812D01*
X0334041Y0083788D01*
X0331229Y0086600D01*
X0327253Y0086600D01*
X0324441Y0083788D01*
X0324441Y0079812D01*
X0327253Y0077000D01*
X0325724Y0078529D02*
X0004400Y0078529D01*
X0004400Y0080127D02*
X0324441Y0080127D01*
X0324441Y0081726D02*
X0004400Y0081726D01*
X0004400Y0083324D02*
X0324441Y0083324D01*
X0325575Y0084923D02*
X0004400Y0084923D01*
X0004400Y0086521D02*
X0327174Y0086521D01*
X0327253Y0087000D02*
X0331229Y0087000D01*
X0334041Y0089812D01*
X0334041Y0093788D01*
X0331229Y0096600D01*
X0327253Y0096600D01*
X0324441Y0093788D01*
X0324441Y0089812D01*
X0327253Y0087000D01*
X0326133Y0088120D02*
X0004400Y0088120D01*
X0004400Y0089718D02*
X0324535Y0089718D01*
X0324441Y0091317D02*
X0004400Y0091317D01*
X0004400Y0092915D02*
X0324441Y0092915D01*
X0325166Y0094514D02*
X0004400Y0094514D01*
X0004400Y0096112D02*
X0326765Y0096112D01*
X0326570Y0097711D02*
X0004400Y0097711D01*
X0004400Y0099309D02*
X0325077Y0099309D01*
X0325172Y0099081D02*
X0326522Y0097731D01*
X0328286Y0097000D01*
X0330196Y0097000D01*
X0331960Y0097731D01*
X0333310Y0099081D01*
X0334041Y0100845D01*
X0334041Y0102755D01*
X0333310Y0104519D01*
X0331960Y0105869D01*
X0330196Y0106600D01*
X0328286Y0106600D01*
X0326522Y0105869D01*
X0325172Y0104519D01*
X0324441Y0102755D01*
X0324441Y0100845D01*
X0325172Y0099081D01*
X0324441Y0100908D02*
X0004400Y0100908D01*
X0004400Y0102506D02*
X0324441Y0102506D01*
X0325000Y0104105D02*
X0004400Y0104105D01*
X0004400Y0105703D02*
X0326356Y0105703D01*
X0327253Y0107000D02*
X0331229Y0107000D01*
X0334041Y0109812D01*
X0334041Y0113788D01*
X0331229Y0116600D01*
X0327253Y0116600D01*
X0324441Y0113788D01*
X0324441Y0109812D01*
X0327253Y0107000D01*
X0326951Y0107302D02*
X0004400Y0107302D01*
X0004400Y0108900D02*
X0325352Y0108900D01*
X0324441Y0110499D02*
X0004400Y0110499D01*
X0004400Y0112097D02*
X0324441Y0112097D01*
X0324441Y0113696D02*
X0004400Y0113696D01*
X0004400Y0115294D02*
X0325947Y0115294D01*
X0327253Y0117000D02*
X0324441Y0119812D01*
X0324441Y0123788D01*
X0327253Y0126600D01*
X0331229Y0126600D01*
X0334041Y0123788D01*
X0334041Y0119812D01*
X0331229Y0117000D01*
X0327253Y0117000D01*
X0325761Y0118491D02*
X0004400Y0118491D01*
X0004400Y0116893D02*
X0367507Y0116893D01*
X0367507Y0118491D02*
X0362720Y0118491D01*
X0364041Y0119812D02*
X0361229Y0117000D01*
X0357253Y0117000D01*
X0354441Y0119812D01*
X0354441Y0123788D01*
X0357253Y0126600D01*
X0361229Y0126600D01*
X0364041Y0123788D01*
X0364041Y0119812D01*
X0364041Y0120090D02*
X0367507Y0120090D01*
X0367507Y0121688D02*
X0364041Y0121688D01*
X0364041Y0123287D02*
X0367507Y0123287D01*
X0367507Y0124885D02*
X0362944Y0124885D01*
X0361345Y0126484D02*
X0367507Y0126484D01*
X0367507Y0128082D02*
X0362312Y0128082D01*
X0361229Y0127000D02*
X0364041Y0129812D01*
X0364041Y0133788D01*
X0361229Y0136600D01*
X0357253Y0136600D01*
X0354441Y0133788D01*
X0354441Y0129812D01*
X0357253Y0127000D01*
X0361229Y0127000D01*
X0363910Y0129681D02*
X0367507Y0129681D01*
X0367507Y0131279D02*
X0364041Y0131279D01*
X0364041Y0132878D02*
X0367507Y0132878D01*
X0367507Y0134476D02*
X0363353Y0134476D01*
X0361754Y0136075D02*
X0367507Y0136075D01*
X0367507Y0137673D02*
X0361903Y0137673D01*
X0361229Y0137000D02*
X0364041Y0139812D01*
X0364041Y0143788D01*
X0361229Y0146600D01*
X0357253Y0146600D01*
X0354441Y0143788D01*
X0354441Y0139812D01*
X0357253Y0137000D01*
X0361229Y0137000D01*
X0363501Y0139272D02*
X0367507Y0139272D01*
X0367507Y0140870D02*
X0364041Y0140870D01*
X0364041Y0142469D02*
X0367507Y0142469D01*
X0367507Y0144068D02*
X0363762Y0144068D01*
X0362163Y0145666D02*
X0367507Y0145666D01*
X0367507Y0147265D02*
X0361494Y0147265D01*
X0361229Y0147000D02*
X0364041Y0149812D01*
X0364041Y0153788D01*
X0361229Y0156600D01*
X0357253Y0156600D01*
X0354441Y0153788D01*
X0354441Y0149812D01*
X0357253Y0147000D01*
X0361229Y0147000D01*
X0363092Y0148863D02*
X0367507Y0148863D01*
X0367507Y0150462D02*
X0364041Y0150462D01*
X0364041Y0152060D02*
X0367507Y0152060D01*
X0367507Y0153659D02*
X0364041Y0153659D01*
X0362572Y0155257D02*
X0367507Y0155257D01*
X0367507Y0156856D02*
X0004400Y0156856D01*
X0004400Y0158454D02*
X0325799Y0158454D01*
X0324441Y0159812D02*
X0327253Y0157000D01*
X0331229Y0157000D01*
X0334041Y0159812D01*
X0334041Y0163788D01*
X0331229Y0166600D01*
X0327253Y0166600D01*
X0324441Y0163788D01*
X0324441Y0159812D01*
X0324441Y0160053D02*
X0004400Y0160053D01*
X0004400Y0161651D02*
X0324441Y0161651D01*
X0324441Y0163250D02*
X0004400Y0163250D01*
X0004400Y0164848D02*
X0325501Y0164848D01*
X0327099Y0166447D02*
X0004400Y0166447D01*
X0004400Y0168045D02*
X0326208Y0168045D01*
X0327253Y0167000D02*
X0324441Y0169812D01*
X0324441Y0173788D01*
X0327253Y0176600D01*
X0331229Y0176600D01*
X0334041Y0173788D01*
X0334041Y0169812D01*
X0331229Y0167000D01*
X0327253Y0167000D01*
X0324609Y0169644D02*
X0004400Y0169644D01*
X0004400Y0171242D02*
X0324441Y0171242D01*
X0324441Y0172841D02*
X0004400Y0172841D01*
X0004400Y0174439D02*
X0325092Y0174439D01*
X0326690Y0176038D02*
X0004400Y0176038D01*
X0004400Y0177636D02*
X0326616Y0177636D01*
X0327253Y0177000D02*
X0331229Y0177000D01*
X0334041Y0179812D01*
X0334041Y0183788D01*
X0331229Y0186600D01*
X0327253Y0186600D01*
X0324441Y0183788D01*
X0324441Y0179812D01*
X0327253Y0177000D01*
X0325018Y0179235D02*
X0004400Y0179235D01*
X0004400Y0180833D02*
X0324441Y0180833D01*
X0324441Y0182432D02*
X0004400Y0182432D01*
X0004400Y0184030D02*
X0324683Y0184030D01*
X0326282Y0185629D02*
X0004400Y0185629D01*
X0004400Y0187227D02*
X0327025Y0187227D01*
X0327253Y0187000D02*
X0331229Y0187000D01*
X0334041Y0189812D01*
X0334041Y0193788D01*
X0331229Y0196600D01*
X0327253Y0196600D01*
X0324441Y0193788D01*
X0324441Y0189812D01*
X0327253Y0187000D01*
X0325427Y0188826D02*
X0004400Y0188826D01*
X0004400Y0190424D02*
X0324441Y0190424D01*
X0324441Y0192023D02*
X0004400Y0192023D01*
X0004400Y0193621D02*
X0324441Y0193621D01*
X0325873Y0195220D02*
X0004400Y0195220D01*
X0004400Y0196818D02*
X0367507Y0196818D01*
X0367507Y0195220D02*
X0362609Y0195220D01*
X0361229Y0196600D02*
X0357253Y0196600D01*
X0354441Y0193788D01*
X0354441Y0189812D01*
X0357253Y0187000D01*
X0361229Y0187000D01*
X0364041Y0189812D01*
X0364041Y0193788D01*
X0361229Y0196600D01*
X0361229Y0197000D02*
X0364041Y0199812D01*
X0364041Y0203788D01*
X0361229Y0206600D01*
X0357253Y0206600D01*
X0354441Y0203788D01*
X0354441Y0199812D01*
X0357253Y0197000D01*
X0361229Y0197000D01*
X0362646Y0198417D02*
X0367507Y0198417D01*
X0367507Y0200015D02*
X0364041Y0200015D01*
X0364041Y0201614D02*
X0367507Y0201614D01*
X0367507Y0203212D02*
X0364041Y0203212D01*
X0363018Y0204811D02*
X0367507Y0204811D01*
X0367507Y0206409D02*
X0361420Y0206409D01*
X0361229Y0207000D02*
X0364041Y0209812D01*
X0364041Y0213788D01*
X0361229Y0216600D01*
X0357253Y0216600D01*
X0354441Y0213788D01*
X0354441Y0209812D01*
X0357253Y0207000D01*
X0361229Y0207000D01*
X0362237Y0208008D02*
X0367507Y0208008D01*
X0367507Y0209606D02*
X0363836Y0209606D01*
X0364041Y0211205D02*
X0367507Y0211205D01*
X0367507Y0212803D02*
X0364041Y0212803D01*
X0363427Y0214402D02*
X0367507Y0214402D01*
X0367507Y0216001D02*
X0361829Y0216001D01*
X0361229Y0217000D02*
X0364041Y0219812D01*
X0364041Y0223788D01*
X0361229Y0226600D01*
X0357253Y0226600D01*
X0354441Y0223788D01*
X0354441Y0219812D01*
X0357253Y0217000D01*
X0361229Y0217000D01*
X0361828Y0217599D02*
X0367507Y0217599D01*
X0367507Y0219198D02*
X0363427Y0219198D01*
X0364041Y0220796D02*
X0367507Y0220796D01*
X0367507Y0222395D02*
X0364041Y0222395D01*
X0363836Y0223993D02*
X0367507Y0223993D01*
X0367507Y0225592D02*
X0362238Y0225592D01*
X0361229Y0227000D02*
X0357253Y0227000D01*
X0354441Y0229812D01*
X0354441Y0233788D01*
X0357253Y0236600D01*
X0361229Y0236600D01*
X0364041Y0233788D01*
X0364041Y0229812D01*
X0361229Y0227000D01*
X0361419Y0227190D02*
X0367507Y0227190D01*
X0367507Y0228789D02*
X0363018Y0228789D01*
X0364041Y0230387D02*
X0367507Y0230387D01*
X0367507Y0231986D02*
X0364041Y0231986D01*
X0364041Y0233584D02*
X0367507Y0233584D01*
X0367507Y0235183D02*
X0362646Y0235183D01*
X0361229Y0237000D02*
X0364041Y0239812D01*
X0364041Y0243788D01*
X0361229Y0246600D01*
X0357253Y0246600D01*
X0354441Y0243788D01*
X0354441Y0239812D01*
X0357253Y0237000D01*
X0361229Y0237000D01*
X0362609Y0238380D02*
X0367507Y0238380D01*
X0367507Y0239978D02*
X0364041Y0239978D01*
X0364041Y0241577D02*
X0367507Y0241577D01*
X0367507Y0243175D02*
X0364041Y0243175D01*
X0363055Y0244774D02*
X0367507Y0244774D01*
X0367507Y0246372D02*
X0361457Y0246372D01*
X0361229Y0247000D02*
X0364041Y0249812D01*
X0364041Y0253788D01*
X0361229Y0256600D01*
X0357253Y0256600D01*
X0354441Y0253788D01*
X0354441Y0249812D01*
X0357253Y0247000D01*
X0361229Y0247000D01*
X0362200Y0247971D02*
X0367507Y0247971D01*
X0367507Y0249569D02*
X0363798Y0249569D01*
X0364041Y0251168D02*
X0367507Y0251168D01*
X0367507Y0252766D02*
X0364041Y0252766D01*
X0363464Y0254365D02*
X0367507Y0254365D01*
X0367507Y0255963D02*
X0361866Y0255963D01*
X0361229Y0257000D02*
X0364041Y0259812D01*
X0364041Y0263788D01*
X0361229Y0266600D01*
X0357253Y0266600D01*
X0354441Y0263788D01*
X0354441Y0259812D01*
X0357253Y0257000D01*
X0361229Y0257000D01*
X0361791Y0257562D02*
X0367507Y0257562D01*
X0367507Y0259160D02*
X0363389Y0259160D01*
X0364041Y0260759D02*
X0367507Y0260759D01*
X0367507Y0262357D02*
X0364041Y0262357D01*
X0363873Y0263956D02*
X0367507Y0263956D01*
X0367507Y0265554D02*
X0362275Y0265554D01*
X0361229Y0267000D02*
X0357253Y0267000D01*
X0354441Y0269812D01*
X0354441Y0273788D01*
X0357253Y0276600D01*
X0361229Y0276600D01*
X0364041Y0273788D01*
X0364041Y0269812D01*
X0361229Y0267000D01*
X0361382Y0267153D02*
X0367507Y0267153D01*
X0367507Y0268751D02*
X0362981Y0268751D01*
X0364041Y0270350D02*
X0367507Y0270350D01*
X0367507Y0271948D02*
X0364041Y0271948D01*
X0364041Y0273547D02*
X0367507Y0273547D01*
X0367507Y0275145D02*
X0362684Y0275145D01*
X0361229Y0277000D02*
X0357253Y0277000D01*
X0354441Y0279812D01*
X0354441Y0283788D01*
X0357253Y0286600D01*
X0361229Y0286600D01*
X0364041Y0283788D01*
X0364041Y0279812D01*
X0361229Y0277000D01*
X0362572Y0278342D02*
X0367507Y0278342D01*
X0367507Y0276744D02*
X0004400Y0276744D01*
X0004400Y0278342D02*
X0325910Y0278342D01*
X0327253Y0277000D02*
X0324441Y0279812D01*
X0324441Y0283788D01*
X0327253Y0286600D01*
X0331229Y0286600D01*
X0334041Y0283788D01*
X0334041Y0279812D01*
X0331229Y0277000D01*
X0327253Y0277000D01*
X0327253Y0276600D02*
X0324441Y0273788D01*
X0324441Y0269812D01*
X0327253Y0267000D01*
X0331229Y0267000D01*
X0334041Y0269812D01*
X0334041Y0273788D01*
X0331229Y0276600D01*
X0327253Y0276600D01*
X0325798Y0275145D02*
X0004400Y0275145D01*
X0004400Y0273547D02*
X0324441Y0273547D01*
X0324441Y0271948D02*
X0004400Y0271948D01*
X0004400Y0270350D02*
X0324441Y0270350D01*
X0325501Y0268751D02*
X0004400Y0268751D01*
X0004400Y0267153D02*
X0327100Y0267153D01*
X0327253Y0266600D02*
X0324441Y0263788D01*
X0324441Y0259812D01*
X0327253Y0257000D01*
X0331229Y0257000D01*
X0334041Y0259812D01*
X0334041Y0263788D01*
X0331229Y0266600D01*
X0327253Y0266600D01*
X0326207Y0265554D02*
X0004400Y0265554D01*
X0004400Y0263956D02*
X0324609Y0263956D01*
X0324441Y0262357D02*
X0004400Y0262357D01*
X0004400Y0260759D02*
X0324441Y0260759D01*
X0325092Y0259160D02*
X0004400Y0259160D01*
X0004400Y0257562D02*
X0326691Y0257562D01*
X0327253Y0256600D02*
X0324441Y0253788D01*
X0324441Y0249812D01*
X0327253Y0247000D01*
X0331229Y0247000D01*
X0334041Y0249812D01*
X0334041Y0253788D01*
X0331229Y0256600D01*
X0327253Y0256600D01*
X0326616Y0255963D02*
X0004400Y0255963D01*
X0004400Y0254365D02*
X0325018Y0254365D01*
X0324441Y0252766D02*
X0004400Y0252766D01*
X0004400Y0251168D02*
X0324441Y0251168D01*
X0324683Y0249569D02*
X0004400Y0249569D01*
X0004400Y0247971D02*
X0326282Y0247971D01*
X0327253Y0246600D02*
X0324441Y0243788D01*
X0324441Y0239812D01*
X0327253Y0237000D01*
X0331229Y0237000D01*
X0334041Y0239812D01*
X0334041Y0243788D01*
X0331229Y0246600D01*
X0327253Y0246600D01*
X0327025Y0246372D02*
X0004400Y0246372D01*
X0004400Y0244774D02*
X0325426Y0244774D01*
X0324441Y0243175D02*
X0004400Y0243175D01*
X0004400Y0241577D02*
X0324441Y0241577D01*
X0324441Y0239978D02*
X0004400Y0239978D01*
X0004400Y0238380D02*
X0325873Y0238380D01*
X0327253Y0236600D02*
X0324441Y0233788D01*
X0324441Y0229812D01*
X0327253Y0227000D01*
X0331229Y0227000D01*
X0334041Y0229812D01*
X0334041Y0233788D01*
X0331229Y0236600D01*
X0327253Y0236600D01*
X0325835Y0235183D02*
X0004400Y0235183D01*
X0004400Y0236781D02*
X0367507Y0236781D01*
X0357063Y0227190D02*
X0351419Y0227190D01*
X0351229Y0227000D02*
X0354041Y0229812D01*
X0354041Y0233788D01*
X0351229Y0236600D01*
X0347253Y0236600D01*
X0344441Y0233788D01*
X0344441Y0229812D01*
X0347253Y0227000D01*
X0351229Y0227000D01*
X0351229Y0226600D02*
X0347253Y0226600D01*
X0344441Y0223788D01*
X0344441Y0219812D01*
X0347253Y0217000D01*
X0351229Y0217000D01*
X0354041Y0219812D01*
X0354041Y0223788D01*
X0351229Y0226600D01*
X0352238Y0225592D02*
X0356244Y0225592D01*
X0354646Y0223993D02*
X0353836Y0223993D01*
X0354041Y0222395D02*
X0354441Y0222395D01*
X0354441Y0220796D02*
X0354041Y0220796D01*
X0353427Y0219198D02*
X0355055Y0219198D01*
X0356654Y0217599D02*
X0351828Y0217599D01*
X0351229Y0216600D02*
X0347253Y0216600D01*
X0344441Y0213788D01*
X0344441Y0209812D01*
X0347253Y0207000D01*
X0351229Y0207000D01*
X0354041Y0209812D01*
X0354041Y0213788D01*
X0351229Y0216600D01*
X0351829Y0216001D02*
X0356653Y0216001D01*
X0355055Y0214402D02*
X0353427Y0214402D01*
X0354041Y0212803D02*
X0354441Y0212803D01*
X0354441Y0211205D02*
X0354041Y0211205D01*
X0353836Y0209606D02*
X0354646Y0209606D01*
X0356245Y0208008D02*
X0352237Y0208008D01*
X0351229Y0206600D02*
X0347253Y0206600D01*
X0344441Y0203788D01*
X0344441Y0199812D01*
X0347253Y0197000D01*
X0351229Y0197000D01*
X0354041Y0199812D01*
X0354041Y0203788D01*
X0351229Y0206600D01*
X0351420Y0206409D02*
X0357062Y0206409D01*
X0355464Y0204811D02*
X0353018Y0204811D01*
X0354041Y0203212D02*
X0354441Y0203212D01*
X0354441Y0201614D02*
X0354041Y0201614D01*
X0354041Y0200015D02*
X0354441Y0200015D01*
X0355836Y0198417D02*
X0352646Y0198417D01*
X0351229Y0196600D02*
X0347253Y0196600D01*
X0344441Y0193788D01*
X0344441Y0189812D01*
X0347253Y0187000D01*
X0351229Y0187000D01*
X0354041Y0189812D01*
X0354041Y0193788D01*
X0351229Y0196600D01*
X0352609Y0195220D02*
X0355873Y0195220D01*
X0354441Y0193621D02*
X0354041Y0193621D01*
X0354041Y0192023D02*
X0354441Y0192023D01*
X0354441Y0190424D02*
X0354041Y0190424D01*
X0353055Y0188826D02*
X0355427Y0188826D01*
X0357025Y0187227D02*
X0351456Y0187227D01*
X0351229Y0186600D02*
X0347253Y0186600D01*
X0344441Y0183788D01*
X0344441Y0179812D01*
X0347253Y0177000D01*
X0351229Y0177000D01*
X0354041Y0179812D01*
X0354041Y0183788D01*
X0351229Y0186600D01*
X0352200Y0185629D02*
X0356282Y0185629D01*
X0357253Y0186600D02*
X0354441Y0183788D01*
X0354441Y0179812D01*
X0357253Y0177000D01*
X0361229Y0177000D01*
X0364041Y0179812D01*
X0364041Y0183788D01*
X0361229Y0186600D01*
X0357253Y0186600D01*
X0354683Y0184030D02*
X0353799Y0184030D01*
X0354041Y0182432D02*
X0354441Y0182432D01*
X0354441Y0180833D02*
X0354041Y0180833D01*
X0353464Y0179235D02*
X0355018Y0179235D01*
X0356616Y0177636D02*
X0351865Y0177636D01*
X0351229Y0176600D02*
X0347253Y0176600D01*
X0344441Y0173788D01*
X0344441Y0169812D01*
X0347253Y0167000D01*
X0351229Y0167000D01*
X0354041Y0169812D01*
X0354041Y0173788D01*
X0351229Y0176600D01*
X0351791Y0176038D02*
X0356690Y0176038D01*
X0357253Y0176600D02*
X0354441Y0173788D01*
X0354441Y0169812D01*
X0357253Y0167000D01*
X0361229Y0167000D01*
X0364041Y0169812D01*
X0364041Y0173788D01*
X0361229Y0176600D01*
X0357253Y0176600D01*
X0355092Y0174439D02*
X0353390Y0174439D01*
X0354041Y0172841D02*
X0354441Y0172841D01*
X0354441Y0171242D02*
X0354041Y0171242D01*
X0353873Y0169644D02*
X0354609Y0169644D01*
X0356208Y0168045D02*
X0352274Y0168045D01*
X0351229Y0166600D02*
X0347253Y0166600D01*
X0344441Y0163788D01*
X0344441Y0159812D01*
X0347253Y0157000D01*
X0351229Y0157000D01*
X0354041Y0159812D01*
X0354041Y0163788D01*
X0351229Y0166600D01*
X0351382Y0166447D02*
X0357099Y0166447D01*
X0357253Y0166600D02*
X0354441Y0163788D01*
X0354441Y0159812D01*
X0357253Y0157000D01*
X0361229Y0157000D01*
X0364041Y0159812D01*
X0364041Y0163788D01*
X0361229Y0166600D01*
X0357253Y0166600D01*
X0355501Y0164848D02*
X0352981Y0164848D01*
X0354041Y0163250D02*
X0354441Y0163250D01*
X0354441Y0161651D02*
X0354041Y0161651D01*
X0354041Y0160053D02*
X0354441Y0160053D01*
X0355799Y0158454D02*
X0352683Y0158454D01*
X0351229Y0156600D02*
X0347253Y0156600D01*
X0344441Y0153788D01*
X0344441Y0149812D01*
X0347253Y0147000D01*
X0351229Y0147000D01*
X0354041Y0149812D01*
X0354041Y0153788D01*
X0351229Y0156600D01*
X0352572Y0155257D02*
X0355910Y0155257D01*
X0354441Y0153659D02*
X0354041Y0153659D01*
X0354041Y0152060D02*
X0354441Y0152060D01*
X0354441Y0150462D02*
X0354041Y0150462D01*
X0353092Y0148863D02*
X0355390Y0148863D01*
X0356988Y0147265D02*
X0351494Y0147265D01*
X0351229Y0146600D02*
X0347253Y0146600D01*
X0344441Y0143788D01*
X0344441Y0139812D01*
X0347253Y0137000D01*
X0351229Y0137000D01*
X0354041Y0139812D01*
X0354041Y0143788D01*
X0351229Y0146600D01*
X0352163Y0145666D02*
X0356319Y0145666D01*
X0354720Y0144068D02*
X0353762Y0144068D01*
X0354041Y0142469D02*
X0354441Y0142469D01*
X0354441Y0140870D02*
X0354041Y0140870D01*
X0353501Y0139272D02*
X0354981Y0139272D01*
X0356579Y0137673D02*
X0351903Y0137673D01*
X0351229Y0136600D02*
X0347253Y0136600D01*
X0344441Y0133788D01*
X0344441Y0129812D01*
X0347253Y0127000D01*
X0351229Y0127000D01*
X0354041Y0129812D01*
X0354041Y0133788D01*
X0351229Y0136600D01*
X0351754Y0136075D02*
X0356728Y0136075D01*
X0355129Y0134476D02*
X0353353Y0134476D01*
X0354041Y0132878D02*
X0354441Y0132878D01*
X0354441Y0131279D02*
X0354041Y0131279D01*
X0353910Y0129681D02*
X0354572Y0129681D01*
X0356170Y0128082D02*
X0352312Y0128082D01*
X0351229Y0126600D02*
X0347253Y0126600D01*
X0344441Y0123788D01*
X0344441Y0119812D01*
X0347253Y0117000D01*
X0351229Y0117000D01*
X0354041Y0119812D01*
X0354041Y0123788D01*
X0351229Y0126600D01*
X0351345Y0126484D02*
X0357137Y0126484D01*
X0355538Y0124885D02*
X0352944Y0124885D01*
X0354041Y0123287D02*
X0354441Y0123287D01*
X0354441Y0121688D02*
X0354041Y0121688D01*
X0354041Y0120090D02*
X0354441Y0120090D01*
X0355761Y0118491D02*
X0352720Y0118491D01*
X0351229Y0116600D02*
X0347253Y0116600D01*
X0344441Y0113788D01*
X0344441Y0109812D01*
X0347253Y0107000D01*
X0351229Y0107000D01*
X0354041Y0109812D01*
X0354041Y0113788D01*
X0351229Y0116600D01*
X0352535Y0115294D02*
X0355947Y0115294D01*
X0357253Y0116600D02*
X0354441Y0113788D01*
X0354441Y0109812D01*
X0357253Y0107000D01*
X0361229Y0107000D01*
X0364041Y0109812D01*
X0364041Y0113788D01*
X0361229Y0116600D01*
X0357253Y0116600D01*
X0354441Y0113696D02*
X0354041Y0113696D01*
X0354041Y0112097D02*
X0354441Y0112097D01*
X0354441Y0110499D02*
X0354041Y0110499D01*
X0353129Y0108900D02*
X0355352Y0108900D01*
X0356951Y0107302D02*
X0351531Y0107302D01*
X0351960Y0105869D02*
X0350196Y0106600D01*
X0348286Y0106600D01*
X0346522Y0105869D01*
X0345172Y0104519D01*
X0344441Y0102755D01*
X0344441Y0100845D01*
X0345172Y0099081D01*
X0346522Y0097731D01*
X0348286Y0097000D01*
X0350196Y0097000D01*
X0351960Y0097731D01*
X0353310Y0099081D01*
X0354041Y0100845D01*
X0354041Y0102755D01*
X0353310Y0104519D01*
X0351960Y0105869D01*
X0352126Y0105703D02*
X0356356Y0105703D01*
X0357253Y0106600D02*
X0354441Y0103788D01*
X0354441Y0099812D01*
X0357253Y0097000D01*
X0361229Y0097000D01*
X0364041Y0099812D01*
X0364041Y0103788D01*
X0361229Y0106600D01*
X0357253Y0106600D01*
X0354757Y0104105D02*
X0353482Y0104105D01*
X0354041Y0102506D02*
X0354441Y0102506D01*
X0354441Y0100908D02*
X0354041Y0100908D01*
X0353405Y0099309D02*
X0354944Y0099309D01*
X0356542Y0097711D02*
X0351911Y0097711D01*
X0351229Y0096600D02*
X0347253Y0096600D01*
X0344441Y0093788D01*
X0344441Y0089812D01*
X0347253Y0087000D01*
X0351229Y0087000D01*
X0354041Y0089812D01*
X0354041Y0093788D01*
X0351229Y0096600D01*
X0351717Y0096112D02*
X0356765Y0096112D01*
X0357253Y0096600D02*
X0354441Y0093788D01*
X0354441Y0089812D01*
X0357253Y0087000D01*
X0361229Y0087000D01*
X0364041Y0089812D01*
X0364041Y0093788D01*
X0361229Y0096600D01*
X0357253Y0096600D01*
X0355166Y0094514D02*
X0353315Y0094514D01*
X0354041Y0092915D02*
X0354441Y0092915D01*
X0354441Y0091317D02*
X0354041Y0091317D01*
X0353947Y0089718D02*
X0354535Y0089718D01*
X0356133Y0088120D02*
X0352349Y0088120D01*
X0351229Y0086600D02*
X0347253Y0086600D01*
X0344441Y0083788D01*
X0344441Y0079812D01*
X0347253Y0077000D01*
X0351229Y0077000D01*
X0354041Y0079812D01*
X0354041Y0083788D01*
X0351229Y0086600D01*
X0351308Y0086521D02*
X0357174Y0086521D01*
X0357253Y0086600D02*
X0354441Y0083788D01*
X0354441Y0079812D01*
X0357253Y0077000D01*
X0361229Y0077000D01*
X0364041Y0079812D01*
X0364041Y0083788D01*
X0361229Y0086600D01*
X0357253Y0086600D01*
X0355575Y0084923D02*
X0352907Y0084923D01*
X0354041Y0083324D02*
X0354441Y0083324D01*
X0354441Y0081726D02*
X0354041Y0081726D01*
X0354041Y0080127D02*
X0354441Y0080127D01*
X0355724Y0078529D02*
X0352758Y0078529D01*
X0351229Y0076600D02*
X0347253Y0076600D01*
X0344441Y0073788D01*
X0344441Y0069812D01*
X0347253Y0067000D01*
X0351229Y0067000D01*
X0354041Y0069812D01*
X0354041Y0073788D01*
X0351229Y0076600D01*
X0352498Y0075332D02*
X0355984Y0075332D01*
X0354441Y0073733D02*
X0354041Y0073733D01*
X0354041Y0072134D02*
X0354441Y0072134D01*
X0354441Y0070536D02*
X0354041Y0070536D01*
X0353167Y0068937D02*
X0355315Y0068937D01*
X0356914Y0067339D02*
X0351568Y0067339D01*
X0351229Y0066600D02*
X0347253Y0066600D01*
X0344441Y0063788D01*
X0344441Y0059812D01*
X0347253Y0057000D01*
X0351229Y0057000D01*
X0354041Y0059812D01*
X0354041Y0063788D01*
X0351229Y0066600D01*
X0352089Y0065740D02*
X0356393Y0065740D01*
X0354795Y0064142D02*
X0353687Y0064142D01*
X0354041Y0062543D02*
X0354441Y0062543D01*
X0354441Y0060945D02*
X0354041Y0060945D01*
X0353576Y0059346D02*
X0354906Y0059346D01*
X0356505Y0057748D02*
X0351977Y0057748D01*
X0351229Y0056600D02*
X0347253Y0056600D01*
X0344441Y0053788D01*
X0344441Y0049812D01*
X0347253Y0047000D01*
X0351229Y0047000D01*
X0354041Y0049812D01*
X0354041Y0053788D01*
X0351229Y0056600D01*
X0351680Y0056149D02*
X0356802Y0056149D01*
X0355204Y0054551D02*
X0353278Y0054551D01*
X0354041Y0052952D02*
X0354441Y0052952D01*
X0354441Y0051354D02*
X0354041Y0051354D01*
X0353984Y0049755D02*
X0354497Y0049755D01*
X0356096Y0048157D02*
X0352386Y0048157D01*
X0346096Y0048157D02*
X0342386Y0048157D01*
X0341229Y0047000D02*
X0344041Y0049812D01*
X0344041Y0053788D01*
X0341229Y0056600D01*
X0337253Y0056600D01*
X0334441Y0053788D01*
X0334441Y0049812D01*
X0337253Y0047000D01*
X0341229Y0047000D01*
X0343984Y0049755D02*
X0344497Y0049755D01*
X0344441Y0051354D02*
X0344041Y0051354D01*
X0344041Y0052952D02*
X0344441Y0052952D01*
X0345204Y0054551D02*
X0343278Y0054551D01*
X0341680Y0056149D02*
X0346802Y0056149D01*
X0346505Y0057748D02*
X0341977Y0057748D01*
X0341229Y0057000D02*
X0344041Y0059812D01*
X0344041Y0063788D01*
X0341229Y0066600D01*
X0337253Y0066600D01*
X0334441Y0063788D01*
X0334441Y0059812D01*
X0337253Y0057000D01*
X0341229Y0057000D01*
X0343576Y0059346D02*
X0344906Y0059346D01*
X0344441Y0060945D02*
X0344041Y0060945D01*
X0344041Y0062543D02*
X0344441Y0062543D01*
X0344795Y0064142D02*
X0343687Y0064142D01*
X0342089Y0065740D02*
X0346393Y0065740D01*
X0346914Y0067339D02*
X0341568Y0067339D01*
X0341229Y0067000D02*
X0344041Y0069812D01*
X0344041Y0073788D01*
X0341229Y0076600D01*
X0337253Y0076600D01*
X0334441Y0073788D01*
X0334441Y0069812D01*
X0337253Y0067000D01*
X0341229Y0067000D01*
X0343167Y0068937D02*
X0345315Y0068937D01*
X0344441Y0070536D02*
X0344041Y0070536D01*
X0344041Y0072134D02*
X0344441Y0072134D01*
X0344441Y0073733D02*
X0344041Y0073733D01*
X0342498Y0075332D02*
X0345984Y0075332D01*
X0345724Y0078529D02*
X0342758Y0078529D01*
X0344041Y0079812D02*
X0341229Y0077000D01*
X0337253Y0077000D01*
X0334441Y0079812D01*
X0334441Y0083788D01*
X0337253Y0086600D01*
X0341229Y0086600D01*
X0344041Y0083788D01*
X0344041Y0079812D01*
X0344041Y0080127D02*
X0344441Y0080127D01*
X0344441Y0081726D02*
X0344041Y0081726D01*
X0344041Y0083324D02*
X0344441Y0083324D01*
X0345575Y0084923D02*
X0342907Y0084923D01*
X0341308Y0086521D02*
X0347174Y0086521D01*
X0346133Y0088120D02*
X0342349Y0088120D01*
X0341229Y0087000D02*
X0344041Y0089812D01*
X0344041Y0093788D01*
X0341229Y0096600D01*
X0337253Y0096600D01*
X0334441Y0093788D01*
X0334441Y0089812D01*
X0337253Y0087000D01*
X0341229Y0087000D01*
X0343947Y0089718D02*
X0344535Y0089718D01*
X0344441Y0091317D02*
X0344041Y0091317D01*
X0344041Y0092915D02*
X0344441Y0092915D01*
X0345166Y0094514D02*
X0343315Y0094514D01*
X0341717Y0096112D02*
X0346765Y0096112D01*
X0346570Y0097711D02*
X0341940Y0097711D01*
X0341229Y0097000D02*
X0344041Y0099812D01*
X0344041Y0103788D01*
X0341229Y0106600D01*
X0337253Y0106600D01*
X0334441Y0103788D01*
X0334441Y0099812D01*
X0337253Y0097000D01*
X0341229Y0097000D01*
X0343538Y0099309D02*
X0345077Y0099309D01*
X0344441Y0100908D02*
X0344041Y0100908D01*
X0344041Y0102506D02*
X0344441Y0102506D01*
X0345000Y0104105D02*
X0343724Y0104105D01*
X0342126Y0105703D02*
X0346356Y0105703D01*
X0346951Y0107302D02*
X0341531Y0107302D01*
X0341229Y0107000D02*
X0344041Y0109812D01*
X0344041Y0113788D01*
X0341229Y0116600D01*
X0337253Y0116600D01*
X0334441Y0113788D01*
X0334441Y0109812D01*
X0337253Y0107000D01*
X0341229Y0107000D01*
X0343129Y0108900D02*
X0345352Y0108900D01*
X0344441Y0110499D02*
X0344041Y0110499D01*
X0344041Y0112097D02*
X0344441Y0112097D01*
X0344441Y0113696D02*
X0344041Y0113696D01*
X0342535Y0115294D02*
X0345947Y0115294D01*
X0345761Y0118491D02*
X0342720Y0118491D01*
X0344041Y0119812D02*
X0341229Y0117000D01*
X0337253Y0117000D01*
X0334441Y0119812D01*
X0334441Y0123788D01*
X0337253Y0126600D01*
X0341229Y0126600D01*
X0344041Y0123788D01*
X0344041Y0119812D01*
X0344041Y0120090D02*
X0344441Y0120090D01*
X0344441Y0121688D02*
X0344041Y0121688D01*
X0344041Y0123287D02*
X0344441Y0123287D01*
X0345538Y0124885D02*
X0342944Y0124885D01*
X0341345Y0126484D02*
X0347137Y0126484D01*
X0346170Y0128082D02*
X0342312Y0128082D01*
X0341229Y0127000D02*
X0344041Y0129812D01*
X0344041Y0133788D01*
X0341229Y0136600D01*
X0337253Y0136600D01*
X0334441Y0133788D01*
X0334441Y0129812D01*
X0337253Y0127000D01*
X0341229Y0127000D01*
X0343910Y0129681D02*
X0344572Y0129681D01*
X0344441Y0131279D02*
X0344041Y0131279D01*
X0344041Y0132878D02*
X0344441Y0132878D01*
X0345129Y0134476D02*
X0343353Y0134476D01*
X0341754Y0136075D02*
X0346728Y0136075D01*
X0346579Y0137673D02*
X0341903Y0137673D01*
X0341229Y0137000D02*
X0344041Y0139812D01*
X0344041Y0143788D01*
X0341229Y0146600D01*
X0337253Y0146600D01*
X0334441Y0143788D01*
X0334441Y0139812D01*
X0337253Y0137000D01*
X0341229Y0137000D01*
X0343501Y0139272D02*
X0344981Y0139272D01*
X0344441Y0140870D02*
X0344041Y0140870D01*
X0344041Y0142469D02*
X0344441Y0142469D01*
X0344720Y0144068D02*
X0343762Y0144068D01*
X0342163Y0145666D02*
X0346319Y0145666D01*
X0346988Y0147265D02*
X0341494Y0147265D01*
X0341229Y0147000D02*
X0344041Y0149812D01*
X0344041Y0153788D01*
X0341229Y0156600D01*
X0337253Y0156600D01*
X0334441Y0153788D01*
X0334441Y0149812D01*
X0337253Y0147000D01*
X0341229Y0147000D01*
X0343092Y0148863D02*
X0345390Y0148863D01*
X0344441Y0150462D02*
X0344041Y0150462D01*
X0344041Y0152060D02*
X0344441Y0152060D01*
X0344441Y0153659D02*
X0344041Y0153659D01*
X0342572Y0155257D02*
X0345910Y0155257D01*
X0345799Y0158454D02*
X0342683Y0158454D01*
X0344041Y0159812D02*
X0341229Y0157000D01*
X0337253Y0157000D01*
X0334441Y0159812D01*
X0334441Y0163788D01*
X0337253Y0166600D01*
X0341229Y0166600D01*
X0344041Y0163788D01*
X0344041Y0159812D01*
X0344041Y0160053D02*
X0344441Y0160053D01*
X0344441Y0161651D02*
X0344041Y0161651D01*
X0344041Y0163250D02*
X0344441Y0163250D01*
X0345501Y0164848D02*
X0342981Y0164848D01*
X0341382Y0166447D02*
X0347099Y0166447D01*
X0346208Y0168045D02*
X0342274Y0168045D01*
X0341229Y0167000D02*
X0344041Y0169812D01*
X0344041Y0173788D01*
X0341229Y0176600D01*
X0337253Y0176600D01*
X0334441Y0173788D01*
X0334441Y0169812D01*
X0337253Y0167000D01*
X0341229Y0167000D01*
X0343873Y0169644D02*
X0344609Y0169644D01*
X0344441Y0171242D02*
X0344041Y0171242D01*
X0344041Y0172841D02*
X0344441Y0172841D01*
X0345092Y0174439D02*
X0343390Y0174439D01*
X0341791Y0176038D02*
X0346690Y0176038D01*
X0346616Y0177636D02*
X0341865Y0177636D01*
X0341229Y0177000D02*
X0344041Y0179812D01*
X0344041Y0183788D01*
X0341229Y0186600D01*
X0337253Y0186600D01*
X0334441Y0183788D01*
X0334441Y0179812D01*
X0337253Y0177000D01*
X0341229Y0177000D01*
X0343464Y0179235D02*
X0345018Y0179235D01*
X0344441Y0180833D02*
X0344041Y0180833D01*
X0344041Y0182432D02*
X0344441Y0182432D01*
X0344683Y0184030D02*
X0343799Y0184030D01*
X0342200Y0185629D02*
X0346282Y0185629D01*
X0347025Y0187227D02*
X0341456Y0187227D01*
X0341229Y0187000D02*
X0344041Y0189812D01*
X0344041Y0193788D01*
X0341229Y0196600D01*
X0337253Y0196600D01*
X0334441Y0193788D01*
X0334441Y0189812D01*
X0337253Y0187000D01*
X0341229Y0187000D01*
X0343055Y0188826D02*
X0345427Y0188826D01*
X0344441Y0190424D02*
X0344041Y0190424D01*
X0344041Y0192023D02*
X0344441Y0192023D01*
X0344441Y0193621D02*
X0344041Y0193621D01*
X0342609Y0195220D02*
X0345873Y0195220D01*
X0345836Y0198417D02*
X0342646Y0198417D01*
X0344041Y0199812D02*
X0341229Y0197000D01*
X0337253Y0197000D01*
X0334441Y0199812D01*
X0334441Y0203788D01*
X0337253Y0206600D01*
X0341229Y0206600D01*
X0344041Y0203788D01*
X0344041Y0199812D01*
X0344041Y0200015D02*
X0344441Y0200015D01*
X0344441Y0201614D02*
X0344041Y0201614D01*
X0344041Y0203212D02*
X0344441Y0203212D01*
X0345464Y0204811D02*
X0343018Y0204811D01*
X0341420Y0206409D02*
X0347062Y0206409D01*
X0346245Y0208008D02*
X0342237Y0208008D01*
X0341229Y0207000D02*
X0344041Y0209812D01*
X0344041Y0213788D01*
X0341229Y0216600D01*
X0337253Y0216600D01*
X0334441Y0213788D01*
X0334441Y0209812D01*
X0337253Y0207000D01*
X0341229Y0207000D01*
X0343836Y0209606D02*
X0344646Y0209606D01*
X0344441Y0211205D02*
X0344041Y0211205D01*
X0344041Y0212803D02*
X0344441Y0212803D01*
X0345055Y0214402D02*
X0343427Y0214402D01*
X0341829Y0216001D02*
X0346653Y0216001D01*
X0346654Y0217599D02*
X0341828Y0217599D01*
X0341229Y0217000D02*
X0344041Y0219812D01*
X0344041Y0223788D01*
X0341229Y0226600D01*
X0337253Y0226600D01*
X0334441Y0223788D01*
X0334441Y0219812D01*
X0337253Y0217000D01*
X0341229Y0217000D01*
X0343427Y0219198D02*
X0345055Y0219198D01*
X0344441Y0220796D02*
X0344041Y0220796D01*
X0344041Y0222395D02*
X0344441Y0222395D01*
X0344646Y0223993D02*
X0343836Y0223993D01*
X0342238Y0225592D02*
X0346244Y0225592D01*
X0347063Y0227190D02*
X0341419Y0227190D01*
X0341229Y0227000D02*
X0344041Y0229812D01*
X0344041Y0233788D01*
X0341229Y0236600D01*
X0337253Y0236600D01*
X0334441Y0233788D01*
X0334441Y0229812D01*
X0337253Y0227000D01*
X0341229Y0227000D01*
X0343018Y0228789D02*
X0345464Y0228789D01*
X0344441Y0230387D02*
X0344041Y0230387D01*
X0344041Y0231986D02*
X0344441Y0231986D01*
X0344441Y0233584D02*
X0344041Y0233584D01*
X0342646Y0235183D02*
X0345835Y0235183D01*
X0347253Y0237000D02*
X0351229Y0237000D01*
X0354041Y0239812D01*
X0354041Y0243788D01*
X0351229Y0246600D01*
X0347253Y0246600D01*
X0344441Y0243788D01*
X0344441Y0239812D01*
X0347253Y0237000D01*
X0345873Y0238380D02*
X0342609Y0238380D01*
X0341229Y0237000D02*
X0344041Y0239812D01*
X0344041Y0243788D01*
X0341229Y0246600D01*
X0337253Y0246600D01*
X0334441Y0243788D01*
X0334441Y0239812D01*
X0337253Y0237000D01*
X0341229Y0237000D01*
X0344041Y0239978D02*
X0344441Y0239978D01*
X0344441Y0241577D02*
X0344041Y0241577D01*
X0344041Y0243175D02*
X0344441Y0243175D01*
X0345426Y0244774D02*
X0343055Y0244774D01*
X0341457Y0246372D02*
X0347025Y0246372D01*
X0347253Y0247000D02*
X0351229Y0247000D01*
X0354041Y0249812D01*
X0354041Y0253788D01*
X0351229Y0256600D01*
X0347253Y0256600D01*
X0344441Y0253788D01*
X0344441Y0249812D01*
X0347253Y0247000D01*
X0346282Y0247971D02*
X0342200Y0247971D01*
X0341229Y0247000D02*
X0344041Y0249812D01*
X0344041Y0253788D01*
X0341229Y0256600D01*
X0337253Y0256600D01*
X0334441Y0253788D01*
X0334441Y0249812D01*
X0337253Y0247000D01*
X0341229Y0247000D01*
X0343798Y0249569D02*
X0344683Y0249569D01*
X0344441Y0251168D02*
X0344041Y0251168D01*
X0344041Y0252766D02*
X0344441Y0252766D01*
X0345018Y0254365D02*
X0343464Y0254365D01*
X0341866Y0255963D02*
X0346616Y0255963D01*
X0347253Y0257000D02*
X0351229Y0257000D01*
X0354041Y0259812D01*
X0354041Y0263788D01*
X0351229Y0266600D01*
X0347253Y0266600D01*
X0344441Y0263788D01*
X0344441Y0259812D01*
X0347253Y0257000D01*
X0346691Y0257562D02*
X0341791Y0257562D01*
X0341229Y0257000D02*
X0344041Y0259812D01*
X0344041Y0263788D01*
X0341229Y0266600D01*
X0337253Y0266600D01*
X0334441Y0263788D01*
X0334441Y0259812D01*
X0337253Y0257000D01*
X0341229Y0257000D01*
X0343389Y0259160D02*
X0345092Y0259160D01*
X0344441Y0260759D02*
X0344041Y0260759D01*
X0344041Y0262357D02*
X0344441Y0262357D01*
X0344609Y0263956D02*
X0343873Y0263956D01*
X0342275Y0265554D02*
X0346207Y0265554D01*
X0347253Y0267000D02*
X0351229Y0267000D01*
X0354041Y0269812D01*
X0354041Y0273788D01*
X0351229Y0276600D01*
X0347253Y0276600D01*
X0344441Y0273788D01*
X0344441Y0269812D01*
X0347253Y0267000D01*
X0347100Y0267153D02*
X0341382Y0267153D01*
X0341229Y0267000D02*
X0344041Y0269812D01*
X0344041Y0273788D01*
X0341229Y0276600D01*
X0337253Y0276600D01*
X0334441Y0273788D01*
X0334441Y0269812D01*
X0337253Y0267000D01*
X0341229Y0267000D01*
X0342981Y0268751D02*
X0345501Y0268751D01*
X0344441Y0270350D02*
X0344041Y0270350D01*
X0344041Y0271948D02*
X0344441Y0271948D01*
X0344441Y0273547D02*
X0344041Y0273547D01*
X0342684Y0275145D02*
X0345798Y0275145D01*
X0347253Y0277000D02*
X0344441Y0279812D01*
X0344441Y0283788D01*
X0347253Y0286600D01*
X0351229Y0286600D01*
X0354041Y0283788D01*
X0354041Y0279812D01*
X0351229Y0277000D01*
X0347253Y0277000D01*
X0345910Y0278342D02*
X0342572Y0278342D01*
X0341229Y0277000D02*
X0344041Y0279812D01*
X0344041Y0283788D01*
X0341229Y0286600D01*
X0337253Y0286600D01*
X0334441Y0283788D01*
X0334441Y0279812D01*
X0337253Y0277000D01*
X0341229Y0277000D01*
X0344041Y0279941D02*
X0344441Y0279941D01*
X0344441Y0281539D02*
X0344041Y0281539D01*
X0344041Y0283138D02*
X0344441Y0283138D01*
X0345389Y0284737D02*
X0343093Y0284737D01*
X0341494Y0286335D02*
X0346988Y0286335D01*
X0347253Y0287000D02*
X0351229Y0287000D01*
X0354041Y0289812D01*
X0354041Y0293788D01*
X0351229Y0296600D01*
X0347253Y0296600D01*
X0344441Y0293788D01*
X0344441Y0289812D01*
X0347253Y0287000D01*
X0346319Y0287934D02*
X0342163Y0287934D01*
X0341229Y0287000D02*
X0344041Y0289812D01*
X0344041Y0293788D01*
X0341229Y0296600D01*
X0337253Y0296600D01*
X0334441Y0293788D01*
X0334441Y0289812D01*
X0337253Y0287000D01*
X0341229Y0287000D01*
X0343761Y0289532D02*
X0344721Y0289532D01*
X0344441Y0291131D02*
X0344041Y0291131D01*
X0344041Y0292729D02*
X0344441Y0292729D01*
X0344980Y0294328D02*
X0343502Y0294328D01*
X0341903Y0295926D02*
X0346579Y0295926D01*
X0347020Y0297525D02*
X0341754Y0297525D01*
X0341229Y0297000D02*
X0344041Y0299812D01*
X0344041Y0303788D01*
X0341229Y0306600D01*
X0337253Y0306600D01*
X0334441Y0303788D01*
X0334441Y0299812D01*
X0337253Y0297000D01*
X0341229Y0297000D01*
X0343352Y0299123D02*
X0345154Y0299123D01*
X0345172Y0299081D02*
X0346522Y0297731D01*
X0348286Y0297000D01*
X0350196Y0297000D01*
X0351960Y0297731D01*
X0353310Y0299081D01*
X0354041Y0300845D01*
X0354041Y0302755D01*
X0353310Y0304519D01*
X0351960Y0305869D01*
X0350196Y0306600D01*
X0348286Y0306600D01*
X0346522Y0305869D01*
X0345172Y0304519D01*
X0344441Y0302755D01*
X0344441Y0300845D01*
X0345172Y0299081D01*
X0344492Y0300722D02*
X0344041Y0300722D01*
X0344041Y0302320D02*
X0344441Y0302320D01*
X0344923Y0303919D02*
X0343911Y0303919D01*
X0342312Y0305517D02*
X0346170Y0305517D01*
X0352312Y0305517D02*
X0356170Y0305517D01*
X0357253Y0306600D02*
X0354441Y0303788D01*
X0354441Y0299812D01*
X0357253Y0297000D01*
X0361229Y0297000D01*
X0364041Y0299812D01*
X0364041Y0303788D01*
X0361229Y0306600D01*
X0357253Y0306600D01*
X0354571Y0303919D02*
X0353559Y0303919D01*
X0354041Y0302320D02*
X0354441Y0302320D01*
X0354441Y0300722D02*
X0353990Y0300722D01*
X0353328Y0299123D02*
X0355130Y0299123D01*
X0356728Y0297525D02*
X0351462Y0297525D01*
X0351903Y0295926D02*
X0356579Y0295926D01*
X0357253Y0296600D02*
X0354441Y0293788D01*
X0354441Y0289812D01*
X0357253Y0287000D01*
X0361229Y0287000D01*
X0364041Y0289812D01*
X0364041Y0293788D01*
X0361229Y0296600D01*
X0357253Y0296600D01*
X0354980Y0294328D02*
X0353502Y0294328D01*
X0354041Y0292729D02*
X0354441Y0292729D01*
X0354441Y0291131D02*
X0354041Y0291131D01*
X0353761Y0289532D02*
X0354721Y0289532D01*
X0356319Y0287934D02*
X0352163Y0287934D01*
X0351494Y0286335D02*
X0356988Y0286335D01*
X0355389Y0284737D02*
X0353093Y0284737D01*
X0354041Y0283138D02*
X0354441Y0283138D01*
X0354441Y0281539D02*
X0354041Y0281539D01*
X0354041Y0279941D02*
X0354441Y0279941D01*
X0355910Y0278342D02*
X0352572Y0278342D01*
X0352684Y0275145D02*
X0355798Y0275145D01*
X0354441Y0273547D02*
X0354041Y0273547D01*
X0354041Y0271948D02*
X0354441Y0271948D01*
X0354441Y0270350D02*
X0354041Y0270350D01*
X0352981Y0268751D02*
X0355501Y0268751D01*
X0357100Y0267153D02*
X0351382Y0267153D01*
X0352275Y0265554D02*
X0356207Y0265554D01*
X0354609Y0263956D02*
X0353873Y0263956D01*
X0354041Y0262357D02*
X0354441Y0262357D01*
X0354441Y0260759D02*
X0354041Y0260759D01*
X0353389Y0259160D02*
X0355092Y0259160D01*
X0356691Y0257562D02*
X0351791Y0257562D01*
X0351866Y0255963D02*
X0356616Y0255963D01*
X0355018Y0254365D02*
X0353464Y0254365D01*
X0354041Y0252766D02*
X0354441Y0252766D01*
X0354441Y0251168D02*
X0354041Y0251168D01*
X0353798Y0249569D02*
X0354683Y0249569D01*
X0356282Y0247971D02*
X0352200Y0247971D01*
X0351457Y0246372D02*
X0357025Y0246372D01*
X0355426Y0244774D02*
X0353055Y0244774D01*
X0354041Y0243175D02*
X0354441Y0243175D01*
X0354441Y0241577D02*
X0354041Y0241577D01*
X0354041Y0239978D02*
X0354441Y0239978D01*
X0355873Y0238380D02*
X0352609Y0238380D01*
X0352646Y0235183D02*
X0355835Y0235183D01*
X0354441Y0233584D02*
X0354041Y0233584D01*
X0354041Y0231986D02*
X0354441Y0231986D01*
X0354441Y0230387D02*
X0354041Y0230387D01*
X0353018Y0228789D02*
X0355464Y0228789D01*
X0337063Y0227190D02*
X0331419Y0227190D01*
X0331229Y0226600D02*
X0327253Y0226600D01*
X0324441Y0223788D01*
X0324441Y0219812D01*
X0327253Y0217000D01*
X0331229Y0217000D01*
X0334041Y0219812D01*
X0334041Y0223788D01*
X0331229Y0226600D01*
X0332238Y0225592D02*
X0336244Y0225592D01*
X0334646Y0223993D02*
X0333836Y0223993D01*
X0334041Y0222395D02*
X0334441Y0222395D01*
X0334441Y0220796D02*
X0334041Y0220796D01*
X0333427Y0219198D02*
X0335055Y0219198D01*
X0336654Y0217599D02*
X0331828Y0217599D01*
X0331229Y0216600D02*
X0327253Y0216600D01*
X0324441Y0213788D01*
X0324441Y0209812D01*
X0327253Y0207000D01*
X0331229Y0207000D01*
X0334041Y0209812D01*
X0334041Y0213788D01*
X0331229Y0216600D01*
X0331829Y0216001D02*
X0336653Y0216001D01*
X0335055Y0214402D02*
X0333427Y0214402D01*
X0334041Y0212803D02*
X0334441Y0212803D01*
X0334441Y0211205D02*
X0334041Y0211205D01*
X0333836Y0209606D02*
X0334646Y0209606D01*
X0336245Y0208008D02*
X0332237Y0208008D01*
X0331229Y0206600D02*
X0327253Y0206600D01*
X0324441Y0203788D01*
X0324441Y0199812D01*
X0327253Y0197000D01*
X0331229Y0197000D01*
X0334041Y0199812D01*
X0334041Y0203788D01*
X0331229Y0206600D01*
X0331420Y0206409D02*
X0337062Y0206409D01*
X0335464Y0204811D02*
X0333018Y0204811D01*
X0334041Y0203212D02*
X0334441Y0203212D01*
X0334441Y0201614D02*
X0334041Y0201614D01*
X0334041Y0200015D02*
X0334441Y0200015D01*
X0335836Y0198417D02*
X0332646Y0198417D01*
X0332609Y0195220D02*
X0335873Y0195220D01*
X0334441Y0193621D02*
X0334041Y0193621D01*
X0334041Y0192023D02*
X0334441Y0192023D01*
X0334441Y0190424D02*
X0334041Y0190424D01*
X0333055Y0188826D02*
X0335427Y0188826D01*
X0337025Y0187227D02*
X0331456Y0187227D01*
X0332200Y0185629D02*
X0336282Y0185629D01*
X0334683Y0184030D02*
X0333799Y0184030D01*
X0334041Y0182432D02*
X0334441Y0182432D01*
X0334441Y0180833D02*
X0334041Y0180833D01*
X0333464Y0179235D02*
X0335018Y0179235D01*
X0336616Y0177636D02*
X0331865Y0177636D01*
X0331791Y0176038D02*
X0336690Y0176038D01*
X0335092Y0174439D02*
X0333390Y0174439D01*
X0334041Y0172841D02*
X0334441Y0172841D01*
X0334441Y0171242D02*
X0334041Y0171242D01*
X0333873Y0169644D02*
X0334609Y0169644D01*
X0336208Y0168045D02*
X0332274Y0168045D01*
X0331382Y0166447D02*
X0337099Y0166447D01*
X0335501Y0164848D02*
X0332981Y0164848D01*
X0334041Y0163250D02*
X0334441Y0163250D01*
X0334441Y0161651D02*
X0334041Y0161651D01*
X0334041Y0160053D02*
X0334441Y0160053D01*
X0335799Y0158454D02*
X0332683Y0158454D01*
X0331229Y0156600D02*
X0327253Y0156600D01*
X0324441Y0153788D01*
X0324441Y0149812D01*
X0327253Y0147000D01*
X0331229Y0147000D01*
X0334041Y0149812D01*
X0334041Y0153788D01*
X0331229Y0156600D01*
X0332572Y0155257D02*
X0335910Y0155257D01*
X0334441Y0153659D02*
X0334041Y0153659D01*
X0334041Y0152060D02*
X0334441Y0152060D01*
X0334441Y0150462D02*
X0334041Y0150462D01*
X0333092Y0148863D02*
X0335390Y0148863D01*
X0336988Y0147265D02*
X0331494Y0147265D01*
X0331229Y0146600D02*
X0327253Y0146600D01*
X0324441Y0143788D01*
X0324441Y0139812D01*
X0327253Y0137000D01*
X0331229Y0137000D01*
X0334041Y0139812D01*
X0334041Y0143788D01*
X0331229Y0146600D01*
X0332163Y0145666D02*
X0336319Y0145666D01*
X0334720Y0144068D02*
X0333762Y0144068D01*
X0334041Y0142469D02*
X0334441Y0142469D01*
X0334441Y0140870D02*
X0334041Y0140870D01*
X0333501Y0139272D02*
X0334981Y0139272D01*
X0336579Y0137673D02*
X0331903Y0137673D01*
X0331229Y0136600D02*
X0327253Y0136600D01*
X0324441Y0133788D01*
X0324441Y0129812D01*
X0327253Y0127000D01*
X0331229Y0127000D01*
X0334041Y0129812D01*
X0334041Y0133788D01*
X0331229Y0136600D01*
X0331754Y0136075D02*
X0336728Y0136075D01*
X0335129Y0134476D02*
X0333353Y0134476D01*
X0334041Y0132878D02*
X0334441Y0132878D01*
X0334441Y0131279D02*
X0334041Y0131279D01*
X0333910Y0129681D02*
X0334572Y0129681D01*
X0336170Y0128082D02*
X0332312Y0128082D01*
X0331345Y0126484D02*
X0337137Y0126484D01*
X0335538Y0124885D02*
X0332944Y0124885D01*
X0334041Y0123287D02*
X0334441Y0123287D01*
X0334441Y0121688D02*
X0334041Y0121688D01*
X0334041Y0120090D02*
X0334441Y0120090D01*
X0335761Y0118491D02*
X0332720Y0118491D01*
X0332535Y0115294D02*
X0335947Y0115294D01*
X0334441Y0113696D02*
X0334041Y0113696D01*
X0334041Y0112097D02*
X0334441Y0112097D01*
X0334441Y0110499D02*
X0334041Y0110499D01*
X0333129Y0108900D02*
X0335352Y0108900D01*
X0336951Y0107302D02*
X0331531Y0107302D01*
X0332126Y0105703D02*
X0336356Y0105703D01*
X0334757Y0104105D02*
X0333482Y0104105D01*
X0334041Y0102506D02*
X0334441Y0102506D01*
X0334441Y0100908D02*
X0334041Y0100908D01*
X0333405Y0099309D02*
X0334944Y0099309D01*
X0336542Y0097711D02*
X0331911Y0097711D01*
X0331717Y0096112D02*
X0336765Y0096112D01*
X0335166Y0094514D02*
X0333315Y0094514D01*
X0334041Y0092915D02*
X0334441Y0092915D01*
X0334441Y0091317D02*
X0334041Y0091317D01*
X0333947Y0089718D02*
X0334535Y0089718D01*
X0336133Y0088120D02*
X0332349Y0088120D01*
X0331308Y0086521D02*
X0337174Y0086521D01*
X0335575Y0084923D02*
X0332907Y0084923D01*
X0334041Y0083324D02*
X0334441Y0083324D01*
X0334441Y0081726D02*
X0334041Y0081726D01*
X0334041Y0080127D02*
X0334441Y0080127D01*
X0335724Y0078529D02*
X0332758Y0078529D01*
X0332498Y0075332D02*
X0335984Y0075332D01*
X0334441Y0073733D02*
X0334041Y0073733D01*
X0334041Y0072134D02*
X0334441Y0072134D01*
X0334441Y0070536D02*
X0334041Y0070536D01*
X0333167Y0068937D02*
X0335315Y0068937D01*
X0336914Y0067339D02*
X0331568Y0067339D01*
X0331229Y0066600D02*
X0327253Y0066600D01*
X0324441Y0063788D01*
X0324441Y0059812D01*
X0327253Y0057000D01*
X0331229Y0057000D01*
X0334041Y0059812D01*
X0334041Y0063788D01*
X0331229Y0066600D01*
X0332089Y0065740D02*
X0336393Y0065740D01*
X0334795Y0064142D02*
X0333687Y0064142D01*
X0334041Y0062543D02*
X0334441Y0062543D01*
X0334441Y0060945D02*
X0334041Y0060945D01*
X0333576Y0059346D02*
X0334906Y0059346D01*
X0336505Y0057748D02*
X0331977Y0057748D01*
X0331229Y0056600D02*
X0327253Y0056600D01*
X0324441Y0053788D01*
X0324441Y0049812D01*
X0327253Y0047000D01*
X0331229Y0047000D01*
X0334041Y0049812D01*
X0334041Y0053788D01*
X0331229Y0056600D01*
X0331680Y0056149D02*
X0336802Y0056149D01*
X0335204Y0054551D02*
X0333278Y0054551D01*
X0334041Y0052952D02*
X0334441Y0052952D01*
X0334441Y0051354D02*
X0334041Y0051354D01*
X0333984Y0049755D02*
X0334497Y0049755D01*
X0336096Y0048157D02*
X0332386Y0048157D01*
X0326096Y0048157D02*
X0004400Y0048157D01*
X0004400Y0049755D02*
X0324497Y0049755D01*
X0324441Y0051354D02*
X0004400Y0051354D01*
X0004400Y0052952D02*
X0324441Y0052952D01*
X0325204Y0054551D02*
X0004400Y0054551D01*
X0004400Y0056149D02*
X0326802Y0056149D01*
X0326505Y0057748D02*
X0004400Y0057748D01*
X0004400Y0059346D02*
X0324906Y0059346D01*
X0324441Y0060945D02*
X0004400Y0060945D01*
X0004400Y0062543D02*
X0324441Y0062543D01*
X0324795Y0064142D02*
X0004400Y0064142D01*
X0004400Y0065740D02*
X0326393Y0065740D01*
X0326914Y0067339D02*
X0004400Y0067339D01*
X0004400Y0068937D02*
X0325315Y0068937D01*
X0324441Y0070536D02*
X0004400Y0070536D01*
X0004400Y0072134D02*
X0324441Y0072134D01*
X0324441Y0073733D02*
X0004400Y0073733D01*
X0004400Y0120090D02*
X0324441Y0120090D01*
X0324441Y0121688D02*
X0004400Y0121688D01*
X0004400Y0123287D02*
X0324441Y0123287D01*
X0325538Y0124885D02*
X0004400Y0124885D01*
X0004400Y0126484D02*
X0327137Y0126484D01*
X0326170Y0128082D02*
X0004400Y0128082D01*
X0004400Y0129681D02*
X0324572Y0129681D01*
X0324441Y0131279D02*
X0004400Y0131279D01*
X0004400Y0132878D02*
X0324441Y0132878D01*
X0325129Y0134476D02*
X0004400Y0134476D01*
X0004400Y0136075D02*
X0326728Y0136075D01*
X0326579Y0137673D02*
X0004400Y0137673D01*
X0004400Y0139272D02*
X0324981Y0139272D01*
X0324441Y0140870D02*
X0004400Y0140870D01*
X0004400Y0142469D02*
X0324441Y0142469D01*
X0324720Y0144068D02*
X0004400Y0144068D01*
X0004400Y0145666D02*
X0326319Y0145666D01*
X0326988Y0147265D02*
X0004400Y0147265D01*
X0004400Y0148863D02*
X0325390Y0148863D01*
X0324441Y0150462D02*
X0004400Y0150462D01*
X0004400Y0152060D02*
X0324441Y0152060D01*
X0324441Y0153659D02*
X0004400Y0153659D01*
X0004400Y0155257D02*
X0325910Y0155257D01*
X0362683Y0158454D02*
X0367507Y0158454D01*
X0367507Y0160053D02*
X0364041Y0160053D01*
X0364041Y0161651D02*
X0367507Y0161651D01*
X0367507Y0163250D02*
X0364041Y0163250D01*
X0362981Y0164848D02*
X0367507Y0164848D01*
X0367507Y0166447D02*
X0361382Y0166447D01*
X0362274Y0168045D02*
X0367507Y0168045D01*
X0367507Y0169644D02*
X0363873Y0169644D01*
X0364041Y0171242D02*
X0367507Y0171242D01*
X0367507Y0172841D02*
X0364041Y0172841D01*
X0363390Y0174439D02*
X0367507Y0174439D01*
X0367507Y0176038D02*
X0361791Y0176038D01*
X0361865Y0177636D02*
X0367507Y0177636D01*
X0367507Y0179235D02*
X0363464Y0179235D01*
X0364041Y0180833D02*
X0367507Y0180833D01*
X0367507Y0182432D02*
X0364041Y0182432D01*
X0363799Y0184030D02*
X0367507Y0184030D01*
X0367507Y0185629D02*
X0362200Y0185629D01*
X0361456Y0187227D02*
X0367507Y0187227D01*
X0367507Y0188826D02*
X0363055Y0188826D01*
X0364041Y0190424D02*
X0367507Y0190424D01*
X0367507Y0192023D02*
X0364041Y0192023D01*
X0364041Y0193621D02*
X0367507Y0193621D01*
X0327062Y0206409D02*
X0004400Y0206409D01*
X0004400Y0204811D02*
X0325464Y0204811D01*
X0324441Y0203212D02*
X0004400Y0203212D01*
X0004400Y0201614D02*
X0324441Y0201614D01*
X0324441Y0200015D02*
X0004400Y0200015D01*
X0004400Y0198417D02*
X0325836Y0198417D01*
X0326245Y0208008D02*
X0004400Y0208008D01*
X0004400Y0209606D02*
X0324646Y0209606D01*
X0324441Y0211205D02*
X0004400Y0211205D01*
X0004400Y0212803D02*
X0324441Y0212803D01*
X0325055Y0214402D02*
X0004400Y0214402D01*
X0004400Y0216001D02*
X0326653Y0216001D01*
X0326654Y0217599D02*
X0004400Y0217599D01*
X0004400Y0219198D02*
X0325055Y0219198D01*
X0324441Y0220796D02*
X0004400Y0220796D01*
X0004400Y0222395D02*
X0324441Y0222395D01*
X0324646Y0223993D02*
X0004400Y0223993D01*
X0004400Y0225592D02*
X0326244Y0225592D01*
X0327063Y0227190D02*
X0004400Y0227190D01*
X0004400Y0228789D02*
X0325464Y0228789D01*
X0324441Y0230387D02*
X0004400Y0230387D01*
X0004400Y0231986D02*
X0324441Y0231986D01*
X0324441Y0233584D02*
X0004400Y0233584D01*
X0004400Y0279941D02*
X0324441Y0279941D01*
X0324441Y0281539D02*
X0004400Y0281539D01*
X0004400Y0283138D02*
X0324441Y0283138D01*
X0325389Y0284737D02*
X0004400Y0284737D01*
X0004400Y0286335D02*
X0326988Y0286335D01*
X0327253Y0287000D02*
X0331229Y0287000D01*
X0334041Y0289812D01*
X0334041Y0293788D01*
X0331229Y0296600D01*
X0327253Y0296600D01*
X0324441Y0293788D01*
X0324441Y0289812D01*
X0327253Y0287000D01*
X0326319Y0287934D02*
X0004400Y0287934D01*
X0004400Y0289532D02*
X0324721Y0289532D01*
X0324441Y0291131D02*
X0004400Y0291131D01*
X0004400Y0292729D02*
X0324441Y0292729D01*
X0324980Y0294328D02*
X0004400Y0294328D01*
X0004400Y0295926D02*
X0326579Y0295926D01*
X0327020Y0297525D02*
X0004400Y0297525D01*
X0004400Y0299123D02*
X0325154Y0299123D01*
X0325172Y0299081D02*
X0326522Y0297731D01*
X0328286Y0297000D01*
X0330196Y0297000D01*
X0331960Y0297731D01*
X0333310Y0299081D01*
X0334041Y0300845D01*
X0334041Y0302755D01*
X0333310Y0304519D01*
X0331960Y0305869D01*
X0330196Y0306600D01*
X0328286Y0306600D01*
X0326522Y0305869D01*
X0325172Y0304519D01*
X0324441Y0302755D01*
X0324441Y0300845D01*
X0325172Y0299081D01*
X0324492Y0300722D02*
X0004400Y0300722D01*
X0004400Y0302320D02*
X0324441Y0302320D01*
X0324923Y0303919D02*
X0004400Y0303919D01*
X0004400Y0305517D02*
X0326170Y0305517D01*
X0332312Y0305517D02*
X0336170Y0305517D01*
X0334571Y0303919D02*
X0333559Y0303919D01*
X0334041Y0302320D02*
X0334441Y0302320D01*
X0334441Y0300722D02*
X0333990Y0300722D01*
X0333328Y0299123D02*
X0335130Y0299123D01*
X0336728Y0297525D02*
X0331462Y0297525D01*
X0331903Y0295926D02*
X0336579Y0295926D01*
X0334980Y0294328D02*
X0333502Y0294328D01*
X0334041Y0292729D02*
X0334441Y0292729D01*
X0334441Y0291131D02*
X0334041Y0291131D01*
X0333761Y0289532D02*
X0334721Y0289532D01*
X0336319Y0287934D02*
X0332163Y0287934D01*
X0331494Y0286335D02*
X0336988Y0286335D01*
X0335389Y0284737D02*
X0333093Y0284737D01*
X0334041Y0283138D02*
X0334441Y0283138D01*
X0334441Y0281539D02*
X0334041Y0281539D01*
X0334041Y0279941D02*
X0334441Y0279941D01*
X0335910Y0278342D02*
X0332572Y0278342D01*
X0332684Y0275145D02*
X0335798Y0275145D01*
X0334441Y0273547D02*
X0334041Y0273547D01*
X0334041Y0271948D02*
X0334441Y0271948D01*
X0334441Y0270350D02*
X0334041Y0270350D01*
X0332981Y0268751D02*
X0335501Y0268751D01*
X0337100Y0267153D02*
X0331382Y0267153D01*
X0332275Y0265554D02*
X0336207Y0265554D01*
X0334609Y0263956D02*
X0333873Y0263956D01*
X0334041Y0262357D02*
X0334441Y0262357D01*
X0334441Y0260759D02*
X0334041Y0260759D01*
X0333389Y0259160D02*
X0335092Y0259160D01*
X0336691Y0257562D02*
X0331791Y0257562D01*
X0331866Y0255963D02*
X0336616Y0255963D01*
X0335018Y0254365D02*
X0333464Y0254365D01*
X0334041Y0252766D02*
X0334441Y0252766D01*
X0334441Y0251168D02*
X0334041Y0251168D01*
X0333798Y0249569D02*
X0334683Y0249569D01*
X0336282Y0247971D02*
X0332200Y0247971D01*
X0331457Y0246372D02*
X0337025Y0246372D01*
X0335426Y0244774D02*
X0333055Y0244774D01*
X0334041Y0243175D02*
X0334441Y0243175D01*
X0334441Y0241577D02*
X0334041Y0241577D01*
X0334041Y0239978D02*
X0334441Y0239978D01*
X0335873Y0238380D02*
X0332609Y0238380D01*
X0332646Y0235183D02*
X0335835Y0235183D01*
X0334441Y0233584D02*
X0334041Y0233584D01*
X0334041Y0231986D02*
X0334441Y0231986D01*
X0334441Y0230387D02*
X0334041Y0230387D01*
X0333018Y0228789D02*
X0335464Y0228789D01*
X0364041Y0279941D02*
X0367507Y0279941D01*
X0367507Y0281539D02*
X0364041Y0281539D01*
X0364041Y0283138D02*
X0367507Y0283138D01*
X0367507Y0284737D02*
X0363093Y0284737D01*
X0361494Y0286335D02*
X0367507Y0286335D01*
X0367507Y0287934D02*
X0362163Y0287934D01*
X0363761Y0289532D02*
X0367548Y0289532D01*
X0368337Y0291131D02*
X0364041Y0291131D01*
X0364041Y0292729D02*
X0369130Y0292729D01*
X0369923Y0294328D02*
X0363502Y0294328D01*
X0361903Y0295926D02*
X0370716Y0295926D01*
X0371509Y0297525D02*
X0361754Y0297525D01*
X0363352Y0299123D02*
X0372302Y0299123D01*
X0373095Y0300722D02*
X0364041Y0300722D01*
X0364041Y0302320D02*
X0373888Y0302320D01*
X0374681Y0303919D02*
X0363911Y0303919D01*
X0362312Y0305517D02*
X0374987Y0305517D01*
X0374987Y0307116D02*
X0004400Y0307116D01*
X0004400Y0308714D02*
X0374987Y0308714D01*
X0374987Y0310313D02*
X0004400Y0310313D01*
X0004400Y0311911D02*
X0374987Y0311911D01*
X0374987Y0313510D02*
X0362041Y0313510D01*
X0363652Y0314177D02*
X0366155Y0316680D01*
X0367510Y0319951D01*
X0367510Y0323491D01*
X0366155Y0326762D01*
X0363652Y0329266D01*
X0360381Y0330620D01*
X0356841Y0330620D01*
X0353570Y0329266D01*
X0351067Y0326762D01*
X0349712Y0323491D01*
X0349712Y0319951D01*
X0351067Y0316680D01*
X0353570Y0314177D01*
X0356841Y0312822D01*
X0360381Y0312822D01*
X0363652Y0314177D01*
X0364583Y0315108D02*
X0374987Y0315108D01*
X0374987Y0316707D02*
X0366166Y0316707D01*
X0366828Y0318305D02*
X0374987Y0318305D01*
X0374987Y0319904D02*
X0367491Y0319904D01*
X0367510Y0321502D02*
X0374987Y0321502D01*
X0374987Y0323101D02*
X0367510Y0323101D01*
X0367010Y0324699D02*
X0374987Y0324699D01*
X0374987Y0326298D02*
X0366348Y0326298D01*
X0365021Y0327896D02*
X0374928Y0327896D01*
X0374561Y0329495D02*
X0363099Y0329495D01*
X0367875Y0335889D02*
X0030030Y0335889D01*
X0030030Y0334951D02*
X0028675Y0331680D01*
X0026172Y0329177D01*
X0022901Y0327822D01*
X0019361Y0327822D01*
X0016090Y0329177D01*
X0013586Y0331680D01*
X0012231Y0334951D01*
X0012231Y0338491D01*
X0013586Y0341762D01*
X0016090Y0344266D01*
X0019361Y0345620D01*
X0022901Y0345620D01*
X0026172Y0344266D01*
X0028675Y0341762D01*
X0030030Y0338491D01*
X0030030Y0334951D01*
X0029756Y0334290D02*
X0371398Y0334290D01*
X0372996Y0332692D02*
X0029094Y0332692D01*
X0028088Y0331093D02*
X0373956Y0331093D01*
X0354123Y0329495D02*
X0026490Y0329495D01*
X0023080Y0327896D02*
X0352201Y0327896D01*
X0350874Y0326298D02*
X0004400Y0326298D01*
X0004400Y0327896D02*
X0019181Y0327896D01*
X0015772Y0329495D02*
X0004400Y0329495D01*
X0004400Y0331093D02*
X0014173Y0331093D01*
X0013167Y0332692D02*
X0004400Y0332692D01*
X0004400Y0334290D02*
X0012505Y0334290D01*
X0012231Y0335889D02*
X0004400Y0335889D01*
X0004400Y0337487D02*
X0012231Y0337487D01*
X0012478Y0339086D02*
X0004400Y0339086D01*
X0004400Y0340684D02*
X0013140Y0340684D01*
X0014107Y0342283D02*
X0004447Y0342283D01*
X0004778Y0343881D02*
X0015705Y0343881D01*
X0019021Y0345480D02*
X0005327Y0345480D01*
X0006250Y0347078D02*
X0325743Y0347078D01*
X0328151Y0345480D02*
X0023240Y0345480D01*
X0026556Y0343881D02*
X0330559Y0343881D01*
X0332967Y0342283D02*
X0028154Y0342283D01*
X0029122Y0340684D02*
X0335375Y0340684D01*
X0337783Y0339086D02*
X0029784Y0339086D01*
X0030030Y0337487D02*
X0340191Y0337487D01*
X0350212Y0324699D02*
X0004400Y0324699D01*
X0004400Y0323101D02*
X0349712Y0323101D01*
X0349712Y0321502D02*
X0004400Y0321502D01*
X0004400Y0319904D02*
X0349731Y0319904D01*
X0350394Y0318305D02*
X0004400Y0318305D01*
X0004400Y0316707D02*
X0351056Y0316707D01*
X0352639Y0315108D02*
X0004400Y0315108D01*
X0004400Y0313510D02*
X0355181Y0313510D01*
X0323335Y0348677D02*
X0007809Y0348677D01*
X0010839Y0350275D02*
X0320927Y0350275D01*
X0318519Y0351874D02*
X0040214Y0351874D01*
X0043731Y0353472D02*
X0316111Y0353472D01*
X0362535Y0115294D02*
X0367507Y0115294D01*
X0367507Y0113696D02*
X0364041Y0113696D01*
X0364041Y0112097D02*
X0367507Y0112097D01*
X0367507Y0110499D02*
X0364041Y0110499D01*
X0363129Y0108900D02*
X0367507Y0108900D01*
X0367507Y0107302D02*
X0361531Y0107302D01*
X0362126Y0105703D02*
X0367507Y0105703D01*
X0367507Y0104105D02*
X0363724Y0104105D01*
X0364041Y0102506D02*
X0367507Y0102506D01*
X0367507Y0100908D02*
X0364041Y0100908D01*
X0363538Y0099309D02*
X0367507Y0099309D01*
X0367507Y0097711D02*
X0361940Y0097711D01*
X0361717Y0096112D02*
X0367507Y0096112D01*
X0367507Y0094514D02*
X0363315Y0094514D01*
X0364041Y0092915D02*
X0367507Y0092915D01*
X0367507Y0091317D02*
X0364041Y0091317D01*
X0363947Y0089718D02*
X0367507Y0089718D01*
X0367507Y0088120D02*
X0362349Y0088120D01*
X0361308Y0086521D02*
X0367507Y0086521D01*
X0367507Y0084923D02*
X0362907Y0084923D01*
X0364041Y0083324D02*
X0367507Y0083324D01*
X0367507Y0081726D02*
X0364041Y0081726D01*
X0364041Y0080127D02*
X0367507Y0080127D01*
X0367507Y0078529D02*
X0362758Y0078529D01*
M02*
