G75*
%MOIN*%
%OFA0B0*%
%FSLAX25Y25*%
%IPPOS*%
%LPD*%
%AMOC8*
5,1,8,0,0,1.08239X$1,22.5*
%
%ADD10C,0.00000*%
%ADD11C,0.00800*%
%ADD12R,0.00157X0.00157*%
%ADD13R,0.00157X0.00315*%
%ADD14R,0.00157X0.06614*%
%ADD15R,0.00157X0.09764*%
%ADD16R,0.00157X0.12283*%
%ADD17R,0.00157X0.14331*%
%ADD18R,0.00157X0.16693*%
%ADD19R,0.00157X0.17953*%
%ADD20R,0.00157X0.19685*%
%ADD21R,0.00157X0.07244*%
%ADD22R,0.00157X0.08189*%
%ADD23R,0.00157X0.00472*%
%ADD24R,0.00157X0.05984*%
%ADD25R,0.00157X0.07087*%
%ADD26R,0.00157X0.05354*%
%ADD27R,0.00157X0.06457*%
%ADD28R,0.00157X0.04724*%
%ADD29R,0.00157X0.06142*%
%ADD30R,0.00157X0.04252*%
%ADD31R,0.00157X0.04094*%
%ADD32R,0.00157X0.05039*%
%ADD33R,0.00157X0.03780*%
%ADD34R,0.00157X0.03465*%
%ADD35R,0.00157X0.04567*%
%ADD36R,0.00157X0.03150*%
%ADD37R,0.00157X0.02992*%
%ADD38R,0.00157X0.03937*%
%ADD39R,0.00157X0.02835*%
%ADD40R,0.00157X0.02520*%
%ADD41R,0.00157X0.02362*%
%ADD42R,0.00157X0.08504*%
%ADD43R,0.00157X0.03622*%
%ADD44R,0.00157X0.11181*%
%ADD45R,0.00157X0.15433*%
%ADD46R,0.00157X0.09291*%
%ADD47R,0.00157X0.20000*%
%ADD48R,0.00157X0.03307*%
%ADD49R,0.00157X0.20157*%
%ADD50R,0.00157X0.02205*%
%ADD51R,0.00157X0.13386*%
%ADD52R,0.00157X0.00630*%
%ADD53R,0.00157X0.17323*%
%ADD54R,0.00157X0.10236*%
%ADD55R,0.00157X0.20787*%
%ADD56R,0.00157X0.20945*%
%ADD57R,0.00157X0.02047*%
%ADD58R,0.00157X0.15118*%
%ADD59R,0.00157X0.18268*%
%ADD60R,0.00157X0.10709*%
%ADD61R,0.00157X0.21417*%
%ADD62R,0.00157X0.17165*%
%ADD63R,0.00157X0.18898*%
%ADD64R,0.00157X0.11024*%
%ADD65R,0.00157X0.21732*%
%ADD66R,0.00157X0.18583*%
%ADD67R,0.00157X0.19528*%
%ADD68R,0.00157X0.11339*%
%ADD69R,0.00157X0.22047*%
%ADD70R,0.00157X0.01890*%
%ADD71R,0.00157X0.06299*%
%ADD72R,0.00157X0.11654*%
%ADD73R,0.00157X0.22362*%
%ADD74R,0.00157X0.01732*%
%ADD75R,0.00157X0.20472*%
%ADD76R,0.00157X0.11811*%
%ADD77R,0.00157X0.22520*%
%ADD78R,0.00157X0.05197*%
%ADD79R,0.00157X0.11969*%
%ADD80R,0.00157X0.22677*%
%ADD81R,0.00157X0.22835*%
%ADD82R,0.00157X0.01575*%
%ADD83R,0.00157X0.22992*%
%ADD84R,0.00157X0.04882*%
%ADD85R,0.00157X0.12441*%
%ADD86R,0.00157X0.23150*%
%ADD87R,0.00157X0.04409*%
%ADD88R,0.00157X0.12598*%
%ADD89R,0.00157X0.23307*%
%ADD90R,0.00157X0.01417*%
%ADD91R,0.00157X0.23465*%
%ADD92R,0.00157X0.01260*%
%ADD93R,0.00157X0.12756*%
%ADD94R,0.00157X0.12913*%
%ADD95R,0.00157X0.23622*%
%ADD96R,0.00157X0.13071*%
%ADD97R,0.00157X0.23780*%
%ADD98R,0.00157X0.01102*%
%ADD99R,0.00157X0.02677*%
%ADD100R,0.00157X0.23937*%
%ADD101R,0.00157X0.13228*%
%ADD102R,0.00157X0.00945*%
%ADD103R,0.00157X0.24094*%
%ADD104R,0.00157X0.24252*%
%ADD105R,0.00157X0.13543*%
%ADD106R,0.00157X0.05512*%
%ADD107R,0.00157X0.00787*%
%ADD108R,0.00157X0.05669*%
%ADD109R,0.00157X0.06772*%
%ADD110R,0.00157X0.06929*%
%ADD111R,0.00157X0.07402*%
%ADD112R,0.00157X0.07559*%
%ADD113R,0.00157X0.07717*%
%ADD114R,0.00157X0.24567*%
%ADD115R,0.00157X0.21260*%
%ADD116R,0.00157X0.21575*%
%ADD117R,0.00157X0.21890*%
%ADD118R,0.00157X0.08031*%
%ADD119R,0.00157X0.07874*%
%ADD120R,0.00157X0.13858*%
%ADD121R,0.00157X0.18110*%
%ADD122R,0.00157X0.17795*%
%ADD123R,0.00157X0.17638*%
%ADD124R,0.00157X0.17480*%
%ADD125R,0.00157X0.05827*%
%ADD126R,0.00157X0.17008*%
%ADD127R,0.00157X0.16850*%
%ADD128R,0.00157X0.21102*%
%ADD129R,0.00157X0.16535*%
%ADD130R,0.00157X0.16378*%
%ADD131R,0.00157X0.22205*%
%ADD132R,0.00157X0.16063*%
%ADD133R,0.00157X0.16220*%
%ADD134R,0.00157X0.19213*%
%ADD135R,0.00157X0.15748*%
%ADD136R,0.00157X0.15906*%
%ADD137R,0.00157X0.14961*%
%ADD138R,0.00157X0.14016*%
%ADD139R,0.00157X0.14173*%
%ADD140R,0.00157X0.08346*%
%ADD141R,0.00157X0.14488*%
%ADD142R,0.00157X0.12126*%
%ADD143C,0.00400*%
%ADD144C,0.00600*%
%ADD145C,0.00500*%
%ADD146C,0.01000*%
D10*
X0013611Y0005737D02*
X0032548Y0005737D01*
X0042076Y0001800D01*
X0248454Y0001800D01*
X0265343Y0010855D01*
X0365776Y0010855D01*
X0366061Y0010858D01*
X0366347Y0010869D01*
X0366632Y0010886D01*
X0366916Y0010910D01*
X0367200Y0010941D01*
X0367483Y0010979D01*
X0367764Y0011024D01*
X0368045Y0011075D01*
X0368325Y0011133D01*
X0368603Y0011198D01*
X0368879Y0011270D01*
X0369153Y0011348D01*
X0369426Y0011433D01*
X0369696Y0011525D01*
X0369964Y0011623D01*
X0370230Y0011727D01*
X0370493Y0011838D01*
X0370753Y0011955D01*
X0371011Y0012078D01*
X0371265Y0012208D01*
X0371516Y0012344D01*
X0371764Y0012485D01*
X0372008Y0012633D01*
X0372249Y0012786D01*
X0372485Y0012946D01*
X0372718Y0013111D01*
X0372947Y0013281D01*
X0373172Y0013457D01*
X0373392Y0013639D01*
X0373608Y0013825D01*
X0373819Y0014017D01*
X0374026Y0014214D01*
X0374228Y0014416D01*
X0374425Y0014623D01*
X0374617Y0014834D01*
X0374803Y0015050D01*
X0374985Y0015270D01*
X0375161Y0015495D01*
X0375331Y0015724D01*
X0375496Y0015957D01*
X0375656Y0016193D01*
X0375809Y0016434D01*
X0375957Y0016678D01*
X0376098Y0016926D01*
X0376234Y0017177D01*
X0376364Y0017431D01*
X0376487Y0017689D01*
X0376604Y0017949D01*
X0376715Y0018212D01*
X0376819Y0018478D01*
X0376917Y0018746D01*
X0377009Y0019016D01*
X0377094Y0019289D01*
X0377172Y0019563D01*
X0377244Y0019839D01*
X0377309Y0020117D01*
X0377367Y0020397D01*
X0377418Y0020678D01*
X0377463Y0020959D01*
X0377501Y0021242D01*
X0377532Y0021526D01*
X0377556Y0021810D01*
X0377573Y0022095D01*
X0377584Y0022381D01*
X0377587Y0022666D01*
X0377587Y0050265D01*
X0370107Y0064989D01*
X0370107Y0288847D01*
X0377587Y0303926D01*
X0377587Y0326997D01*
X0377584Y0327282D01*
X0377573Y0327568D01*
X0377556Y0327853D01*
X0377532Y0328137D01*
X0377501Y0328421D01*
X0377463Y0328704D01*
X0377418Y0328985D01*
X0377367Y0329266D01*
X0377309Y0329546D01*
X0377244Y0329824D01*
X0377172Y0330100D01*
X0377094Y0330374D01*
X0377009Y0330647D01*
X0376917Y0330917D01*
X0376819Y0331185D01*
X0376715Y0331451D01*
X0376604Y0331714D01*
X0376487Y0331974D01*
X0376364Y0332232D01*
X0376234Y0332486D01*
X0376098Y0332737D01*
X0375957Y0332985D01*
X0375809Y0333229D01*
X0375656Y0333470D01*
X0375496Y0333706D01*
X0375331Y0333939D01*
X0375161Y0334168D01*
X0374985Y0334393D01*
X0374803Y0334613D01*
X0374617Y0334829D01*
X0374425Y0335040D01*
X0374228Y0335247D01*
X0374026Y0335449D01*
X0373819Y0335646D01*
X0373608Y0335838D01*
X0373392Y0336024D01*
X0373172Y0336206D01*
X0372947Y0336382D01*
X0372718Y0336552D01*
X0372485Y0336717D01*
X0372249Y0336877D01*
X0372008Y0337030D01*
X0371764Y0337178D01*
X0371516Y0337319D01*
X0371265Y0337455D01*
X0371011Y0337585D01*
X0370753Y0337708D01*
X0370493Y0337825D01*
X0370230Y0337936D01*
X0369964Y0338040D01*
X0369696Y0338138D01*
X0369426Y0338230D01*
X0369153Y0338315D01*
X0368879Y0338393D01*
X0368603Y0338465D01*
X0368325Y0338530D01*
X0368045Y0338588D01*
X0367764Y0338639D01*
X0367483Y0338684D01*
X0367200Y0338722D01*
X0366916Y0338753D01*
X0366632Y0338777D01*
X0366347Y0338794D01*
X0366061Y0338805D01*
X0365776Y0338808D01*
X0342902Y0338808D01*
X0315028Y0357312D01*
X0045894Y0357312D01*
X0037233Y0353375D01*
X0013611Y0353375D01*
X0013326Y0353372D01*
X0013040Y0353361D01*
X0012755Y0353344D01*
X0012471Y0353320D01*
X0012187Y0353289D01*
X0011904Y0353251D01*
X0011623Y0353206D01*
X0011342Y0353155D01*
X0011062Y0353097D01*
X0010784Y0353032D01*
X0010508Y0352960D01*
X0010234Y0352882D01*
X0009961Y0352797D01*
X0009691Y0352705D01*
X0009423Y0352607D01*
X0009157Y0352503D01*
X0008894Y0352392D01*
X0008634Y0352275D01*
X0008376Y0352152D01*
X0008122Y0352022D01*
X0007871Y0351886D01*
X0007623Y0351745D01*
X0007379Y0351597D01*
X0007138Y0351444D01*
X0006902Y0351284D01*
X0006669Y0351119D01*
X0006440Y0350949D01*
X0006215Y0350773D01*
X0005995Y0350591D01*
X0005779Y0350405D01*
X0005568Y0350213D01*
X0005361Y0350016D01*
X0005159Y0349814D01*
X0004962Y0349607D01*
X0004770Y0349396D01*
X0004584Y0349180D01*
X0004402Y0348960D01*
X0004226Y0348735D01*
X0004056Y0348506D01*
X0003891Y0348273D01*
X0003731Y0348037D01*
X0003578Y0347796D01*
X0003430Y0347552D01*
X0003289Y0347304D01*
X0003153Y0347053D01*
X0003023Y0346799D01*
X0002900Y0346541D01*
X0002783Y0346281D01*
X0002672Y0346018D01*
X0002568Y0345752D01*
X0002470Y0345484D01*
X0002378Y0345214D01*
X0002293Y0344941D01*
X0002215Y0344667D01*
X0002143Y0344391D01*
X0002078Y0344113D01*
X0002020Y0343833D01*
X0001969Y0343552D01*
X0001924Y0343271D01*
X0001886Y0342988D01*
X0001855Y0342704D01*
X0001831Y0342420D01*
X0001814Y0342135D01*
X0001803Y0341849D01*
X0001800Y0341564D01*
X0001800Y0017548D01*
X0001803Y0017263D01*
X0001814Y0016977D01*
X0001831Y0016692D01*
X0001855Y0016408D01*
X0001886Y0016124D01*
X0001924Y0015841D01*
X0001969Y0015560D01*
X0002020Y0015279D01*
X0002078Y0014999D01*
X0002143Y0014721D01*
X0002215Y0014445D01*
X0002293Y0014171D01*
X0002378Y0013898D01*
X0002470Y0013628D01*
X0002568Y0013360D01*
X0002672Y0013094D01*
X0002783Y0012831D01*
X0002900Y0012571D01*
X0003023Y0012313D01*
X0003153Y0012059D01*
X0003289Y0011808D01*
X0003430Y0011560D01*
X0003578Y0011316D01*
X0003731Y0011075D01*
X0003891Y0010839D01*
X0004056Y0010606D01*
X0004226Y0010377D01*
X0004402Y0010152D01*
X0004584Y0009932D01*
X0004770Y0009716D01*
X0004962Y0009505D01*
X0005159Y0009298D01*
X0005361Y0009096D01*
X0005568Y0008899D01*
X0005779Y0008707D01*
X0005995Y0008521D01*
X0006215Y0008339D01*
X0006440Y0008163D01*
X0006669Y0007993D01*
X0006902Y0007828D01*
X0007138Y0007668D01*
X0007379Y0007515D01*
X0007623Y0007367D01*
X0007871Y0007226D01*
X0008122Y0007090D01*
X0008376Y0006960D01*
X0008634Y0006837D01*
X0008894Y0006720D01*
X0009157Y0006609D01*
X0009423Y0006505D01*
X0009691Y0006407D01*
X0009961Y0006315D01*
X0010234Y0006230D01*
X0010508Y0006152D01*
X0010784Y0006080D01*
X0011062Y0006015D01*
X0011342Y0005957D01*
X0011623Y0005906D01*
X0011904Y0005861D01*
X0012187Y0005823D01*
X0012471Y0005792D01*
X0012755Y0005768D01*
X0013040Y0005751D01*
X0013326Y0005740D01*
X0013611Y0005737D01*
X0014832Y0021682D02*
X0014834Y0021840D01*
X0014840Y0021998D01*
X0014850Y0022156D01*
X0014864Y0022314D01*
X0014882Y0022471D01*
X0014903Y0022628D01*
X0014929Y0022784D01*
X0014959Y0022940D01*
X0014992Y0023095D01*
X0015030Y0023248D01*
X0015071Y0023401D01*
X0015116Y0023553D01*
X0015165Y0023704D01*
X0015218Y0023853D01*
X0015274Y0024001D01*
X0015334Y0024147D01*
X0015398Y0024292D01*
X0015466Y0024435D01*
X0015537Y0024577D01*
X0015611Y0024717D01*
X0015689Y0024854D01*
X0015771Y0024990D01*
X0015855Y0025124D01*
X0015944Y0025255D01*
X0016035Y0025384D01*
X0016130Y0025511D01*
X0016227Y0025636D01*
X0016328Y0025758D01*
X0016432Y0025877D01*
X0016539Y0025994D01*
X0016649Y0026108D01*
X0016762Y0026219D01*
X0016877Y0026328D01*
X0016995Y0026433D01*
X0017116Y0026535D01*
X0017239Y0026635D01*
X0017365Y0026731D01*
X0017493Y0026824D01*
X0017623Y0026914D01*
X0017756Y0027000D01*
X0017891Y0027084D01*
X0018027Y0027163D01*
X0018166Y0027240D01*
X0018307Y0027312D01*
X0018449Y0027382D01*
X0018593Y0027447D01*
X0018739Y0027509D01*
X0018886Y0027567D01*
X0019035Y0027622D01*
X0019185Y0027673D01*
X0019336Y0027720D01*
X0019488Y0027763D01*
X0019641Y0027802D01*
X0019796Y0027838D01*
X0019951Y0027869D01*
X0020107Y0027897D01*
X0020263Y0027921D01*
X0020420Y0027941D01*
X0020578Y0027957D01*
X0020735Y0027969D01*
X0020894Y0027977D01*
X0021052Y0027981D01*
X0021210Y0027981D01*
X0021368Y0027977D01*
X0021527Y0027969D01*
X0021684Y0027957D01*
X0021842Y0027941D01*
X0021999Y0027921D01*
X0022155Y0027897D01*
X0022311Y0027869D01*
X0022466Y0027838D01*
X0022621Y0027802D01*
X0022774Y0027763D01*
X0022926Y0027720D01*
X0023077Y0027673D01*
X0023227Y0027622D01*
X0023376Y0027567D01*
X0023523Y0027509D01*
X0023669Y0027447D01*
X0023813Y0027382D01*
X0023955Y0027312D01*
X0024096Y0027240D01*
X0024235Y0027163D01*
X0024371Y0027084D01*
X0024506Y0027000D01*
X0024639Y0026914D01*
X0024769Y0026824D01*
X0024897Y0026731D01*
X0025023Y0026635D01*
X0025146Y0026535D01*
X0025267Y0026433D01*
X0025385Y0026328D01*
X0025500Y0026219D01*
X0025613Y0026108D01*
X0025723Y0025994D01*
X0025830Y0025877D01*
X0025934Y0025758D01*
X0026035Y0025636D01*
X0026132Y0025511D01*
X0026227Y0025384D01*
X0026318Y0025255D01*
X0026407Y0025124D01*
X0026491Y0024990D01*
X0026573Y0024854D01*
X0026651Y0024717D01*
X0026725Y0024577D01*
X0026796Y0024435D01*
X0026864Y0024292D01*
X0026928Y0024147D01*
X0026988Y0024001D01*
X0027044Y0023853D01*
X0027097Y0023704D01*
X0027146Y0023553D01*
X0027191Y0023401D01*
X0027232Y0023248D01*
X0027270Y0023095D01*
X0027303Y0022940D01*
X0027333Y0022784D01*
X0027359Y0022628D01*
X0027380Y0022471D01*
X0027398Y0022314D01*
X0027412Y0022156D01*
X0027422Y0021998D01*
X0027428Y0021840D01*
X0027430Y0021682D01*
X0027428Y0021524D01*
X0027422Y0021366D01*
X0027412Y0021208D01*
X0027398Y0021050D01*
X0027380Y0020893D01*
X0027359Y0020736D01*
X0027333Y0020580D01*
X0027303Y0020424D01*
X0027270Y0020269D01*
X0027232Y0020116D01*
X0027191Y0019963D01*
X0027146Y0019811D01*
X0027097Y0019660D01*
X0027044Y0019511D01*
X0026988Y0019363D01*
X0026928Y0019217D01*
X0026864Y0019072D01*
X0026796Y0018929D01*
X0026725Y0018787D01*
X0026651Y0018647D01*
X0026573Y0018510D01*
X0026491Y0018374D01*
X0026407Y0018240D01*
X0026318Y0018109D01*
X0026227Y0017980D01*
X0026132Y0017853D01*
X0026035Y0017728D01*
X0025934Y0017606D01*
X0025830Y0017487D01*
X0025723Y0017370D01*
X0025613Y0017256D01*
X0025500Y0017145D01*
X0025385Y0017036D01*
X0025267Y0016931D01*
X0025146Y0016829D01*
X0025023Y0016729D01*
X0024897Y0016633D01*
X0024769Y0016540D01*
X0024639Y0016450D01*
X0024506Y0016364D01*
X0024371Y0016280D01*
X0024235Y0016201D01*
X0024096Y0016124D01*
X0023955Y0016052D01*
X0023813Y0015982D01*
X0023669Y0015917D01*
X0023523Y0015855D01*
X0023376Y0015797D01*
X0023227Y0015742D01*
X0023077Y0015691D01*
X0022926Y0015644D01*
X0022774Y0015601D01*
X0022621Y0015562D01*
X0022466Y0015526D01*
X0022311Y0015495D01*
X0022155Y0015467D01*
X0021999Y0015443D01*
X0021842Y0015423D01*
X0021684Y0015407D01*
X0021527Y0015395D01*
X0021368Y0015387D01*
X0021210Y0015383D01*
X0021052Y0015383D01*
X0020894Y0015387D01*
X0020735Y0015395D01*
X0020578Y0015407D01*
X0020420Y0015423D01*
X0020263Y0015443D01*
X0020107Y0015467D01*
X0019951Y0015495D01*
X0019796Y0015526D01*
X0019641Y0015562D01*
X0019488Y0015601D01*
X0019336Y0015644D01*
X0019185Y0015691D01*
X0019035Y0015742D01*
X0018886Y0015797D01*
X0018739Y0015855D01*
X0018593Y0015917D01*
X0018449Y0015982D01*
X0018307Y0016052D01*
X0018166Y0016124D01*
X0018027Y0016201D01*
X0017891Y0016280D01*
X0017756Y0016364D01*
X0017623Y0016450D01*
X0017493Y0016540D01*
X0017365Y0016633D01*
X0017239Y0016729D01*
X0017116Y0016829D01*
X0016995Y0016931D01*
X0016877Y0017036D01*
X0016762Y0017145D01*
X0016649Y0017256D01*
X0016539Y0017370D01*
X0016432Y0017487D01*
X0016328Y0017606D01*
X0016227Y0017728D01*
X0016130Y0017853D01*
X0016035Y0017980D01*
X0015944Y0018109D01*
X0015855Y0018240D01*
X0015771Y0018374D01*
X0015689Y0018510D01*
X0015611Y0018647D01*
X0015537Y0018787D01*
X0015466Y0018929D01*
X0015398Y0019072D01*
X0015334Y0019217D01*
X0015274Y0019363D01*
X0015218Y0019511D01*
X0015165Y0019660D01*
X0015116Y0019811D01*
X0015071Y0019963D01*
X0015030Y0020116D01*
X0014992Y0020269D01*
X0014959Y0020424D01*
X0014929Y0020580D01*
X0014903Y0020736D01*
X0014882Y0020893D01*
X0014864Y0021050D01*
X0014850Y0021208D01*
X0014840Y0021366D01*
X0014834Y0021524D01*
X0014832Y0021682D01*
X0014832Y0336721D02*
X0014834Y0336879D01*
X0014840Y0337037D01*
X0014850Y0337195D01*
X0014864Y0337353D01*
X0014882Y0337510D01*
X0014903Y0337667D01*
X0014929Y0337823D01*
X0014959Y0337979D01*
X0014992Y0338134D01*
X0015030Y0338287D01*
X0015071Y0338440D01*
X0015116Y0338592D01*
X0015165Y0338743D01*
X0015218Y0338892D01*
X0015274Y0339040D01*
X0015334Y0339186D01*
X0015398Y0339331D01*
X0015466Y0339474D01*
X0015537Y0339616D01*
X0015611Y0339756D01*
X0015689Y0339893D01*
X0015771Y0340029D01*
X0015855Y0340163D01*
X0015944Y0340294D01*
X0016035Y0340423D01*
X0016130Y0340550D01*
X0016227Y0340675D01*
X0016328Y0340797D01*
X0016432Y0340916D01*
X0016539Y0341033D01*
X0016649Y0341147D01*
X0016762Y0341258D01*
X0016877Y0341367D01*
X0016995Y0341472D01*
X0017116Y0341574D01*
X0017239Y0341674D01*
X0017365Y0341770D01*
X0017493Y0341863D01*
X0017623Y0341953D01*
X0017756Y0342039D01*
X0017891Y0342123D01*
X0018027Y0342202D01*
X0018166Y0342279D01*
X0018307Y0342351D01*
X0018449Y0342421D01*
X0018593Y0342486D01*
X0018739Y0342548D01*
X0018886Y0342606D01*
X0019035Y0342661D01*
X0019185Y0342712D01*
X0019336Y0342759D01*
X0019488Y0342802D01*
X0019641Y0342841D01*
X0019796Y0342877D01*
X0019951Y0342908D01*
X0020107Y0342936D01*
X0020263Y0342960D01*
X0020420Y0342980D01*
X0020578Y0342996D01*
X0020735Y0343008D01*
X0020894Y0343016D01*
X0021052Y0343020D01*
X0021210Y0343020D01*
X0021368Y0343016D01*
X0021527Y0343008D01*
X0021684Y0342996D01*
X0021842Y0342980D01*
X0021999Y0342960D01*
X0022155Y0342936D01*
X0022311Y0342908D01*
X0022466Y0342877D01*
X0022621Y0342841D01*
X0022774Y0342802D01*
X0022926Y0342759D01*
X0023077Y0342712D01*
X0023227Y0342661D01*
X0023376Y0342606D01*
X0023523Y0342548D01*
X0023669Y0342486D01*
X0023813Y0342421D01*
X0023955Y0342351D01*
X0024096Y0342279D01*
X0024235Y0342202D01*
X0024371Y0342123D01*
X0024506Y0342039D01*
X0024639Y0341953D01*
X0024769Y0341863D01*
X0024897Y0341770D01*
X0025023Y0341674D01*
X0025146Y0341574D01*
X0025267Y0341472D01*
X0025385Y0341367D01*
X0025500Y0341258D01*
X0025613Y0341147D01*
X0025723Y0341033D01*
X0025830Y0340916D01*
X0025934Y0340797D01*
X0026035Y0340675D01*
X0026132Y0340550D01*
X0026227Y0340423D01*
X0026318Y0340294D01*
X0026407Y0340163D01*
X0026491Y0340029D01*
X0026573Y0339893D01*
X0026651Y0339756D01*
X0026725Y0339616D01*
X0026796Y0339474D01*
X0026864Y0339331D01*
X0026928Y0339186D01*
X0026988Y0339040D01*
X0027044Y0338892D01*
X0027097Y0338743D01*
X0027146Y0338592D01*
X0027191Y0338440D01*
X0027232Y0338287D01*
X0027270Y0338134D01*
X0027303Y0337979D01*
X0027333Y0337823D01*
X0027359Y0337667D01*
X0027380Y0337510D01*
X0027398Y0337353D01*
X0027412Y0337195D01*
X0027422Y0337037D01*
X0027428Y0336879D01*
X0027430Y0336721D01*
X0027428Y0336563D01*
X0027422Y0336405D01*
X0027412Y0336247D01*
X0027398Y0336089D01*
X0027380Y0335932D01*
X0027359Y0335775D01*
X0027333Y0335619D01*
X0027303Y0335463D01*
X0027270Y0335308D01*
X0027232Y0335155D01*
X0027191Y0335002D01*
X0027146Y0334850D01*
X0027097Y0334699D01*
X0027044Y0334550D01*
X0026988Y0334402D01*
X0026928Y0334256D01*
X0026864Y0334111D01*
X0026796Y0333968D01*
X0026725Y0333826D01*
X0026651Y0333686D01*
X0026573Y0333549D01*
X0026491Y0333413D01*
X0026407Y0333279D01*
X0026318Y0333148D01*
X0026227Y0333019D01*
X0026132Y0332892D01*
X0026035Y0332767D01*
X0025934Y0332645D01*
X0025830Y0332526D01*
X0025723Y0332409D01*
X0025613Y0332295D01*
X0025500Y0332184D01*
X0025385Y0332075D01*
X0025267Y0331970D01*
X0025146Y0331868D01*
X0025023Y0331768D01*
X0024897Y0331672D01*
X0024769Y0331579D01*
X0024639Y0331489D01*
X0024506Y0331403D01*
X0024371Y0331319D01*
X0024235Y0331240D01*
X0024096Y0331163D01*
X0023955Y0331091D01*
X0023813Y0331021D01*
X0023669Y0330956D01*
X0023523Y0330894D01*
X0023376Y0330836D01*
X0023227Y0330781D01*
X0023077Y0330730D01*
X0022926Y0330683D01*
X0022774Y0330640D01*
X0022621Y0330601D01*
X0022466Y0330565D01*
X0022311Y0330534D01*
X0022155Y0330506D01*
X0021999Y0330482D01*
X0021842Y0330462D01*
X0021684Y0330446D01*
X0021527Y0330434D01*
X0021368Y0330426D01*
X0021210Y0330422D01*
X0021052Y0330422D01*
X0020894Y0330426D01*
X0020735Y0330434D01*
X0020578Y0330446D01*
X0020420Y0330462D01*
X0020263Y0330482D01*
X0020107Y0330506D01*
X0019951Y0330534D01*
X0019796Y0330565D01*
X0019641Y0330601D01*
X0019488Y0330640D01*
X0019336Y0330683D01*
X0019185Y0330730D01*
X0019035Y0330781D01*
X0018886Y0330836D01*
X0018739Y0330894D01*
X0018593Y0330956D01*
X0018449Y0331021D01*
X0018307Y0331091D01*
X0018166Y0331163D01*
X0018027Y0331240D01*
X0017891Y0331319D01*
X0017756Y0331403D01*
X0017623Y0331489D01*
X0017493Y0331579D01*
X0017365Y0331672D01*
X0017239Y0331768D01*
X0017116Y0331868D01*
X0016995Y0331970D01*
X0016877Y0332075D01*
X0016762Y0332184D01*
X0016649Y0332295D01*
X0016539Y0332409D01*
X0016432Y0332526D01*
X0016328Y0332645D01*
X0016227Y0332767D01*
X0016130Y0332892D01*
X0016035Y0333019D01*
X0015944Y0333148D01*
X0015855Y0333279D01*
X0015771Y0333413D01*
X0015689Y0333549D01*
X0015611Y0333686D01*
X0015537Y0333826D01*
X0015466Y0333968D01*
X0015398Y0334111D01*
X0015334Y0334256D01*
X0015274Y0334402D01*
X0015218Y0334550D01*
X0015165Y0334699D01*
X0015116Y0334850D01*
X0015071Y0335002D01*
X0015030Y0335155D01*
X0014992Y0335308D01*
X0014959Y0335463D01*
X0014929Y0335619D01*
X0014903Y0335775D01*
X0014882Y0335932D01*
X0014864Y0336089D01*
X0014850Y0336247D01*
X0014840Y0336405D01*
X0014834Y0336563D01*
X0014832Y0336721D01*
X0352312Y0321721D02*
X0352314Y0321879D01*
X0352320Y0322037D01*
X0352330Y0322195D01*
X0352344Y0322353D01*
X0352362Y0322510D01*
X0352383Y0322667D01*
X0352409Y0322823D01*
X0352439Y0322979D01*
X0352472Y0323134D01*
X0352510Y0323287D01*
X0352551Y0323440D01*
X0352596Y0323592D01*
X0352645Y0323743D01*
X0352698Y0323892D01*
X0352754Y0324040D01*
X0352814Y0324186D01*
X0352878Y0324331D01*
X0352946Y0324474D01*
X0353017Y0324616D01*
X0353091Y0324756D01*
X0353169Y0324893D01*
X0353251Y0325029D01*
X0353335Y0325163D01*
X0353424Y0325294D01*
X0353515Y0325423D01*
X0353610Y0325550D01*
X0353707Y0325675D01*
X0353808Y0325797D01*
X0353912Y0325916D01*
X0354019Y0326033D01*
X0354129Y0326147D01*
X0354242Y0326258D01*
X0354357Y0326367D01*
X0354475Y0326472D01*
X0354596Y0326574D01*
X0354719Y0326674D01*
X0354845Y0326770D01*
X0354973Y0326863D01*
X0355103Y0326953D01*
X0355236Y0327039D01*
X0355371Y0327123D01*
X0355507Y0327202D01*
X0355646Y0327279D01*
X0355787Y0327351D01*
X0355929Y0327421D01*
X0356073Y0327486D01*
X0356219Y0327548D01*
X0356366Y0327606D01*
X0356515Y0327661D01*
X0356665Y0327712D01*
X0356816Y0327759D01*
X0356968Y0327802D01*
X0357121Y0327841D01*
X0357276Y0327877D01*
X0357431Y0327908D01*
X0357587Y0327936D01*
X0357743Y0327960D01*
X0357900Y0327980D01*
X0358058Y0327996D01*
X0358215Y0328008D01*
X0358374Y0328016D01*
X0358532Y0328020D01*
X0358690Y0328020D01*
X0358848Y0328016D01*
X0359007Y0328008D01*
X0359164Y0327996D01*
X0359322Y0327980D01*
X0359479Y0327960D01*
X0359635Y0327936D01*
X0359791Y0327908D01*
X0359946Y0327877D01*
X0360101Y0327841D01*
X0360254Y0327802D01*
X0360406Y0327759D01*
X0360557Y0327712D01*
X0360707Y0327661D01*
X0360856Y0327606D01*
X0361003Y0327548D01*
X0361149Y0327486D01*
X0361293Y0327421D01*
X0361435Y0327351D01*
X0361576Y0327279D01*
X0361715Y0327202D01*
X0361851Y0327123D01*
X0361986Y0327039D01*
X0362119Y0326953D01*
X0362249Y0326863D01*
X0362377Y0326770D01*
X0362503Y0326674D01*
X0362626Y0326574D01*
X0362747Y0326472D01*
X0362865Y0326367D01*
X0362980Y0326258D01*
X0363093Y0326147D01*
X0363203Y0326033D01*
X0363310Y0325916D01*
X0363414Y0325797D01*
X0363515Y0325675D01*
X0363612Y0325550D01*
X0363707Y0325423D01*
X0363798Y0325294D01*
X0363887Y0325163D01*
X0363971Y0325029D01*
X0364053Y0324893D01*
X0364131Y0324756D01*
X0364205Y0324616D01*
X0364276Y0324474D01*
X0364344Y0324331D01*
X0364408Y0324186D01*
X0364468Y0324040D01*
X0364524Y0323892D01*
X0364577Y0323743D01*
X0364626Y0323592D01*
X0364671Y0323440D01*
X0364712Y0323287D01*
X0364750Y0323134D01*
X0364783Y0322979D01*
X0364813Y0322823D01*
X0364839Y0322667D01*
X0364860Y0322510D01*
X0364878Y0322353D01*
X0364892Y0322195D01*
X0364902Y0322037D01*
X0364908Y0321879D01*
X0364910Y0321721D01*
X0364908Y0321563D01*
X0364902Y0321405D01*
X0364892Y0321247D01*
X0364878Y0321089D01*
X0364860Y0320932D01*
X0364839Y0320775D01*
X0364813Y0320619D01*
X0364783Y0320463D01*
X0364750Y0320308D01*
X0364712Y0320155D01*
X0364671Y0320002D01*
X0364626Y0319850D01*
X0364577Y0319699D01*
X0364524Y0319550D01*
X0364468Y0319402D01*
X0364408Y0319256D01*
X0364344Y0319111D01*
X0364276Y0318968D01*
X0364205Y0318826D01*
X0364131Y0318686D01*
X0364053Y0318549D01*
X0363971Y0318413D01*
X0363887Y0318279D01*
X0363798Y0318148D01*
X0363707Y0318019D01*
X0363612Y0317892D01*
X0363515Y0317767D01*
X0363414Y0317645D01*
X0363310Y0317526D01*
X0363203Y0317409D01*
X0363093Y0317295D01*
X0362980Y0317184D01*
X0362865Y0317075D01*
X0362747Y0316970D01*
X0362626Y0316868D01*
X0362503Y0316768D01*
X0362377Y0316672D01*
X0362249Y0316579D01*
X0362119Y0316489D01*
X0361986Y0316403D01*
X0361851Y0316319D01*
X0361715Y0316240D01*
X0361576Y0316163D01*
X0361435Y0316091D01*
X0361293Y0316021D01*
X0361149Y0315956D01*
X0361003Y0315894D01*
X0360856Y0315836D01*
X0360707Y0315781D01*
X0360557Y0315730D01*
X0360406Y0315683D01*
X0360254Y0315640D01*
X0360101Y0315601D01*
X0359946Y0315565D01*
X0359791Y0315534D01*
X0359635Y0315506D01*
X0359479Y0315482D01*
X0359322Y0315462D01*
X0359164Y0315446D01*
X0359007Y0315434D01*
X0358848Y0315426D01*
X0358690Y0315422D01*
X0358532Y0315422D01*
X0358374Y0315426D01*
X0358215Y0315434D01*
X0358058Y0315446D01*
X0357900Y0315462D01*
X0357743Y0315482D01*
X0357587Y0315506D01*
X0357431Y0315534D01*
X0357276Y0315565D01*
X0357121Y0315601D01*
X0356968Y0315640D01*
X0356816Y0315683D01*
X0356665Y0315730D01*
X0356515Y0315781D01*
X0356366Y0315836D01*
X0356219Y0315894D01*
X0356073Y0315956D01*
X0355929Y0316021D01*
X0355787Y0316091D01*
X0355646Y0316163D01*
X0355507Y0316240D01*
X0355371Y0316319D01*
X0355236Y0316403D01*
X0355103Y0316489D01*
X0354973Y0316579D01*
X0354845Y0316672D01*
X0354719Y0316768D01*
X0354596Y0316868D01*
X0354475Y0316970D01*
X0354357Y0317075D01*
X0354242Y0317184D01*
X0354129Y0317295D01*
X0354019Y0317409D01*
X0353912Y0317526D01*
X0353808Y0317645D01*
X0353707Y0317767D01*
X0353610Y0317892D01*
X0353515Y0318019D01*
X0353424Y0318148D01*
X0353335Y0318279D01*
X0353251Y0318413D01*
X0353169Y0318549D01*
X0353091Y0318686D01*
X0353017Y0318826D01*
X0352946Y0318968D01*
X0352878Y0319111D01*
X0352814Y0319256D01*
X0352754Y0319402D01*
X0352698Y0319550D01*
X0352645Y0319699D01*
X0352596Y0319850D01*
X0352551Y0320002D01*
X0352510Y0320155D01*
X0352472Y0320308D01*
X0352439Y0320463D01*
X0352409Y0320619D01*
X0352383Y0320775D01*
X0352362Y0320932D01*
X0352344Y0321089D01*
X0352330Y0321247D01*
X0352320Y0321405D01*
X0352314Y0321563D01*
X0352312Y0321721D01*
X0352312Y0031721D02*
X0352314Y0031879D01*
X0352320Y0032037D01*
X0352330Y0032195D01*
X0352344Y0032353D01*
X0352362Y0032510D01*
X0352383Y0032667D01*
X0352409Y0032823D01*
X0352439Y0032979D01*
X0352472Y0033134D01*
X0352510Y0033287D01*
X0352551Y0033440D01*
X0352596Y0033592D01*
X0352645Y0033743D01*
X0352698Y0033892D01*
X0352754Y0034040D01*
X0352814Y0034186D01*
X0352878Y0034331D01*
X0352946Y0034474D01*
X0353017Y0034616D01*
X0353091Y0034756D01*
X0353169Y0034893D01*
X0353251Y0035029D01*
X0353335Y0035163D01*
X0353424Y0035294D01*
X0353515Y0035423D01*
X0353610Y0035550D01*
X0353707Y0035675D01*
X0353808Y0035797D01*
X0353912Y0035916D01*
X0354019Y0036033D01*
X0354129Y0036147D01*
X0354242Y0036258D01*
X0354357Y0036367D01*
X0354475Y0036472D01*
X0354596Y0036574D01*
X0354719Y0036674D01*
X0354845Y0036770D01*
X0354973Y0036863D01*
X0355103Y0036953D01*
X0355236Y0037039D01*
X0355371Y0037123D01*
X0355507Y0037202D01*
X0355646Y0037279D01*
X0355787Y0037351D01*
X0355929Y0037421D01*
X0356073Y0037486D01*
X0356219Y0037548D01*
X0356366Y0037606D01*
X0356515Y0037661D01*
X0356665Y0037712D01*
X0356816Y0037759D01*
X0356968Y0037802D01*
X0357121Y0037841D01*
X0357276Y0037877D01*
X0357431Y0037908D01*
X0357587Y0037936D01*
X0357743Y0037960D01*
X0357900Y0037980D01*
X0358058Y0037996D01*
X0358215Y0038008D01*
X0358374Y0038016D01*
X0358532Y0038020D01*
X0358690Y0038020D01*
X0358848Y0038016D01*
X0359007Y0038008D01*
X0359164Y0037996D01*
X0359322Y0037980D01*
X0359479Y0037960D01*
X0359635Y0037936D01*
X0359791Y0037908D01*
X0359946Y0037877D01*
X0360101Y0037841D01*
X0360254Y0037802D01*
X0360406Y0037759D01*
X0360557Y0037712D01*
X0360707Y0037661D01*
X0360856Y0037606D01*
X0361003Y0037548D01*
X0361149Y0037486D01*
X0361293Y0037421D01*
X0361435Y0037351D01*
X0361576Y0037279D01*
X0361715Y0037202D01*
X0361851Y0037123D01*
X0361986Y0037039D01*
X0362119Y0036953D01*
X0362249Y0036863D01*
X0362377Y0036770D01*
X0362503Y0036674D01*
X0362626Y0036574D01*
X0362747Y0036472D01*
X0362865Y0036367D01*
X0362980Y0036258D01*
X0363093Y0036147D01*
X0363203Y0036033D01*
X0363310Y0035916D01*
X0363414Y0035797D01*
X0363515Y0035675D01*
X0363612Y0035550D01*
X0363707Y0035423D01*
X0363798Y0035294D01*
X0363887Y0035163D01*
X0363971Y0035029D01*
X0364053Y0034893D01*
X0364131Y0034756D01*
X0364205Y0034616D01*
X0364276Y0034474D01*
X0364344Y0034331D01*
X0364408Y0034186D01*
X0364468Y0034040D01*
X0364524Y0033892D01*
X0364577Y0033743D01*
X0364626Y0033592D01*
X0364671Y0033440D01*
X0364712Y0033287D01*
X0364750Y0033134D01*
X0364783Y0032979D01*
X0364813Y0032823D01*
X0364839Y0032667D01*
X0364860Y0032510D01*
X0364878Y0032353D01*
X0364892Y0032195D01*
X0364902Y0032037D01*
X0364908Y0031879D01*
X0364910Y0031721D01*
X0364908Y0031563D01*
X0364902Y0031405D01*
X0364892Y0031247D01*
X0364878Y0031089D01*
X0364860Y0030932D01*
X0364839Y0030775D01*
X0364813Y0030619D01*
X0364783Y0030463D01*
X0364750Y0030308D01*
X0364712Y0030155D01*
X0364671Y0030002D01*
X0364626Y0029850D01*
X0364577Y0029699D01*
X0364524Y0029550D01*
X0364468Y0029402D01*
X0364408Y0029256D01*
X0364344Y0029111D01*
X0364276Y0028968D01*
X0364205Y0028826D01*
X0364131Y0028686D01*
X0364053Y0028549D01*
X0363971Y0028413D01*
X0363887Y0028279D01*
X0363798Y0028148D01*
X0363707Y0028019D01*
X0363612Y0027892D01*
X0363515Y0027767D01*
X0363414Y0027645D01*
X0363310Y0027526D01*
X0363203Y0027409D01*
X0363093Y0027295D01*
X0362980Y0027184D01*
X0362865Y0027075D01*
X0362747Y0026970D01*
X0362626Y0026868D01*
X0362503Y0026768D01*
X0362377Y0026672D01*
X0362249Y0026579D01*
X0362119Y0026489D01*
X0361986Y0026403D01*
X0361851Y0026319D01*
X0361715Y0026240D01*
X0361576Y0026163D01*
X0361435Y0026091D01*
X0361293Y0026021D01*
X0361149Y0025956D01*
X0361003Y0025894D01*
X0360856Y0025836D01*
X0360707Y0025781D01*
X0360557Y0025730D01*
X0360406Y0025683D01*
X0360254Y0025640D01*
X0360101Y0025601D01*
X0359946Y0025565D01*
X0359791Y0025534D01*
X0359635Y0025506D01*
X0359479Y0025482D01*
X0359322Y0025462D01*
X0359164Y0025446D01*
X0359007Y0025434D01*
X0358848Y0025426D01*
X0358690Y0025422D01*
X0358532Y0025422D01*
X0358374Y0025426D01*
X0358215Y0025434D01*
X0358058Y0025446D01*
X0357900Y0025462D01*
X0357743Y0025482D01*
X0357587Y0025506D01*
X0357431Y0025534D01*
X0357276Y0025565D01*
X0357121Y0025601D01*
X0356968Y0025640D01*
X0356816Y0025683D01*
X0356665Y0025730D01*
X0356515Y0025781D01*
X0356366Y0025836D01*
X0356219Y0025894D01*
X0356073Y0025956D01*
X0355929Y0026021D01*
X0355787Y0026091D01*
X0355646Y0026163D01*
X0355507Y0026240D01*
X0355371Y0026319D01*
X0355236Y0026403D01*
X0355103Y0026489D01*
X0354973Y0026579D01*
X0354845Y0026672D01*
X0354719Y0026768D01*
X0354596Y0026868D01*
X0354475Y0026970D01*
X0354357Y0027075D01*
X0354242Y0027184D01*
X0354129Y0027295D01*
X0354019Y0027409D01*
X0353912Y0027526D01*
X0353808Y0027645D01*
X0353707Y0027767D01*
X0353610Y0027892D01*
X0353515Y0028019D01*
X0353424Y0028148D01*
X0353335Y0028279D01*
X0353251Y0028413D01*
X0353169Y0028549D01*
X0353091Y0028686D01*
X0353017Y0028826D01*
X0352946Y0028968D01*
X0352878Y0029111D01*
X0352814Y0029256D01*
X0352754Y0029402D01*
X0352698Y0029550D01*
X0352645Y0029699D01*
X0352596Y0029850D01*
X0352551Y0030002D01*
X0352510Y0030155D01*
X0352472Y0030308D01*
X0352439Y0030463D01*
X0352409Y0030619D01*
X0352383Y0030775D01*
X0352362Y0030932D01*
X0352344Y0031089D01*
X0352330Y0031247D01*
X0352320Y0031405D01*
X0352314Y0031563D01*
X0352312Y0031721D01*
D11*
X0321699Y0163200D02*
X0322400Y0163901D01*
X0322400Y0165302D01*
X0321699Y0166002D01*
X0320999Y0166002D01*
X0320298Y0165302D01*
X0320298Y0164601D01*
X0320298Y0165302D02*
X0319598Y0166002D01*
X0318897Y0166002D01*
X0318196Y0165302D01*
X0318196Y0163901D01*
X0318897Y0163200D01*
X0318196Y0167804D02*
X0320999Y0167804D01*
X0322400Y0169205D01*
X0320999Y0170606D01*
X0318196Y0170606D01*
X0318897Y0172408D02*
X0318196Y0173108D01*
X0318196Y0174510D01*
X0318897Y0175210D01*
X0319598Y0175210D01*
X0320298Y0174510D01*
X0320999Y0175210D01*
X0321699Y0175210D01*
X0322400Y0174510D01*
X0322400Y0173108D01*
X0321699Y0172408D01*
X0320298Y0173809D02*
X0320298Y0174510D01*
X0320298Y0180200D02*
X0318196Y0180200D01*
X0318196Y0183002D01*
X0319598Y0182302D02*
X0320298Y0183002D01*
X0321699Y0183002D01*
X0322400Y0182302D01*
X0322400Y0180901D01*
X0321699Y0180200D01*
X0320298Y0180200D02*
X0319598Y0181601D01*
X0319598Y0182302D01*
X0320999Y0184804D02*
X0318196Y0184804D01*
X0318196Y0187606D02*
X0320999Y0187606D01*
X0322400Y0186205D01*
X0320999Y0184804D01*
D12*
X0186682Y0247942D03*
X0155658Y0269202D03*
X0155501Y0269359D03*
X0154241Y0270461D03*
X0153611Y0271249D03*
X0153454Y0271406D03*
X0153296Y0271564D03*
X0153139Y0271721D03*
X0152981Y0271879D03*
X0175973Y0312036D03*
X0176131Y0312036D03*
X0176761Y0311879D03*
X0176918Y0311879D03*
X0177391Y0311721D03*
X0177548Y0311721D03*
X0178020Y0311564D03*
X0178178Y0311564D03*
X0178493Y0311406D03*
X0178650Y0311406D03*
X0178808Y0311406D03*
X0179123Y0311249D03*
X0179280Y0311249D03*
X0179595Y0311091D03*
X0179753Y0311091D03*
X0180068Y0310934D03*
X0180855Y0310619D03*
X0168887Y0317706D03*
X0168572Y0318178D03*
X0168414Y0318493D03*
X0168257Y0318650D03*
X0168099Y0318965D03*
X0167942Y0319123D03*
X0167627Y0319595D03*
X0167312Y0320068D03*
X0166682Y0323217D03*
X0166524Y0323532D03*
X0166209Y0324005D03*
X0166052Y0324320D03*
X0165894Y0324477D03*
X0165737Y0324792D03*
X0165422Y0325265D03*
X0165107Y0325737D03*
D13*
X0164950Y0325973D03*
X0164792Y0326131D03*
X0164635Y0326446D03*
X0165265Y0325501D03*
X0165580Y0325028D03*
X0167154Y0320304D03*
X0167469Y0319831D03*
X0167784Y0319359D03*
X0178965Y0311328D03*
X0179438Y0311170D03*
X0179910Y0311013D03*
X0180225Y0310855D03*
X0180383Y0310855D03*
X0180540Y0310698D03*
X0180698Y0310698D03*
X0181013Y0310540D03*
X0181170Y0310540D03*
X0181328Y0310383D03*
X0181485Y0310383D03*
X0181800Y0310225D03*
X0182115Y0310068D03*
X0182430Y0309910D03*
X0182745Y0309753D03*
X0154083Y0270698D03*
X0154398Y0270383D03*
X0154556Y0270225D03*
X0154713Y0270068D03*
X0154871Y0269910D03*
X0155028Y0269753D03*
X0155186Y0269595D03*
X0155343Y0269438D03*
X0155816Y0269123D03*
X0155973Y0268965D03*
X0156131Y0268808D03*
X0156288Y0268650D03*
X0156446Y0268493D03*
X0156603Y0268493D03*
X0156761Y0268335D03*
X0156918Y0268178D03*
X0157233Y0268020D03*
X0157391Y0267863D03*
X0157863Y0267548D03*
X0158020Y0267391D03*
X0158493Y0267076D03*
X0172509Y0263769D03*
D14*
X0155973Y0322351D03*
X0163847Y0132430D03*
X0164005Y0132430D03*
X0181013Y0122351D03*
X0181170Y0122351D03*
X0164005Y0111957D03*
X0163847Y0111957D03*
D15*
X0156131Y0322036D03*
D16*
X0156288Y0321721D03*
X0160698Y0197469D03*
D17*
X0156446Y0321328D03*
D18*
X0156603Y0320934D03*
X0182430Y0152272D03*
X0182587Y0062036D03*
D19*
X0181170Y0062666D03*
X0181013Y0062666D03*
X0181013Y0152902D03*
X0180855Y0152902D03*
X0156761Y0320619D03*
D20*
X0156918Y0320225D03*
D21*
X0157076Y0326761D03*
X0195501Y0292587D03*
X0164792Y0132430D03*
X0164635Y0132430D03*
X0180383Y0122351D03*
D22*
X0157076Y0313532D03*
D23*
X0166682Y0320855D03*
X0166839Y0320698D03*
X0166997Y0320540D03*
X0164477Y0326682D03*
X0164320Y0326839D03*
X0164162Y0326997D03*
X0163847Y0327469D03*
X0181643Y0310304D03*
X0181957Y0310146D03*
X0182272Y0309989D03*
X0182587Y0309831D03*
X0182902Y0309674D03*
X0183060Y0309674D03*
X0183217Y0309517D03*
X0183375Y0309517D03*
X0183532Y0309359D03*
X0183847Y0309202D03*
X0184320Y0308887D03*
X0184635Y0308729D03*
X0160698Y0265894D03*
X0160383Y0266052D03*
X0160068Y0266209D03*
X0159910Y0266209D03*
X0159753Y0266367D03*
X0159438Y0266524D03*
X0159280Y0266682D03*
X0159123Y0266682D03*
X0158965Y0266839D03*
X0158808Y0266839D03*
X0158650Y0266997D03*
X0158335Y0267154D03*
X0158178Y0267312D03*
X0157706Y0267627D03*
X0157548Y0267784D03*
X0157076Y0268099D03*
X0161328Y0265580D03*
X0161643Y0265422D03*
X0161957Y0265265D03*
X0186524Y0247312D03*
D24*
X0160383Y0305973D03*
X0157233Y0327548D03*
X0163060Y0132430D03*
X0163217Y0132430D03*
X0181800Y0122351D03*
X0163375Y0111957D03*
X0163217Y0111957D03*
X0163060Y0111957D03*
D25*
X0164477Y0112036D03*
X0164635Y0112036D03*
X0180540Y0122272D03*
X0164477Y0132351D03*
X0160225Y0307469D03*
X0157233Y0312036D03*
D26*
X0157706Y0308335D03*
X0160383Y0321406D03*
X0157391Y0328178D03*
X0162272Y0132430D03*
X0162430Y0132430D03*
X0162587Y0132430D03*
X0162430Y0111957D03*
X0182430Y0122351D03*
X0182587Y0122351D03*
D27*
X0157391Y0310619D03*
D28*
X0158020Y0306446D03*
X0157548Y0328650D03*
X0196918Y0287548D03*
X0194556Y0279044D03*
X0161800Y0132430D03*
X0161643Y0132430D03*
X0161643Y0111957D03*
X0183060Y0122351D03*
X0183217Y0122351D03*
X0183375Y0122351D03*
D29*
X0181643Y0122272D03*
X0163375Y0132351D03*
X0157548Y0309517D03*
D30*
X0158493Y0303690D03*
X0161170Y0300698D03*
X0160698Y0322272D03*
X0157706Y0329044D03*
X0194871Y0295658D03*
X0194083Y0277863D03*
X0193926Y0277548D03*
X0162745Y0229989D03*
X0162745Y0210304D03*
X0169831Y0210304D03*
X0162745Y0202745D03*
X0162745Y0187312D03*
X0180225Y0167469D03*
X0169674Y0115816D03*
X0169359Y0115658D03*
X0167942Y0115028D03*
X0167627Y0114871D03*
X0167312Y0114713D03*
X0166997Y0114556D03*
X0166209Y0114241D03*
X0165894Y0114083D03*
X0161170Y0111879D03*
X0161013Y0111879D03*
X0162745Y0097076D03*
X0180225Y0077233D03*
X0180225Y0069989D03*
X0162745Y0051249D03*
D31*
X0180225Y0051328D03*
X0180068Y0031170D03*
X0162902Y0031170D03*
X0165580Y0114005D03*
X0165737Y0114005D03*
X0166052Y0114162D03*
X0166367Y0114320D03*
X0166524Y0114320D03*
X0166682Y0114477D03*
X0166839Y0114477D03*
X0167154Y0114635D03*
X0167469Y0114792D03*
X0167784Y0114950D03*
X0168099Y0115107D03*
X0168257Y0115107D03*
X0168414Y0115265D03*
X0168572Y0115265D03*
X0168729Y0115422D03*
X0168887Y0115422D03*
X0169044Y0115580D03*
X0169202Y0115580D03*
X0169517Y0115737D03*
X0169831Y0115894D03*
X0169989Y0115894D03*
X0170146Y0116052D03*
X0170304Y0116052D03*
X0170461Y0116209D03*
X0170619Y0116209D03*
X0170776Y0116367D03*
X0170934Y0116367D03*
X0171091Y0116524D03*
X0171249Y0116524D03*
X0171406Y0116524D03*
X0171564Y0116682D03*
X0171721Y0116682D03*
X0171879Y0116839D03*
X0172036Y0116839D03*
X0172194Y0116997D03*
X0172351Y0116997D03*
X0172509Y0117154D03*
X0172666Y0117154D03*
X0172824Y0117312D03*
X0172981Y0117312D03*
X0173139Y0117312D03*
X0173296Y0117469D03*
X0173454Y0117469D03*
X0173611Y0117627D03*
X0173769Y0117627D03*
X0173926Y0117784D03*
X0174083Y0117784D03*
X0174241Y0117942D03*
X0174398Y0117942D03*
X0174713Y0118099D03*
X0175028Y0118257D03*
X0175343Y0118414D03*
X0175501Y0118414D03*
X0175658Y0118572D03*
X0175816Y0118572D03*
X0175973Y0118729D03*
X0176131Y0118729D03*
X0176446Y0118887D03*
X0176761Y0119044D03*
X0177076Y0119202D03*
X0177233Y0119202D03*
X0177391Y0119359D03*
X0177548Y0119359D03*
X0177706Y0119517D03*
X0177863Y0119517D03*
X0178178Y0119674D03*
X0178493Y0119831D03*
X0178808Y0119989D03*
X0179123Y0120146D03*
X0179280Y0120146D03*
X0161013Y0132430D03*
X0160855Y0132430D03*
X0180225Y0160146D03*
X0180225Y0210225D03*
X0169674Y0210068D03*
X0173296Y0230225D03*
X0180225Y0230068D03*
X0158650Y0302824D03*
X0157863Y0329280D03*
D32*
X0157863Y0307391D03*
X0160698Y0303769D03*
X0195186Y0294477D03*
X0194713Y0279517D03*
X0162115Y0132430D03*
X0161957Y0132430D03*
X0162115Y0111957D03*
X0182745Y0122351D03*
X0182902Y0122351D03*
D33*
X0179123Y0124556D03*
X0178335Y0124871D03*
X0178020Y0125028D03*
X0176918Y0125501D03*
X0176131Y0125816D03*
X0175816Y0125973D03*
X0175028Y0126288D03*
X0174713Y0126446D03*
X0173611Y0126918D03*
X0172509Y0127391D03*
X0169202Y0135894D03*
X0169517Y0136052D03*
X0170304Y0136367D03*
X0171091Y0136682D03*
X0171879Y0136997D03*
X0168729Y0135737D03*
X0168414Y0135580D03*
X0168257Y0135580D03*
X0167942Y0135422D03*
X0167627Y0135265D03*
X0167469Y0135265D03*
X0167154Y0135107D03*
X0166839Y0134950D03*
X0166682Y0134950D03*
X0166367Y0134792D03*
X0166052Y0134635D03*
X0165894Y0134635D03*
X0165580Y0134477D03*
X0160540Y0132430D03*
X0160540Y0111800D03*
X0163060Y0097469D03*
X0162902Y0097312D03*
X0163060Y0051643D03*
X0179910Y0051643D03*
X0179753Y0031013D03*
X0163217Y0031013D03*
X0180068Y0160304D03*
X0179910Y0160461D03*
X0162902Y0187548D03*
X0163060Y0187706D03*
X0162902Y0202981D03*
X0163060Y0203139D03*
X0163060Y0209910D03*
X0169517Y0209910D03*
X0179910Y0209910D03*
X0179910Y0230383D03*
X0173454Y0230383D03*
X0163060Y0230383D03*
X0173926Y0257469D03*
X0193454Y0276524D03*
X0193611Y0276839D03*
X0161643Y0298099D03*
X0161485Y0299044D03*
X0161328Y0299831D03*
X0158965Y0301406D03*
X0158020Y0329595D03*
D34*
X0158178Y0329753D03*
X0158335Y0329910D03*
X0161170Y0323139D03*
X0159438Y0299044D03*
X0161957Y0296524D03*
X0192824Y0275422D03*
X0192981Y0275580D03*
X0192666Y0275107D03*
X0174713Y0255894D03*
X0175028Y0255422D03*
X0175343Y0254792D03*
X0174083Y0230698D03*
X0173926Y0230698D03*
X0173769Y0230540D03*
X0179438Y0230698D03*
X0163690Y0230698D03*
X0163532Y0230698D03*
X0163375Y0230540D03*
X0163375Y0209753D03*
X0163532Y0209595D03*
X0163690Y0209595D03*
X0168887Y0209595D03*
X0169044Y0209595D03*
X0169202Y0209753D03*
X0163690Y0203454D03*
X0163375Y0203296D03*
X0163375Y0187863D03*
X0179438Y0166918D03*
X0179595Y0160619D03*
X0183217Y0141564D03*
X0183375Y0141564D03*
X0183060Y0141406D03*
X0182902Y0141406D03*
X0182587Y0141249D03*
X0182430Y0141249D03*
X0182115Y0141091D03*
X0181800Y0140934D03*
X0181643Y0140934D03*
X0181328Y0140776D03*
X0181013Y0140619D03*
X0180855Y0140619D03*
X0180540Y0140461D03*
X0180225Y0140304D03*
X0180068Y0140304D03*
X0179753Y0140146D03*
X0179438Y0139989D03*
X0178965Y0139831D03*
X0178650Y0139674D03*
X0178178Y0139517D03*
X0177863Y0139359D03*
X0177391Y0139202D03*
X0177076Y0139044D03*
X0176603Y0138887D03*
X0175816Y0138572D03*
X0174241Y0137942D03*
X0160225Y0132430D03*
X0160068Y0132430D03*
X0160225Y0111800D03*
X0165894Y0109753D03*
X0166682Y0109438D03*
X0167154Y0109280D03*
X0167469Y0109123D03*
X0167942Y0108965D03*
X0168414Y0108808D03*
X0168729Y0108650D03*
X0169202Y0108493D03*
X0169517Y0108335D03*
X0169674Y0108335D03*
X0169989Y0108178D03*
X0170461Y0108020D03*
X0170776Y0107863D03*
X0170934Y0107863D03*
X0171249Y0107706D03*
X0171721Y0107548D03*
X0172036Y0107391D03*
X0172509Y0107233D03*
X0172981Y0107076D03*
X0173296Y0106918D03*
X0173769Y0106761D03*
X0174083Y0106603D03*
X0174241Y0106603D03*
X0174556Y0106446D03*
X0175028Y0106288D03*
X0175343Y0106131D03*
X0175501Y0106131D03*
X0175816Y0105973D03*
X0176288Y0105816D03*
X0176603Y0105658D03*
X0176761Y0105658D03*
X0177076Y0105501D03*
X0177391Y0105343D03*
X0177548Y0105343D03*
X0177863Y0105186D03*
X0178335Y0105028D03*
X0178650Y0104871D03*
X0178808Y0104871D03*
X0179123Y0104713D03*
X0179280Y0104713D03*
X0179595Y0104556D03*
X0179910Y0104398D03*
X0180068Y0104398D03*
X0180383Y0104241D03*
X0180855Y0104083D03*
X0181170Y0103926D03*
X0181328Y0103926D03*
X0181643Y0103769D03*
X0181957Y0103611D03*
X0182115Y0103611D03*
X0182430Y0103454D03*
X0182587Y0103454D03*
X0182902Y0103296D03*
X0183217Y0103139D03*
X0183375Y0103139D03*
X0163375Y0097627D03*
X0179438Y0076682D03*
X0179438Y0070540D03*
X0179595Y0070540D03*
X0179438Y0051957D03*
X0179280Y0051957D03*
X0179595Y0051800D03*
X0163690Y0051957D03*
X0163532Y0051957D03*
X0163375Y0051800D03*
X0163532Y0030855D03*
X0163690Y0030855D03*
X0179438Y0030855D03*
X0179438Y0209595D03*
X0179280Y0209595D03*
X0179595Y0209753D03*
X0194556Y0296682D03*
D35*
X0195028Y0295028D03*
X0194398Y0278650D03*
X0158335Y0304635D03*
X0158178Y0305580D03*
X0159123Y0316288D03*
X0160540Y0321957D03*
X0161485Y0132509D03*
X0161485Y0111879D03*
X0162745Y0031406D03*
D36*
X0162745Y0070698D03*
X0162902Y0070698D03*
X0163060Y0070698D03*
X0163217Y0070698D03*
X0163375Y0070698D03*
X0163532Y0070698D03*
X0163690Y0070698D03*
X0163847Y0070698D03*
X0164005Y0070698D03*
X0164162Y0070698D03*
X0164320Y0070698D03*
X0164477Y0070698D03*
X0164635Y0070698D03*
X0164792Y0070698D03*
X0164950Y0070698D03*
X0165107Y0070698D03*
X0165265Y0070698D03*
X0165422Y0070698D03*
X0165580Y0070698D03*
X0165737Y0070698D03*
X0165894Y0070698D03*
X0166052Y0070698D03*
X0166209Y0070698D03*
X0166367Y0070698D03*
X0166524Y0070698D03*
X0166682Y0070698D03*
X0166839Y0070698D03*
X0166997Y0070698D03*
X0167154Y0070698D03*
X0167312Y0070698D03*
X0167469Y0070698D03*
X0167627Y0070698D03*
X0167784Y0070698D03*
X0167942Y0070698D03*
X0168099Y0070698D03*
X0168257Y0070698D03*
X0168414Y0070698D03*
X0168572Y0070698D03*
X0168729Y0070698D03*
X0168887Y0070698D03*
X0169044Y0070698D03*
X0169202Y0070698D03*
X0169359Y0070698D03*
X0169517Y0070698D03*
X0169674Y0070698D03*
X0169831Y0070698D03*
X0169989Y0070698D03*
X0170146Y0070698D03*
X0170304Y0070698D03*
X0170461Y0070698D03*
X0170619Y0070698D03*
X0170776Y0070698D03*
X0170934Y0070698D03*
X0171091Y0070698D03*
X0171249Y0070698D03*
X0171406Y0070698D03*
X0171564Y0070698D03*
X0171721Y0070698D03*
X0171879Y0070698D03*
X0172036Y0070698D03*
X0172194Y0070698D03*
X0172351Y0070698D03*
X0172509Y0070698D03*
X0172666Y0070698D03*
X0172824Y0070698D03*
X0172981Y0070698D03*
X0173139Y0070698D03*
X0173296Y0070698D03*
X0173454Y0070698D03*
X0173611Y0070698D03*
X0173769Y0070698D03*
X0173926Y0070698D03*
X0174083Y0070698D03*
X0174241Y0070698D03*
X0174398Y0070698D03*
X0174556Y0070698D03*
X0174713Y0070698D03*
X0174871Y0070698D03*
X0175028Y0070698D03*
X0175186Y0070698D03*
X0175343Y0070698D03*
X0175501Y0070698D03*
X0175658Y0070698D03*
X0175816Y0070698D03*
X0175973Y0070698D03*
X0176131Y0070698D03*
X0176288Y0070698D03*
X0176446Y0070698D03*
X0176603Y0070698D03*
X0176761Y0070698D03*
X0176918Y0070698D03*
X0177076Y0070698D03*
X0177233Y0070698D03*
X0177391Y0070698D03*
X0177548Y0070698D03*
X0177706Y0070698D03*
X0177863Y0070698D03*
X0178020Y0070698D03*
X0178178Y0070698D03*
X0178335Y0070698D03*
X0178493Y0070698D03*
X0178650Y0070698D03*
X0178808Y0070698D03*
X0178808Y0076524D03*
X0178650Y0076524D03*
X0178493Y0076524D03*
X0178335Y0076524D03*
X0178178Y0076524D03*
X0178020Y0076524D03*
X0177863Y0076524D03*
X0177706Y0076524D03*
X0177548Y0076524D03*
X0177391Y0076524D03*
X0177233Y0076524D03*
X0177076Y0076524D03*
X0176918Y0076524D03*
X0176761Y0076524D03*
X0176603Y0076524D03*
X0176446Y0076524D03*
X0176288Y0076524D03*
X0176131Y0076524D03*
X0175973Y0076524D03*
X0175816Y0076524D03*
X0175658Y0076524D03*
X0175501Y0076524D03*
X0175343Y0076524D03*
X0175186Y0076524D03*
X0175028Y0076524D03*
X0174871Y0076524D03*
X0174713Y0076524D03*
X0174556Y0076524D03*
X0174398Y0076524D03*
X0174241Y0076524D03*
X0174083Y0076524D03*
X0173926Y0076524D03*
X0173769Y0076524D03*
X0173611Y0076524D03*
X0173454Y0076524D03*
X0173296Y0076524D03*
X0173139Y0076524D03*
X0169831Y0076524D03*
X0169674Y0076524D03*
X0169517Y0076524D03*
X0169359Y0076524D03*
X0169202Y0076524D03*
X0169044Y0076524D03*
X0168887Y0076524D03*
X0168729Y0076524D03*
X0168572Y0076524D03*
X0168414Y0076524D03*
X0168257Y0076524D03*
X0168099Y0076524D03*
X0167942Y0076524D03*
X0167784Y0076524D03*
X0167627Y0076524D03*
X0167469Y0076524D03*
X0167312Y0076524D03*
X0167154Y0076524D03*
X0166997Y0076524D03*
X0166839Y0076524D03*
X0166682Y0076524D03*
X0166524Y0076524D03*
X0166367Y0076524D03*
X0166209Y0076524D03*
X0166052Y0076524D03*
X0165894Y0076524D03*
X0165737Y0076524D03*
X0165580Y0076524D03*
X0165422Y0076524D03*
X0165265Y0076524D03*
X0165107Y0076524D03*
X0164950Y0076524D03*
X0164792Y0076524D03*
X0164635Y0076524D03*
X0164477Y0076524D03*
X0164320Y0076524D03*
X0164162Y0076524D03*
X0164005Y0076524D03*
X0163847Y0076524D03*
X0163690Y0076524D03*
X0163532Y0076524D03*
X0163375Y0076524D03*
X0163217Y0076524D03*
X0163060Y0076524D03*
X0162902Y0076524D03*
X0162745Y0076524D03*
X0162587Y0070698D03*
X0162430Y0070698D03*
X0162272Y0070698D03*
X0162115Y0070698D03*
X0161957Y0070698D03*
X0161800Y0070698D03*
X0161643Y0070698D03*
X0161485Y0070698D03*
X0161328Y0070698D03*
X0161170Y0070698D03*
X0161013Y0070698D03*
X0160855Y0070698D03*
X0160698Y0070698D03*
X0160540Y0070698D03*
X0160383Y0070698D03*
X0160225Y0070698D03*
X0160068Y0070698D03*
X0159910Y0070698D03*
X0159753Y0070698D03*
X0159595Y0070698D03*
X0159438Y0070698D03*
X0159753Y0111800D03*
X0159753Y0132430D03*
X0162745Y0166761D03*
X0162902Y0166761D03*
X0163060Y0166761D03*
X0163217Y0166761D03*
X0163375Y0166761D03*
X0163532Y0166761D03*
X0163690Y0166761D03*
X0163847Y0166761D03*
X0164005Y0166761D03*
X0164162Y0166761D03*
X0164320Y0166761D03*
X0164477Y0166761D03*
X0164635Y0166761D03*
X0164792Y0166761D03*
X0164950Y0166761D03*
X0165107Y0166761D03*
X0165265Y0166761D03*
X0165422Y0166761D03*
X0165580Y0166761D03*
X0165737Y0166761D03*
X0165894Y0166761D03*
X0166052Y0166761D03*
X0166209Y0166761D03*
X0166367Y0166761D03*
X0166524Y0166761D03*
X0166682Y0166761D03*
X0166839Y0166761D03*
X0166997Y0166761D03*
X0167154Y0166761D03*
X0167312Y0166761D03*
X0167469Y0166761D03*
X0167627Y0166761D03*
X0167784Y0166761D03*
X0167942Y0166761D03*
X0168099Y0166761D03*
X0168257Y0166761D03*
X0168414Y0166761D03*
X0168572Y0166761D03*
X0168729Y0166761D03*
X0168887Y0166761D03*
X0169044Y0166761D03*
X0169202Y0166761D03*
X0169359Y0166761D03*
X0169517Y0166761D03*
X0169674Y0166761D03*
X0169831Y0166761D03*
X0173139Y0166761D03*
X0173296Y0166761D03*
X0173454Y0166761D03*
X0173611Y0166761D03*
X0173769Y0166761D03*
X0173926Y0166761D03*
X0174083Y0166761D03*
X0174241Y0166761D03*
X0174398Y0166761D03*
X0174556Y0166761D03*
X0174713Y0166761D03*
X0174871Y0166761D03*
X0175028Y0166761D03*
X0175186Y0166761D03*
X0175343Y0166761D03*
X0175501Y0166761D03*
X0175658Y0166761D03*
X0175816Y0166761D03*
X0175973Y0166761D03*
X0176131Y0166761D03*
X0176288Y0166761D03*
X0176446Y0166761D03*
X0176603Y0166761D03*
X0176761Y0166761D03*
X0176918Y0166761D03*
X0177076Y0166761D03*
X0177233Y0166761D03*
X0177391Y0166761D03*
X0177548Y0166761D03*
X0177706Y0166761D03*
X0177863Y0166761D03*
X0178020Y0166761D03*
X0178178Y0166761D03*
X0178335Y0166761D03*
X0178493Y0166761D03*
X0178650Y0166761D03*
X0178493Y0230855D03*
X0178335Y0230855D03*
X0178178Y0230855D03*
X0178020Y0230855D03*
X0177863Y0230855D03*
X0177706Y0230855D03*
X0177548Y0230855D03*
X0177391Y0230855D03*
X0177233Y0230855D03*
X0177076Y0230855D03*
X0176918Y0230855D03*
X0176761Y0230855D03*
X0176603Y0230855D03*
X0176446Y0230855D03*
X0176288Y0230855D03*
X0176131Y0230855D03*
X0175973Y0230855D03*
X0175816Y0230855D03*
X0175658Y0230855D03*
X0175501Y0230855D03*
X0175343Y0230855D03*
X0175186Y0230855D03*
X0175028Y0230855D03*
X0174871Y0230855D03*
X0176131Y0253375D03*
X0175973Y0253690D03*
X0175816Y0253847D03*
X0175658Y0254162D03*
X0175501Y0254477D03*
X0162587Y0293532D03*
X0162115Y0295737D03*
X0160225Y0295580D03*
X0160383Y0294950D03*
X0161328Y0323296D03*
X0158493Y0330068D03*
X0194083Y0297784D03*
D37*
X0193926Y0298178D03*
X0192036Y0274083D03*
X0191879Y0273926D03*
X0191721Y0273611D03*
X0191564Y0273454D03*
X0191406Y0273296D03*
X0191091Y0272824D03*
X0176288Y0252981D03*
X0176446Y0252824D03*
X0176603Y0252509D03*
X0176918Y0252036D03*
X0163375Y0290146D03*
X0161170Y0291721D03*
X0161013Y0292351D03*
X0160698Y0293611D03*
X0160540Y0294241D03*
X0162745Y0292824D03*
X0158650Y0330146D03*
X0158808Y0330304D03*
X0159438Y0132509D03*
X0159595Y0132509D03*
X0159595Y0111879D03*
D38*
X0160698Y0111879D03*
X0160855Y0111879D03*
X0174556Y0118020D03*
X0174871Y0118178D03*
X0175186Y0118335D03*
X0176288Y0118808D03*
X0176603Y0118965D03*
X0176918Y0119123D03*
X0178020Y0119595D03*
X0178335Y0119753D03*
X0178650Y0119910D03*
X0178965Y0120068D03*
X0179438Y0120225D03*
X0179438Y0124320D03*
X0179280Y0124477D03*
X0178965Y0124635D03*
X0178808Y0124635D03*
X0178650Y0124792D03*
X0178493Y0124792D03*
X0178178Y0124950D03*
X0177863Y0125107D03*
X0177706Y0125107D03*
X0177548Y0125265D03*
X0177391Y0125265D03*
X0177233Y0125422D03*
X0177076Y0125422D03*
X0176761Y0125580D03*
X0176603Y0125580D03*
X0176446Y0125737D03*
X0176288Y0125737D03*
X0175973Y0125894D03*
X0175658Y0126052D03*
X0175501Y0126052D03*
X0175343Y0126209D03*
X0175186Y0126209D03*
X0174871Y0126367D03*
X0174556Y0126524D03*
X0174398Y0126524D03*
X0174241Y0126682D03*
X0174083Y0126682D03*
X0173926Y0126839D03*
X0173769Y0126839D03*
X0173454Y0126997D03*
X0173296Y0126997D03*
X0173139Y0127154D03*
X0172981Y0127154D03*
X0172824Y0127312D03*
X0172666Y0127312D03*
X0172351Y0127469D03*
X0172194Y0127469D03*
X0172036Y0127627D03*
X0171879Y0127627D03*
X0171721Y0127784D03*
X0171564Y0127784D03*
X0171406Y0127942D03*
X0171249Y0127942D03*
X0171091Y0127942D03*
X0170934Y0128099D03*
X0170776Y0128099D03*
X0170619Y0128257D03*
X0170461Y0128257D03*
X0170304Y0128414D03*
X0170146Y0128414D03*
X0169989Y0128414D03*
X0169831Y0128572D03*
X0169674Y0128572D03*
X0169517Y0128729D03*
X0169359Y0128729D03*
X0169202Y0128887D03*
X0169044Y0128887D03*
X0168887Y0128887D03*
X0168729Y0129044D03*
X0168572Y0129044D03*
X0168414Y0129202D03*
X0168257Y0129202D03*
X0168099Y0129359D03*
X0167942Y0129359D03*
X0167784Y0129359D03*
X0167627Y0129517D03*
X0167469Y0129517D03*
X0167312Y0129674D03*
X0167154Y0129674D03*
X0166997Y0129831D03*
X0166839Y0129831D03*
X0166682Y0129831D03*
X0166524Y0129989D03*
X0166367Y0129989D03*
X0166209Y0130146D03*
X0166052Y0130146D03*
X0165894Y0130304D03*
X0165737Y0130304D03*
X0165580Y0130304D03*
X0160698Y0132509D03*
X0180068Y0167312D03*
X0180068Y0209989D03*
X0162902Y0209989D03*
X0162902Y0230304D03*
X0180068Y0230304D03*
X0193769Y0277233D03*
X0194713Y0296131D03*
X0160855Y0322587D03*
X0158808Y0302115D03*
X0159123Y0300540D03*
X0180068Y0077076D03*
X0180068Y0070146D03*
X0180068Y0051564D03*
X0162902Y0051564D03*
X0163060Y0031091D03*
X0179910Y0031091D03*
D39*
X0159438Y0111800D03*
X0177233Y0251485D03*
X0176761Y0252272D03*
X0190776Y0272430D03*
X0190934Y0272587D03*
X0191249Y0273060D03*
X0163532Y0289438D03*
X0163217Y0290855D03*
X0163060Y0291485D03*
X0162902Y0292115D03*
X0161328Y0291170D03*
X0161485Y0290540D03*
X0161643Y0289910D03*
X0161800Y0289280D03*
X0161957Y0288808D03*
X0161485Y0323454D03*
X0161643Y0323611D03*
X0158965Y0330383D03*
D40*
X0159123Y0330383D03*
X0161957Y0323769D03*
X0193454Y0299202D03*
X0163847Y0288178D03*
X0164005Y0287548D03*
X0164320Y0286288D03*
X0164477Y0285816D03*
X0164635Y0285186D03*
X0164950Y0283926D03*
X0165265Y0282981D03*
X0163375Y0283769D03*
X0163060Y0284871D03*
X0162902Y0285343D03*
X0162115Y0288178D03*
X0189517Y0271013D03*
X0189674Y0271170D03*
X0189831Y0271328D03*
X0189989Y0271485D03*
X0190146Y0271643D03*
X0177548Y0251013D03*
X0177863Y0250540D03*
X0178178Y0250068D03*
D41*
X0178020Y0250304D03*
X0178335Y0249831D03*
X0178493Y0249674D03*
X0178650Y0249359D03*
X0170304Y0264005D03*
X0165265Y0277706D03*
X0164950Y0278650D03*
X0164477Y0280225D03*
X0164320Y0280698D03*
X0164162Y0281170D03*
X0163690Y0282745D03*
X0163532Y0283217D03*
X0163217Y0284320D03*
X0164792Y0284635D03*
X0165894Y0280698D03*
X0166052Y0280225D03*
X0188414Y0269831D03*
X0188572Y0269989D03*
X0188729Y0270146D03*
X0188887Y0270304D03*
X0189044Y0270461D03*
X0189202Y0270619D03*
X0189359Y0270776D03*
X0193296Y0299438D03*
X0193139Y0299753D03*
X0162272Y0323847D03*
X0162115Y0323847D03*
X0159438Y0330461D03*
X0159280Y0330461D03*
D42*
X0159280Y0316052D03*
D43*
X0161013Y0322902D03*
X0159280Y0299753D03*
X0159910Y0296918D03*
X0161800Y0297233D03*
X0193296Y0276288D03*
X0193139Y0275973D03*
X0174083Y0257233D03*
X0174241Y0256918D03*
X0174398Y0256603D03*
X0174556Y0256288D03*
X0174871Y0255658D03*
X0173611Y0230461D03*
X0179595Y0230619D03*
X0179753Y0230461D03*
X0163217Y0230461D03*
X0163217Y0209831D03*
X0169359Y0209831D03*
X0163217Y0203217D03*
X0163217Y0187784D03*
X0179595Y0166997D03*
X0179753Y0166997D03*
X0179910Y0167154D03*
X0179753Y0160540D03*
X0183532Y0141643D03*
X0182745Y0141328D03*
X0182272Y0141170D03*
X0181957Y0141013D03*
X0181485Y0140855D03*
X0181170Y0140698D03*
X0180698Y0140540D03*
X0180383Y0140383D03*
X0179910Y0140225D03*
X0179595Y0140068D03*
X0179280Y0139910D03*
X0179123Y0139910D03*
X0178808Y0139753D03*
X0178493Y0139595D03*
X0178335Y0139595D03*
X0178020Y0139438D03*
X0177706Y0139280D03*
X0177548Y0139280D03*
X0177233Y0139123D03*
X0176918Y0138965D03*
X0176761Y0138965D03*
X0176446Y0138808D03*
X0176288Y0138808D03*
X0176131Y0138650D03*
X0175973Y0138650D03*
X0175658Y0138493D03*
X0175501Y0138493D03*
X0175343Y0138335D03*
X0175186Y0138335D03*
X0175028Y0138178D03*
X0174871Y0138178D03*
X0174713Y0138178D03*
X0174556Y0138020D03*
X0174398Y0138020D03*
X0174083Y0137863D03*
X0173926Y0137863D03*
X0173769Y0137706D03*
X0173611Y0137706D03*
X0173454Y0137548D03*
X0173296Y0137548D03*
X0173139Y0137548D03*
X0172981Y0137391D03*
X0172824Y0137391D03*
X0172666Y0137233D03*
X0172509Y0137233D03*
X0172351Y0137233D03*
X0172194Y0137076D03*
X0172036Y0137076D03*
X0171721Y0136918D03*
X0171564Y0136918D03*
X0171406Y0136761D03*
X0171249Y0136761D03*
X0170934Y0136603D03*
X0170776Y0136603D03*
X0170619Y0136446D03*
X0170461Y0136446D03*
X0170146Y0136288D03*
X0169989Y0136288D03*
X0169831Y0136131D03*
X0169674Y0136131D03*
X0169359Y0135973D03*
X0169044Y0135816D03*
X0168887Y0135816D03*
X0168572Y0135658D03*
X0168099Y0135501D03*
X0167784Y0135343D03*
X0167312Y0135186D03*
X0166997Y0135028D03*
X0166524Y0134871D03*
X0166209Y0134713D03*
X0165737Y0134556D03*
X0160383Y0132509D03*
X0160383Y0111879D03*
X0165580Y0109831D03*
X0165737Y0109831D03*
X0166052Y0109674D03*
X0166209Y0109674D03*
X0166367Y0109517D03*
X0166524Y0109517D03*
X0166839Y0109359D03*
X0166997Y0109359D03*
X0167312Y0109202D03*
X0167627Y0109044D03*
X0167784Y0109044D03*
X0168099Y0108887D03*
X0168257Y0108887D03*
X0168572Y0108729D03*
X0168887Y0108572D03*
X0169044Y0108572D03*
X0169359Y0108414D03*
X0169831Y0108257D03*
X0170146Y0108099D03*
X0170304Y0108099D03*
X0170619Y0107942D03*
X0171091Y0107784D03*
X0171406Y0107627D03*
X0171564Y0107627D03*
X0171879Y0107469D03*
X0172194Y0107312D03*
X0172351Y0107312D03*
X0172666Y0107154D03*
X0172824Y0107154D03*
X0173139Y0106997D03*
X0173454Y0106839D03*
X0173611Y0106839D03*
X0173926Y0106682D03*
X0174398Y0106524D03*
X0174713Y0106367D03*
X0174871Y0106367D03*
X0175186Y0106209D03*
X0175658Y0106052D03*
X0175973Y0105894D03*
X0176131Y0105894D03*
X0176446Y0105737D03*
X0176918Y0105580D03*
X0177233Y0105422D03*
X0177706Y0105265D03*
X0178020Y0105107D03*
X0178178Y0105107D03*
X0178493Y0104950D03*
X0178965Y0104792D03*
X0179438Y0104635D03*
X0179753Y0104477D03*
X0180225Y0104320D03*
X0180540Y0104162D03*
X0180698Y0104162D03*
X0181013Y0104005D03*
X0181485Y0103847D03*
X0181800Y0103690D03*
X0182272Y0103532D03*
X0182745Y0103375D03*
X0183060Y0103217D03*
X0183532Y0103060D03*
X0163217Y0097548D03*
X0179595Y0076761D03*
X0179753Y0076761D03*
X0179910Y0076918D03*
X0179753Y0070461D03*
X0179910Y0070304D03*
X0179753Y0051721D03*
X0163217Y0051721D03*
X0163375Y0030934D03*
X0179595Y0030934D03*
X0179753Y0209831D03*
D44*
X0159438Y0315658D03*
D45*
X0195816Y0287548D03*
X0159438Y0220146D03*
X0183217Y0151643D03*
X0183217Y0061406D03*
D46*
X0159438Y0195973D03*
X0196603Y0287469D03*
D47*
X0159438Y0175186D03*
X0159438Y0039123D03*
D48*
X0163847Y0030776D03*
X0164005Y0030776D03*
X0164162Y0030776D03*
X0164320Y0030776D03*
X0164477Y0030776D03*
X0164635Y0030776D03*
X0164792Y0030776D03*
X0164950Y0030776D03*
X0165107Y0030776D03*
X0165265Y0030776D03*
X0165422Y0030776D03*
X0165580Y0030776D03*
X0165737Y0030776D03*
X0165894Y0030776D03*
X0166052Y0030776D03*
X0166209Y0030776D03*
X0166367Y0030776D03*
X0166524Y0030776D03*
X0166682Y0030776D03*
X0166839Y0030776D03*
X0166997Y0030776D03*
X0167154Y0030776D03*
X0167312Y0030776D03*
X0167469Y0030776D03*
X0167627Y0030776D03*
X0167784Y0030776D03*
X0167942Y0030776D03*
X0168099Y0030776D03*
X0168257Y0030776D03*
X0168414Y0030776D03*
X0168572Y0030776D03*
X0168729Y0030776D03*
X0168887Y0030776D03*
X0169044Y0030776D03*
X0169202Y0030776D03*
X0169359Y0030776D03*
X0169517Y0030776D03*
X0169674Y0030776D03*
X0169831Y0030776D03*
X0169989Y0030776D03*
X0170146Y0030776D03*
X0170304Y0030776D03*
X0170461Y0030776D03*
X0170619Y0030776D03*
X0170776Y0030776D03*
X0170934Y0030776D03*
X0171091Y0030776D03*
X0171249Y0030776D03*
X0171406Y0030776D03*
X0171564Y0030776D03*
X0171721Y0030776D03*
X0171879Y0030776D03*
X0172036Y0030776D03*
X0172194Y0030776D03*
X0172351Y0030776D03*
X0172509Y0030776D03*
X0172666Y0030776D03*
X0172824Y0030776D03*
X0172981Y0030776D03*
X0173139Y0030776D03*
X0173296Y0030776D03*
X0173454Y0030776D03*
X0173611Y0030776D03*
X0173769Y0030776D03*
X0173926Y0030776D03*
X0174083Y0030776D03*
X0174241Y0030776D03*
X0174398Y0030776D03*
X0174556Y0030776D03*
X0174713Y0030776D03*
X0174871Y0030776D03*
X0175028Y0030776D03*
X0175186Y0030776D03*
X0175343Y0030776D03*
X0175501Y0030776D03*
X0175658Y0030776D03*
X0175816Y0030776D03*
X0175973Y0030776D03*
X0176131Y0030776D03*
X0176288Y0030776D03*
X0176446Y0030776D03*
X0176603Y0030776D03*
X0176761Y0030776D03*
X0176918Y0030776D03*
X0177076Y0030776D03*
X0177233Y0030776D03*
X0177391Y0030776D03*
X0177548Y0030776D03*
X0177706Y0030776D03*
X0177863Y0030776D03*
X0178020Y0030776D03*
X0178178Y0030776D03*
X0178335Y0030776D03*
X0178493Y0030776D03*
X0178650Y0030776D03*
X0178808Y0030776D03*
X0178965Y0030776D03*
X0179123Y0030776D03*
X0179280Y0030776D03*
X0183690Y0030776D03*
X0183847Y0030776D03*
X0184005Y0030776D03*
X0184162Y0030776D03*
X0184320Y0030776D03*
X0184477Y0030776D03*
X0184635Y0030776D03*
X0184792Y0030776D03*
X0184950Y0030776D03*
X0185107Y0030776D03*
X0185265Y0030776D03*
X0185422Y0030776D03*
X0185580Y0030776D03*
X0185737Y0030776D03*
X0185894Y0030776D03*
X0186052Y0030776D03*
X0186209Y0030776D03*
X0186367Y0030776D03*
X0186524Y0030776D03*
X0186682Y0030776D03*
X0186839Y0030776D03*
X0186997Y0030776D03*
X0187154Y0030776D03*
X0187312Y0030776D03*
X0187469Y0030776D03*
X0187627Y0030776D03*
X0187784Y0030776D03*
X0187942Y0030776D03*
X0188099Y0030776D03*
X0188257Y0030776D03*
X0188414Y0030776D03*
X0188572Y0030776D03*
X0188729Y0030776D03*
X0188887Y0030776D03*
X0189044Y0030776D03*
X0189202Y0030776D03*
X0189359Y0030776D03*
X0189517Y0030776D03*
X0189674Y0030776D03*
X0189831Y0030776D03*
X0189989Y0030776D03*
X0190146Y0030776D03*
X0190304Y0030776D03*
X0190461Y0030776D03*
X0190619Y0030776D03*
X0190776Y0030776D03*
X0190934Y0030776D03*
X0191091Y0030776D03*
X0191249Y0030776D03*
X0191406Y0030776D03*
X0179123Y0052036D03*
X0178965Y0052036D03*
X0178808Y0052036D03*
X0178650Y0052036D03*
X0178493Y0052036D03*
X0178335Y0052036D03*
X0178178Y0052036D03*
X0178020Y0052036D03*
X0177863Y0052036D03*
X0177706Y0052036D03*
X0177548Y0052036D03*
X0177391Y0052036D03*
X0177233Y0052036D03*
X0177076Y0052036D03*
X0176918Y0052036D03*
X0176761Y0052036D03*
X0176603Y0052036D03*
X0176446Y0052036D03*
X0176288Y0052036D03*
X0176131Y0052036D03*
X0175973Y0052036D03*
X0175816Y0052036D03*
X0175658Y0052036D03*
X0175501Y0052036D03*
X0175343Y0052036D03*
X0175186Y0052036D03*
X0175028Y0052036D03*
X0174871Y0052036D03*
X0174713Y0052036D03*
X0174556Y0052036D03*
X0174398Y0052036D03*
X0174241Y0052036D03*
X0174083Y0052036D03*
X0173926Y0052036D03*
X0173769Y0052036D03*
X0173611Y0052036D03*
X0173454Y0052036D03*
X0173296Y0052036D03*
X0173139Y0052036D03*
X0172981Y0052036D03*
X0172824Y0052036D03*
X0172666Y0052036D03*
X0172509Y0052036D03*
X0172351Y0052036D03*
X0172194Y0052036D03*
X0172036Y0052036D03*
X0171879Y0052036D03*
X0171721Y0052036D03*
X0171564Y0052036D03*
X0171406Y0052036D03*
X0171249Y0052036D03*
X0171091Y0052036D03*
X0170934Y0052036D03*
X0170776Y0052036D03*
X0170619Y0052036D03*
X0170461Y0052036D03*
X0170304Y0052036D03*
X0170146Y0052036D03*
X0169989Y0052036D03*
X0169831Y0052036D03*
X0169674Y0052036D03*
X0169517Y0052036D03*
X0169359Y0052036D03*
X0169202Y0052036D03*
X0169044Y0052036D03*
X0168887Y0052036D03*
X0168729Y0052036D03*
X0168572Y0052036D03*
X0168414Y0052036D03*
X0168257Y0052036D03*
X0168099Y0052036D03*
X0167942Y0052036D03*
X0167784Y0052036D03*
X0167627Y0052036D03*
X0167469Y0052036D03*
X0167312Y0052036D03*
X0167154Y0052036D03*
X0166997Y0052036D03*
X0166839Y0052036D03*
X0166682Y0052036D03*
X0166524Y0052036D03*
X0166367Y0052036D03*
X0166209Y0052036D03*
X0166052Y0052036D03*
X0165894Y0052036D03*
X0165737Y0052036D03*
X0165580Y0052036D03*
X0165422Y0052036D03*
X0165265Y0052036D03*
X0165107Y0052036D03*
X0164950Y0052036D03*
X0164792Y0052036D03*
X0164635Y0052036D03*
X0164477Y0052036D03*
X0164320Y0052036D03*
X0164162Y0052036D03*
X0164005Y0052036D03*
X0163847Y0052036D03*
X0178965Y0070619D03*
X0179123Y0070619D03*
X0179280Y0070619D03*
X0179280Y0076603D03*
X0179123Y0076603D03*
X0178965Y0076603D03*
X0169831Y0097863D03*
X0169674Y0097863D03*
X0169517Y0097863D03*
X0169359Y0097863D03*
X0169202Y0097863D03*
X0169044Y0097863D03*
X0168887Y0097863D03*
X0168729Y0097863D03*
X0168572Y0097863D03*
X0168414Y0097863D03*
X0168257Y0097863D03*
X0168099Y0097863D03*
X0167942Y0097863D03*
X0167784Y0097863D03*
X0167627Y0097863D03*
X0167469Y0097863D03*
X0167312Y0097863D03*
X0167154Y0097863D03*
X0166997Y0097863D03*
X0166839Y0097863D03*
X0166682Y0097863D03*
X0166524Y0097863D03*
X0166367Y0097863D03*
X0166209Y0097863D03*
X0166052Y0097863D03*
X0165894Y0097863D03*
X0165737Y0097863D03*
X0165580Y0097863D03*
X0165422Y0097863D03*
X0165265Y0097863D03*
X0165107Y0097863D03*
X0164950Y0097863D03*
X0164792Y0097863D03*
X0164635Y0097863D03*
X0164477Y0097863D03*
X0164320Y0097863D03*
X0164162Y0097863D03*
X0164005Y0097863D03*
X0163847Y0097863D03*
X0163690Y0097706D03*
X0163532Y0097706D03*
X0160068Y0111879D03*
X0159910Y0111879D03*
X0159910Y0132509D03*
X0159910Y0160855D03*
X0159753Y0160855D03*
X0159595Y0160855D03*
X0159438Y0160855D03*
X0160068Y0160855D03*
X0160225Y0160855D03*
X0160383Y0160855D03*
X0160540Y0160855D03*
X0160698Y0160855D03*
X0160855Y0160855D03*
X0161013Y0160855D03*
X0161170Y0160855D03*
X0161328Y0160855D03*
X0161485Y0160855D03*
X0161643Y0160855D03*
X0161800Y0160855D03*
X0161957Y0160855D03*
X0162115Y0160855D03*
X0162272Y0160855D03*
X0162430Y0160855D03*
X0162587Y0160855D03*
X0162745Y0160855D03*
X0162902Y0160855D03*
X0163060Y0160855D03*
X0163217Y0160855D03*
X0163375Y0160855D03*
X0163532Y0160855D03*
X0163690Y0160855D03*
X0163847Y0160855D03*
X0164005Y0160855D03*
X0164162Y0160855D03*
X0164320Y0160855D03*
X0164477Y0160855D03*
X0164635Y0160855D03*
X0164792Y0160855D03*
X0164950Y0160855D03*
X0165107Y0160855D03*
X0165265Y0160855D03*
X0165422Y0160855D03*
X0165580Y0160855D03*
X0165737Y0160855D03*
X0165894Y0160855D03*
X0166052Y0160855D03*
X0166209Y0160855D03*
X0166367Y0160855D03*
X0166524Y0160855D03*
X0166682Y0160855D03*
X0166839Y0160855D03*
X0166997Y0160855D03*
X0167154Y0160855D03*
X0167312Y0160855D03*
X0167469Y0160855D03*
X0167627Y0160855D03*
X0167784Y0160855D03*
X0167942Y0160855D03*
X0168099Y0160855D03*
X0168257Y0160855D03*
X0168414Y0160855D03*
X0168572Y0160855D03*
X0168729Y0160855D03*
X0168887Y0160855D03*
X0169044Y0160855D03*
X0169202Y0160855D03*
X0169359Y0160855D03*
X0169517Y0160855D03*
X0169674Y0160855D03*
X0169831Y0160855D03*
X0169989Y0160855D03*
X0170146Y0160855D03*
X0170304Y0160855D03*
X0170461Y0160855D03*
X0170619Y0160855D03*
X0170776Y0160855D03*
X0170934Y0160855D03*
X0171091Y0160855D03*
X0171249Y0160855D03*
X0171406Y0160855D03*
X0171564Y0160855D03*
X0171721Y0160855D03*
X0171879Y0160855D03*
X0172036Y0160855D03*
X0172194Y0160855D03*
X0172351Y0160855D03*
X0172509Y0160855D03*
X0172666Y0160855D03*
X0172824Y0160855D03*
X0172981Y0160855D03*
X0173139Y0160855D03*
X0173296Y0160855D03*
X0173454Y0160855D03*
X0173611Y0160855D03*
X0173769Y0160855D03*
X0173926Y0160855D03*
X0174083Y0160855D03*
X0174241Y0160855D03*
X0174398Y0160855D03*
X0174556Y0160855D03*
X0174713Y0160855D03*
X0174871Y0160855D03*
X0175028Y0160855D03*
X0175186Y0160855D03*
X0175343Y0160855D03*
X0175501Y0160855D03*
X0175658Y0160855D03*
X0175816Y0160855D03*
X0175973Y0160855D03*
X0176131Y0160855D03*
X0176288Y0160855D03*
X0176446Y0160855D03*
X0176603Y0160855D03*
X0176761Y0160855D03*
X0176918Y0160855D03*
X0177076Y0160855D03*
X0177233Y0160855D03*
X0177391Y0160855D03*
X0177548Y0160855D03*
X0177706Y0160855D03*
X0177863Y0160855D03*
X0178020Y0160855D03*
X0178178Y0160855D03*
X0178335Y0160855D03*
X0178493Y0160855D03*
X0178650Y0160855D03*
X0178808Y0160855D03*
X0178965Y0160855D03*
X0179123Y0160855D03*
X0179280Y0160698D03*
X0179438Y0160698D03*
X0179280Y0166839D03*
X0179123Y0166839D03*
X0178965Y0166839D03*
X0178808Y0166839D03*
X0169831Y0188099D03*
X0169674Y0188099D03*
X0169517Y0188099D03*
X0169359Y0188099D03*
X0169202Y0188099D03*
X0169044Y0188099D03*
X0168887Y0188099D03*
X0168729Y0188099D03*
X0168572Y0188099D03*
X0168414Y0188099D03*
X0168257Y0188099D03*
X0168099Y0188099D03*
X0167942Y0188099D03*
X0167784Y0188099D03*
X0167627Y0188099D03*
X0167469Y0188099D03*
X0167312Y0188099D03*
X0167154Y0188099D03*
X0166997Y0188099D03*
X0166839Y0188099D03*
X0166682Y0188099D03*
X0166524Y0188099D03*
X0166367Y0188099D03*
X0166209Y0188099D03*
X0166052Y0188099D03*
X0165894Y0188099D03*
X0165737Y0188099D03*
X0165580Y0188099D03*
X0165422Y0188099D03*
X0165265Y0188099D03*
X0165107Y0188099D03*
X0164950Y0188099D03*
X0164792Y0188099D03*
X0164635Y0188099D03*
X0164477Y0188099D03*
X0164320Y0188099D03*
X0164162Y0188099D03*
X0164005Y0188099D03*
X0163847Y0188099D03*
X0163690Y0187942D03*
X0163532Y0187942D03*
X0163532Y0203375D03*
X0163847Y0203532D03*
X0164005Y0203532D03*
X0164162Y0203532D03*
X0164320Y0203532D03*
X0164477Y0203532D03*
X0164635Y0203532D03*
X0164792Y0203532D03*
X0164950Y0203532D03*
X0165107Y0203532D03*
X0165265Y0203532D03*
X0165422Y0203532D03*
X0165580Y0203532D03*
X0165737Y0203532D03*
X0165894Y0203532D03*
X0166052Y0203532D03*
X0166209Y0203532D03*
X0166367Y0203532D03*
X0166524Y0203532D03*
X0166682Y0203532D03*
X0166839Y0203532D03*
X0166997Y0203532D03*
X0167154Y0203532D03*
X0167312Y0203532D03*
X0167469Y0203532D03*
X0167627Y0203532D03*
X0167784Y0203532D03*
X0167942Y0203532D03*
X0168099Y0203532D03*
X0168257Y0203532D03*
X0168414Y0203532D03*
X0168572Y0203532D03*
X0168729Y0203532D03*
X0168887Y0203532D03*
X0169044Y0203532D03*
X0169202Y0203532D03*
X0169359Y0203532D03*
X0169517Y0203532D03*
X0169674Y0203532D03*
X0169831Y0203532D03*
X0169989Y0203532D03*
X0170146Y0203532D03*
X0170304Y0203532D03*
X0170461Y0203532D03*
X0170619Y0203532D03*
X0170776Y0203532D03*
X0170934Y0203532D03*
X0171091Y0203532D03*
X0171249Y0203532D03*
X0171406Y0203532D03*
X0171564Y0203532D03*
X0171721Y0203532D03*
X0171879Y0203532D03*
X0172036Y0203532D03*
X0172194Y0203532D03*
X0172351Y0203532D03*
X0172509Y0203532D03*
X0172666Y0203532D03*
X0172824Y0203532D03*
X0172981Y0203532D03*
X0173139Y0203532D03*
X0173296Y0203532D03*
X0173454Y0203532D03*
X0173611Y0203532D03*
X0173769Y0203532D03*
X0173926Y0203532D03*
X0174083Y0203532D03*
X0174241Y0203532D03*
X0174398Y0203532D03*
X0174556Y0203532D03*
X0174713Y0203532D03*
X0174871Y0203532D03*
X0175028Y0203532D03*
X0175186Y0203532D03*
X0175343Y0203532D03*
X0175501Y0203532D03*
X0175658Y0203532D03*
X0175816Y0203532D03*
X0175973Y0203532D03*
X0176131Y0203532D03*
X0176288Y0203532D03*
X0176446Y0203532D03*
X0176603Y0203532D03*
X0176761Y0203532D03*
X0176918Y0203532D03*
X0177076Y0203532D03*
X0177233Y0203532D03*
X0177391Y0203532D03*
X0177548Y0203532D03*
X0177706Y0203532D03*
X0177863Y0203532D03*
X0178020Y0203532D03*
X0178178Y0203532D03*
X0178335Y0203532D03*
X0178493Y0203532D03*
X0178650Y0203532D03*
X0178808Y0203532D03*
X0178965Y0203532D03*
X0179123Y0203532D03*
X0179280Y0203532D03*
X0179438Y0203532D03*
X0179595Y0203532D03*
X0179753Y0203532D03*
X0179910Y0203532D03*
X0180068Y0203532D03*
X0180225Y0203532D03*
X0183690Y0203532D03*
X0183847Y0203532D03*
X0184005Y0203532D03*
X0184162Y0203532D03*
X0184320Y0203532D03*
X0184477Y0203532D03*
X0184635Y0203532D03*
X0184792Y0203532D03*
X0184950Y0203532D03*
X0185107Y0203532D03*
X0185265Y0203532D03*
X0185422Y0203532D03*
X0185580Y0203532D03*
X0185737Y0203532D03*
X0185894Y0203532D03*
X0186052Y0203532D03*
X0186209Y0203532D03*
X0186367Y0203532D03*
X0186524Y0203532D03*
X0186682Y0203532D03*
X0186839Y0203532D03*
X0186997Y0203532D03*
X0187154Y0203532D03*
X0187312Y0203532D03*
X0187469Y0203532D03*
X0187627Y0203532D03*
X0187784Y0203532D03*
X0187942Y0203532D03*
X0188099Y0203532D03*
X0188257Y0203532D03*
X0188414Y0203532D03*
X0188572Y0203532D03*
X0188729Y0203532D03*
X0188887Y0203532D03*
X0189044Y0203532D03*
X0189202Y0203532D03*
X0189359Y0203532D03*
X0189517Y0203532D03*
X0189674Y0203532D03*
X0189831Y0203532D03*
X0189989Y0203532D03*
X0190146Y0203532D03*
X0190304Y0203532D03*
X0190461Y0203532D03*
X0190619Y0203532D03*
X0190776Y0203532D03*
X0190934Y0203532D03*
X0191091Y0203532D03*
X0191249Y0203532D03*
X0191406Y0203532D03*
X0179123Y0209517D03*
X0178965Y0209517D03*
X0178808Y0209517D03*
X0178650Y0209517D03*
X0178493Y0209517D03*
X0178335Y0209517D03*
X0168729Y0209517D03*
X0168572Y0209517D03*
X0168414Y0209517D03*
X0168257Y0209517D03*
X0168099Y0209517D03*
X0167942Y0209517D03*
X0167784Y0209517D03*
X0167627Y0209517D03*
X0167469Y0209517D03*
X0167312Y0209517D03*
X0167154Y0209517D03*
X0166997Y0209517D03*
X0166839Y0209517D03*
X0166682Y0209517D03*
X0166524Y0209517D03*
X0166367Y0209517D03*
X0166209Y0209517D03*
X0166052Y0209517D03*
X0165894Y0209517D03*
X0165737Y0209517D03*
X0165580Y0209517D03*
X0165422Y0209517D03*
X0165265Y0209517D03*
X0165107Y0209517D03*
X0164950Y0209517D03*
X0164792Y0209517D03*
X0164635Y0209517D03*
X0164477Y0209517D03*
X0164320Y0209517D03*
X0164162Y0209517D03*
X0164005Y0209517D03*
X0163847Y0209517D03*
X0163847Y0230776D03*
X0164005Y0230776D03*
X0164162Y0230776D03*
X0164320Y0230776D03*
X0164477Y0230776D03*
X0164635Y0230776D03*
X0174241Y0230776D03*
X0174398Y0230776D03*
X0174556Y0230776D03*
X0174713Y0230776D03*
X0178650Y0230776D03*
X0178808Y0230776D03*
X0178965Y0230776D03*
X0179123Y0230776D03*
X0179280Y0230776D03*
X0175186Y0255028D03*
X0192194Y0274398D03*
X0192351Y0274556D03*
X0192509Y0274871D03*
X0194398Y0297076D03*
X0194241Y0297391D03*
X0162430Y0294241D03*
X0162272Y0295028D03*
X0160855Y0292981D03*
X0160068Y0296288D03*
X0159753Y0297706D03*
X0159595Y0298335D03*
D49*
X0160225Y0220146D03*
X0182745Y0220146D03*
X0183532Y0179674D03*
X0183532Y0089438D03*
X0159438Y0084871D03*
X0183532Y0039202D03*
D50*
X0178965Y0248965D03*
X0178808Y0249123D03*
X0186839Y0268493D03*
X0186997Y0268650D03*
X0187312Y0268965D03*
X0187469Y0268965D03*
X0187627Y0269123D03*
X0187784Y0269280D03*
X0187942Y0269438D03*
X0188099Y0269595D03*
X0188257Y0269753D03*
X0167784Y0270540D03*
X0166997Y0272745D03*
X0166682Y0273532D03*
X0166209Y0274950D03*
X0166052Y0275422D03*
X0165894Y0275894D03*
X0165737Y0276367D03*
X0167469Y0275580D03*
X0167784Y0274635D03*
X0166682Y0278099D03*
X0165107Y0278257D03*
X0164792Y0279202D03*
X0164635Y0279674D03*
X0165737Y0281249D03*
X0165580Y0281721D03*
X0165422Y0282351D03*
X0165107Y0283454D03*
X0163847Y0282194D03*
X0164005Y0281721D03*
X0192981Y0299989D03*
X0192824Y0300304D03*
X0192666Y0300619D03*
X0159595Y0330540D03*
D51*
X0159595Y0315343D03*
X0162272Y0198020D03*
X0162430Y0198020D03*
D52*
X0164162Y0264398D03*
X0164320Y0264398D03*
X0163847Y0264556D03*
X0163690Y0264556D03*
X0163375Y0264713D03*
X0163217Y0264713D03*
X0163060Y0264871D03*
X0162902Y0264871D03*
X0162587Y0265028D03*
X0162430Y0265028D03*
X0162272Y0265186D03*
X0162115Y0265186D03*
X0161800Y0265343D03*
X0161485Y0265501D03*
X0161170Y0265658D03*
X0161013Y0265658D03*
X0160855Y0265816D03*
X0160540Y0265973D03*
X0160225Y0266131D03*
X0159595Y0266446D03*
X0185894Y0307863D03*
X0185737Y0308020D03*
X0185422Y0308178D03*
X0185265Y0308335D03*
X0185107Y0308493D03*
X0184950Y0308493D03*
X0184792Y0308650D03*
X0184477Y0308808D03*
X0184162Y0308965D03*
X0184005Y0309123D03*
X0183690Y0309280D03*
X0166524Y0321091D03*
X0166367Y0321249D03*
X0166209Y0321406D03*
X0165894Y0321879D03*
X0164005Y0327233D03*
X0163690Y0327706D03*
X0163532Y0327863D03*
X0163375Y0328020D03*
X0163217Y0328178D03*
D53*
X0159595Y0220146D03*
X0181800Y0152587D03*
X0181957Y0062351D03*
D54*
X0159595Y0196446D03*
D55*
X0159595Y0175580D03*
X0160540Y0220146D03*
X0159595Y0085343D03*
D56*
X0159595Y0039595D03*
X0170146Y0218650D03*
X0172824Y0221485D03*
D57*
X0179438Y0248414D03*
X0179280Y0248572D03*
X0179123Y0248729D03*
X0185422Y0267469D03*
X0185894Y0267784D03*
X0186052Y0267942D03*
X0186367Y0268099D03*
X0186524Y0268257D03*
X0186682Y0268414D03*
X0187154Y0268729D03*
X0169359Y0266524D03*
X0168572Y0268414D03*
X0168414Y0268887D03*
X0168257Y0269359D03*
X0169202Y0270461D03*
X0167627Y0270934D03*
X0167469Y0271406D03*
X0167312Y0271879D03*
X0167154Y0272194D03*
X0166839Y0273139D03*
X0166524Y0274083D03*
X0166367Y0274398D03*
X0167627Y0275028D03*
X0168257Y0273139D03*
X0168572Y0272194D03*
X0166997Y0277076D03*
X0166839Y0277548D03*
X0166524Y0278650D03*
X0166367Y0279123D03*
X0166209Y0279595D03*
X0165422Y0277233D03*
X0165580Y0276761D03*
X0192509Y0300855D03*
X0192194Y0301328D03*
X0162587Y0323847D03*
X0162430Y0323847D03*
X0160068Y0330461D03*
X0159910Y0330461D03*
X0159753Y0330461D03*
D58*
X0159753Y0314950D03*
X0183375Y0061249D03*
D59*
X0180540Y0062824D03*
X0180383Y0062824D03*
X0180383Y0153060D03*
X0183217Y0220146D03*
X0159753Y0220146D03*
D60*
X0159753Y0196682D03*
D61*
X0159753Y0175894D03*
X0183217Y0179044D03*
X0182272Y0220146D03*
X0172509Y0221091D03*
X0160698Y0220146D03*
X0183217Y0088808D03*
X0159753Y0085658D03*
X0159753Y0039831D03*
X0183217Y0039831D03*
D62*
X0182115Y0062272D03*
X0181957Y0152509D03*
X0159910Y0314556D03*
D63*
X0159910Y0220146D03*
D64*
X0159910Y0196839D03*
X0196446Y0287548D03*
D65*
X0182115Y0220146D03*
X0172194Y0220776D03*
X0170776Y0219517D03*
X0160855Y0220146D03*
X0159910Y0176052D03*
X0159910Y0085816D03*
X0159910Y0039989D03*
D66*
X0160068Y0314162D03*
D67*
X0160068Y0220146D03*
X0182902Y0220146D03*
D68*
X0160068Y0196997D03*
D69*
X0160068Y0176209D03*
X0161013Y0220146D03*
X0171721Y0220304D03*
X0181957Y0220146D03*
X0160068Y0085973D03*
X0160068Y0040146D03*
X0182902Y0040146D03*
D70*
X0179910Y0247863D03*
X0179753Y0248020D03*
X0179595Y0248178D03*
X0173611Y0257154D03*
X0173454Y0257469D03*
X0171091Y0262351D03*
X0170776Y0263139D03*
X0170619Y0263454D03*
X0170461Y0263769D03*
X0169989Y0265028D03*
X0169831Y0265343D03*
X0169517Y0266131D03*
X0169202Y0266918D03*
X0169044Y0267233D03*
X0168887Y0267706D03*
X0168729Y0268020D03*
X0170304Y0267391D03*
X0171091Y0265343D03*
X0169359Y0269910D03*
X0169044Y0270855D03*
X0168887Y0271328D03*
X0168729Y0271800D03*
X0168414Y0272745D03*
X0168099Y0273690D03*
X0167942Y0274162D03*
X0167312Y0276052D03*
X0167154Y0276524D03*
X0167942Y0270068D03*
X0168099Y0269753D03*
X0184005Y0266603D03*
X0184320Y0266761D03*
X0184477Y0266918D03*
X0184635Y0266918D03*
X0184792Y0267076D03*
X0184950Y0267233D03*
X0185107Y0267233D03*
X0185265Y0267391D03*
X0185580Y0267548D03*
X0185737Y0267706D03*
X0186209Y0268020D03*
X0192351Y0301091D03*
X0192036Y0301564D03*
X0191721Y0302036D03*
X0162902Y0323926D03*
X0162745Y0323926D03*
X0160225Y0330383D03*
D71*
X0160225Y0320619D03*
X0195186Y0281249D03*
X0163690Y0132430D03*
X0163532Y0132430D03*
X0181328Y0122351D03*
X0181485Y0122351D03*
X0163690Y0111957D03*
X0163532Y0111957D03*
D72*
X0160225Y0197154D03*
D73*
X0160225Y0176367D03*
X0182745Y0178572D03*
X0181800Y0220146D03*
X0181643Y0220146D03*
X0161328Y0220146D03*
X0161170Y0220146D03*
X0182745Y0088335D03*
X0160225Y0086131D03*
X0160225Y0040304D03*
X0182745Y0040304D03*
D74*
X0180225Y0247469D03*
X0180068Y0247627D03*
X0173769Y0256761D03*
X0173296Y0257706D03*
X0172824Y0258650D03*
X0172666Y0258965D03*
X0172509Y0259280D03*
X0172351Y0259595D03*
X0172194Y0259910D03*
X0172036Y0260225D03*
X0171879Y0260698D03*
X0171721Y0261013D03*
X0171564Y0261328D03*
X0171406Y0261643D03*
X0171249Y0261957D03*
X0170934Y0262745D03*
X0171879Y0263375D03*
X0171721Y0263847D03*
X0171564Y0264162D03*
X0171249Y0264950D03*
X0170934Y0265737D03*
X0170776Y0266209D03*
X0170619Y0266524D03*
X0170461Y0266997D03*
X0170146Y0267784D03*
X0169989Y0268257D03*
X0169831Y0268729D03*
X0169674Y0269044D03*
X0169517Y0269517D03*
X0169674Y0265737D03*
X0172824Y0261170D03*
X0173769Y0258808D03*
X0181957Y0265580D03*
X0182115Y0265580D03*
X0182430Y0265737D03*
X0182745Y0265894D03*
X0183060Y0266052D03*
X0183217Y0266209D03*
X0183375Y0266209D03*
X0183532Y0266367D03*
X0183690Y0266367D03*
X0183847Y0266524D03*
X0184162Y0266682D03*
X0191879Y0301800D03*
X0191564Y0302272D03*
X0191406Y0302430D03*
X0163060Y0323847D03*
X0160540Y0330304D03*
X0160383Y0330304D03*
D75*
X0172981Y0221879D03*
X0169989Y0218414D03*
X0160383Y0220146D03*
X0182587Y0220146D03*
D76*
X0160383Y0197233D03*
D77*
X0160383Y0176446D03*
X0160383Y0086209D03*
X0160383Y0040383D03*
X0182587Y0040383D03*
D78*
X0162272Y0111879D03*
X0160540Y0304792D03*
D79*
X0160540Y0197312D03*
D80*
X0160540Y0176524D03*
X0182587Y0178414D03*
X0181485Y0220146D03*
X0161485Y0220146D03*
X0182587Y0088178D03*
X0160540Y0086288D03*
D81*
X0160698Y0086367D03*
X0182430Y0088099D03*
X0182430Y0040540D03*
X0160540Y0040540D03*
X0160698Y0176603D03*
X0182430Y0178335D03*
D82*
X0180540Y0247233D03*
X0180383Y0247391D03*
X0173139Y0257942D03*
X0172981Y0258257D03*
X0173611Y0259359D03*
X0173296Y0260146D03*
X0172981Y0260776D03*
X0172666Y0261564D03*
X0172509Y0261879D03*
X0172036Y0262981D03*
X0171406Y0264556D03*
X0179910Y0264713D03*
X0180068Y0264713D03*
X0180383Y0264871D03*
X0180698Y0265028D03*
X0180855Y0265028D03*
X0181013Y0265186D03*
X0181170Y0265186D03*
X0181328Y0265186D03*
X0181485Y0265343D03*
X0181643Y0265343D03*
X0181800Y0265501D03*
X0182272Y0265658D03*
X0182587Y0265816D03*
X0182902Y0265973D03*
X0191249Y0302666D03*
X0191091Y0302824D03*
X0190934Y0303139D03*
X0190776Y0303296D03*
X0190619Y0303454D03*
X0163375Y0323769D03*
X0163217Y0323769D03*
X0161013Y0330068D03*
X0160855Y0330225D03*
X0160698Y0330225D03*
D83*
X0161643Y0220146D03*
X0161800Y0220146D03*
X0181328Y0220146D03*
X0182272Y0178257D03*
X0160855Y0176682D03*
X0160855Y0086446D03*
X0182272Y0088020D03*
X0182272Y0040619D03*
X0160698Y0040619D03*
D84*
X0161800Y0111879D03*
X0161957Y0111879D03*
X0160855Y0302587D03*
D85*
X0160855Y0197548D03*
D86*
X0161013Y0176761D03*
X0182115Y0178178D03*
X0182115Y0087942D03*
X0161013Y0086524D03*
X0160855Y0040698D03*
X0182115Y0040698D03*
D87*
X0180225Y0031328D03*
X0161328Y0111957D03*
X0161328Y0132430D03*
X0161170Y0132430D03*
X0183532Y0122351D03*
X0173139Y0229910D03*
X0194241Y0278257D03*
X0161013Y0301564D03*
D88*
X0161013Y0197627D03*
X0161170Y0197627D03*
D89*
X0161170Y0176839D03*
X0181957Y0178099D03*
X0181170Y0220146D03*
X0181013Y0220146D03*
X0161957Y0220146D03*
X0161170Y0086603D03*
X0181957Y0087863D03*
X0181957Y0040776D03*
X0161013Y0040776D03*
D90*
X0183690Y0244792D03*
X0183847Y0244792D03*
X0184005Y0244792D03*
X0184162Y0244792D03*
X0184320Y0244792D03*
X0184477Y0244792D03*
X0184635Y0244792D03*
X0183375Y0244950D03*
X0183217Y0244950D03*
X0183060Y0245107D03*
X0182902Y0245107D03*
X0182745Y0245265D03*
X0182587Y0245265D03*
X0182430Y0245422D03*
X0182272Y0245580D03*
X0182115Y0245580D03*
X0181957Y0245737D03*
X0181800Y0245894D03*
X0181643Y0246052D03*
X0181485Y0246209D03*
X0181328Y0246367D03*
X0181170Y0246524D03*
X0181013Y0246682D03*
X0180855Y0246839D03*
X0180698Y0246997D03*
X0173454Y0259753D03*
X0173139Y0260383D03*
X0172351Y0262272D03*
X0172194Y0262587D03*
X0176131Y0263690D03*
X0176918Y0263847D03*
X0177391Y0264005D03*
X0177548Y0264005D03*
X0177706Y0264005D03*
X0178178Y0264162D03*
X0178335Y0264162D03*
X0178650Y0264320D03*
X0178808Y0264320D03*
X0178965Y0264320D03*
X0179123Y0264477D03*
X0179280Y0264477D03*
X0179438Y0264477D03*
X0179595Y0264635D03*
X0179753Y0264635D03*
X0180225Y0264792D03*
X0180540Y0264950D03*
X0190461Y0303690D03*
X0190304Y0303847D03*
X0190146Y0304005D03*
X0163847Y0323532D03*
X0163690Y0323690D03*
X0163532Y0323690D03*
X0161170Y0329989D03*
D91*
X0161328Y0176918D03*
X0181800Y0178020D03*
X0181800Y0087784D03*
X0161328Y0086682D03*
X0161328Y0040855D03*
X0161170Y0040855D03*
X0181800Y0040855D03*
D92*
X0183532Y0244871D03*
X0184792Y0244871D03*
X0184950Y0244871D03*
X0185107Y0245028D03*
X0185265Y0245186D03*
X0185422Y0245186D03*
X0178493Y0264241D03*
X0178020Y0264083D03*
X0177863Y0264083D03*
X0177233Y0263926D03*
X0177076Y0263926D03*
X0176761Y0263769D03*
X0176603Y0263769D03*
X0176446Y0263769D03*
X0176288Y0263769D03*
X0175973Y0263611D03*
X0175816Y0263611D03*
X0175658Y0263611D03*
X0175501Y0263611D03*
X0175186Y0263454D03*
X0175028Y0263454D03*
X0174871Y0263454D03*
X0174713Y0263454D03*
X0174556Y0263454D03*
X0189989Y0304241D03*
X0189831Y0304398D03*
X0189674Y0304556D03*
X0189517Y0304713D03*
X0189359Y0304871D03*
X0189202Y0305028D03*
X0164477Y0323139D03*
X0164162Y0323296D03*
X0164005Y0323454D03*
X0161957Y0329438D03*
X0161643Y0329595D03*
X0161485Y0329753D03*
X0161328Y0329910D03*
D93*
X0161328Y0197706D03*
D94*
X0161485Y0197784D03*
D95*
X0161485Y0176997D03*
X0181643Y0177942D03*
X0180855Y0220146D03*
X0180698Y0220146D03*
X0162272Y0220146D03*
X0162115Y0220146D03*
X0161485Y0086761D03*
X0181643Y0087706D03*
X0181643Y0040934D03*
X0181485Y0040934D03*
X0161485Y0040934D03*
D96*
X0161643Y0197863D03*
X0161800Y0197863D03*
D97*
X0161800Y0177076D03*
X0161643Y0177076D03*
X0181328Y0177863D03*
X0181485Y0177863D03*
X0181485Y0087627D03*
X0181328Y0087627D03*
X0161800Y0086839D03*
X0161643Y0086839D03*
X0161643Y0041013D03*
X0181328Y0041013D03*
D98*
X0185580Y0245422D03*
X0185737Y0245580D03*
X0175343Y0263532D03*
X0174398Y0263375D03*
X0174241Y0263375D03*
X0174083Y0263375D03*
X0173926Y0263375D03*
X0173769Y0263375D03*
X0173611Y0263375D03*
X0173454Y0263375D03*
X0173296Y0263375D03*
X0173139Y0263375D03*
X0172981Y0263375D03*
X0172824Y0263375D03*
X0169517Y0263375D03*
X0169359Y0263375D03*
X0169202Y0263375D03*
X0189044Y0305265D03*
X0188887Y0305422D03*
X0188729Y0305580D03*
X0188572Y0305737D03*
X0164950Y0322745D03*
X0164792Y0322902D03*
X0164635Y0323060D03*
X0164320Y0323217D03*
X0161800Y0329517D03*
D99*
X0161800Y0323690D03*
X0193611Y0298808D03*
X0193769Y0298493D03*
X0190619Y0272194D03*
X0190461Y0272036D03*
X0190304Y0271879D03*
X0177076Y0251721D03*
X0177391Y0251249D03*
X0177706Y0250776D03*
X0170146Y0264162D03*
X0162745Y0285894D03*
X0162587Y0286524D03*
X0162430Y0286997D03*
X0162272Y0287627D03*
X0163690Y0288887D03*
X0164162Y0286997D03*
D100*
X0162587Y0220146D03*
X0162430Y0220146D03*
X0180383Y0220146D03*
X0180540Y0220146D03*
X0181013Y0177784D03*
X0181170Y0177784D03*
X0162115Y0177154D03*
X0161957Y0177154D03*
X0161957Y0086918D03*
X0162115Y0086918D03*
X0181013Y0087548D03*
X0181170Y0087548D03*
X0181170Y0041091D03*
X0181013Y0041091D03*
X0161957Y0041091D03*
X0161800Y0041091D03*
D101*
X0161957Y0197942D03*
X0162115Y0197942D03*
X0196131Y0287548D03*
D102*
X0188414Y0305816D03*
X0188257Y0305973D03*
X0188099Y0306131D03*
X0187942Y0306288D03*
X0187784Y0306446D03*
X0187627Y0306603D03*
X0187469Y0306603D03*
X0187312Y0306761D03*
X0187154Y0306918D03*
X0186997Y0307076D03*
X0165265Y0322509D03*
X0165107Y0322666D03*
X0162745Y0328650D03*
X0162587Y0328808D03*
X0162430Y0328965D03*
X0162272Y0329123D03*
X0162115Y0329280D03*
X0166052Y0263926D03*
X0167469Y0263611D03*
X0167627Y0263611D03*
X0168257Y0263454D03*
X0168414Y0263454D03*
X0168572Y0263454D03*
X0168729Y0263454D03*
X0168887Y0263454D03*
X0169044Y0263454D03*
X0169674Y0263296D03*
X0169831Y0263296D03*
X0169989Y0263296D03*
X0186209Y0246446D03*
X0186052Y0246131D03*
X0185894Y0245816D03*
D103*
X0180855Y0177706D03*
X0162430Y0177233D03*
X0162272Y0177233D03*
X0162272Y0086997D03*
X0162430Y0086997D03*
X0180855Y0087469D03*
X0180855Y0041170D03*
X0180698Y0041170D03*
X0162272Y0041170D03*
X0162115Y0041170D03*
D104*
X0162430Y0041249D03*
X0162587Y0041249D03*
X0180383Y0041249D03*
X0180540Y0041249D03*
X0180540Y0087391D03*
X0180383Y0087391D03*
X0180698Y0087391D03*
X0162587Y0087076D03*
X0162587Y0177312D03*
X0180383Y0177627D03*
X0180540Y0177627D03*
X0180698Y0177627D03*
D105*
X0162587Y0198099D03*
D106*
X0194871Y0280068D03*
X0195343Y0293769D03*
X0162587Y0111879D03*
D107*
X0186367Y0246839D03*
X0172666Y0263532D03*
X0168099Y0263532D03*
X0167942Y0263532D03*
X0167784Y0263532D03*
X0167312Y0263690D03*
X0167154Y0263690D03*
X0166997Y0263690D03*
X0166839Y0263690D03*
X0166682Y0263847D03*
X0166524Y0263847D03*
X0166367Y0263847D03*
X0166209Y0263847D03*
X0165894Y0264005D03*
X0165737Y0264005D03*
X0165580Y0264005D03*
X0165422Y0264005D03*
X0165265Y0264162D03*
X0165107Y0264162D03*
X0164950Y0264162D03*
X0164792Y0264320D03*
X0164635Y0264320D03*
X0164477Y0264320D03*
X0164005Y0264477D03*
X0163532Y0264635D03*
X0162745Y0264950D03*
X0186839Y0307154D03*
X0186682Y0307312D03*
X0186524Y0307469D03*
X0186367Y0307469D03*
X0186209Y0307627D03*
X0186052Y0307784D03*
X0185580Y0308099D03*
X0166052Y0321643D03*
X0165737Y0321957D03*
X0165580Y0322115D03*
X0165422Y0322272D03*
X0163060Y0328414D03*
X0162902Y0328572D03*
D108*
X0195028Y0280619D03*
X0162902Y0132430D03*
X0162745Y0132430D03*
X0162745Y0111957D03*
X0162902Y0111957D03*
X0182115Y0122351D03*
X0182272Y0122351D03*
D109*
X0180855Y0122272D03*
X0164162Y0132351D03*
X0164162Y0112036D03*
X0195343Y0281957D03*
D110*
X0164320Y0132430D03*
X0180698Y0122351D03*
X0164320Y0111957D03*
D111*
X0164792Y0112036D03*
X0164950Y0112036D03*
X0165107Y0112036D03*
X0180225Y0122272D03*
X0164950Y0132351D03*
X0196761Y0287469D03*
D112*
X0165107Y0132430D03*
X0180068Y0122351D03*
D113*
X0179910Y0122272D03*
X0165422Y0132351D03*
X0165265Y0132351D03*
X0165265Y0112036D03*
X0165422Y0112036D03*
D114*
X0169989Y0087233D03*
X0170146Y0087233D03*
X0170304Y0087233D03*
X0170461Y0087233D03*
X0170619Y0087233D03*
X0170776Y0087233D03*
X0170934Y0087233D03*
X0171091Y0087233D03*
X0171249Y0087233D03*
X0171406Y0087233D03*
X0171564Y0087233D03*
X0171721Y0087233D03*
X0171879Y0087233D03*
X0172036Y0087233D03*
X0172194Y0087233D03*
X0172351Y0087233D03*
X0172509Y0087233D03*
X0172666Y0087233D03*
X0172824Y0087233D03*
X0172981Y0087233D03*
X0172981Y0177469D03*
X0172824Y0177469D03*
X0172666Y0177469D03*
X0172509Y0177469D03*
X0172351Y0177469D03*
X0172194Y0177469D03*
X0172036Y0177469D03*
X0171879Y0177469D03*
X0171721Y0177469D03*
X0171564Y0177469D03*
X0171406Y0177469D03*
X0171249Y0177469D03*
X0171091Y0177469D03*
X0170934Y0177469D03*
X0170776Y0177469D03*
X0170619Y0177469D03*
X0170461Y0177469D03*
X0170304Y0177469D03*
X0170146Y0177469D03*
X0169989Y0177469D03*
D115*
X0170304Y0218965D03*
X0172666Y0221328D03*
D116*
X0172351Y0221013D03*
X0170619Y0219280D03*
X0170461Y0219123D03*
D117*
X0170934Y0219595D03*
X0171091Y0219753D03*
X0171249Y0219910D03*
X0171406Y0220068D03*
X0171564Y0220225D03*
X0171879Y0220540D03*
X0172036Y0220698D03*
X0183060Y0178808D03*
X0183060Y0088572D03*
X0183060Y0040068D03*
D118*
X0179595Y0122272D03*
D119*
X0179753Y0122351D03*
D120*
X0180383Y0198257D03*
X0180540Y0198257D03*
X0180698Y0198257D03*
X0180855Y0198257D03*
X0181013Y0198257D03*
X0181170Y0198257D03*
X0181328Y0198257D03*
X0181485Y0198257D03*
X0181643Y0198257D03*
X0181800Y0198257D03*
X0181957Y0198257D03*
X0182115Y0198257D03*
X0182272Y0198257D03*
X0182430Y0198257D03*
X0182587Y0198257D03*
X0182745Y0198257D03*
X0182902Y0198257D03*
X0183060Y0198257D03*
X0183217Y0198257D03*
X0183375Y0198257D03*
X0183532Y0198257D03*
D121*
X0180698Y0152981D03*
X0180540Y0152981D03*
X0180698Y0062745D03*
X0180855Y0062745D03*
D122*
X0181328Y0062587D03*
X0181328Y0152824D03*
X0181170Y0152824D03*
D123*
X0181485Y0152745D03*
X0183375Y0220146D03*
X0181643Y0062509D03*
X0181485Y0062509D03*
D124*
X0181800Y0062430D03*
X0181643Y0152666D03*
D125*
X0181957Y0122272D03*
D126*
X0182115Y0152430D03*
X0182272Y0062194D03*
D127*
X0182430Y0062115D03*
X0182272Y0152351D03*
D128*
X0183375Y0179202D03*
X0182430Y0220146D03*
X0183375Y0088965D03*
X0183375Y0039674D03*
D129*
X0182587Y0152194D03*
D130*
X0182745Y0152115D03*
X0182745Y0061879D03*
X0195658Y0287548D03*
D131*
X0182902Y0178650D03*
X0182902Y0088414D03*
D132*
X0182902Y0151957D03*
D133*
X0182902Y0061800D03*
D134*
X0183060Y0220146D03*
D135*
X0183532Y0220146D03*
X0183060Y0151800D03*
D136*
X0183060Y0061643D03*
D137*
X0183375Y0151406D03*
D138*
X0183532Y0150934D03*
D139*
X0183532Y0060776D03*
D140*
X0195501Y0283060D03*
D141*
X0195973Y0287548D03*
D142*
X0196288Y0287469D03*
D143*
X0313024Y0287869D02*
X0313791Y0287101D01*
X0313024Y0286334D01*
X0313791Y0285567D01*
X0316093Y0285567D01*
X0316093Y0283265D02*
X0316093Y0281730D01*
X0315326Y0280963D01*
X0313024Y0280963D01*
X0313024Y0283265D01*
X0313791Y0284032D01*
X0314558Y0283265D01*
X0314558Y0280963D01*
X0314558Y0279428D02*
X0316093Y0277893D01*
X0316093Y0277126D01*
X0315326Y0275591D02*
X0313791Y0275591D01*
X0313024Y0274824D01*
X0313024Y0272522D01*
X0317628Y0272522D01*
X0316093Y0272522D02*
X0316093Y0274824D01*
X0315326Y0275591D01*
X0316093Y0279428D02*
X0313024Y0279428D01*
X0313024Y0270988D02*
X0313024Y0270220D01*
X0313791Y0270220D01*
X0313791Y0270988D01*
X0313024Y0270988D01*
X0313024Y0268686D02*
X0313024Y0266384D01*
X0313791Y0265616D01*
X0314558Y0266384D01*
X0314558Y0267918D01*
X0315326Y0268686D01*
X0316093Y0267918D01*
X0316093Y0265616D01*
X0316093Y0264082D02*
X0316093Y0261780D01*
X0315326Y0261012D01*
X0313791Y0261012D01*
X0313024Y0261780D01*
X0313024Y0264082D01*
X0311489Y0264082D02*
X0316093Y0264082D01*
X0313791Y0259478D02*
X0314558Y0258710D01*
X0314558Y0256408D01*
X0315326Y0256408D02*
X0313024Y0256408D01*
X0313024Y0258710D01*
X0313791Y0259478D01*
X0316093Y0258710D02*
X0316093Y0257176D01*
X0315326Y0256408D01*
X0315326Y0254874D02*
X0313791Y0254874D01*
X0313024Y0254106D01*
X0313024Y0251804D01*
X0313791Y0250270D02*
X0315326Y0250270D01*
X0316093Y0249503D01*
X0316093Y0247968D01*
X0315326Y0247201D01*
X0314558Y0247201D01*
X0314558Y0250270D01*
X0313791Y0250270D02*
X0313024Y0249503D01*
X0313024Y0247968D01*
X0316093Y0251804D02*
X0316093Y0254106D01*
X0315326Y0254874D01*
X0313024Y0287869D02*
X0313791Y0288636D01*
X0316093Y0288636D01*
X0316093Y0290171D02*
X0316093Y0290938D01*
X0314558Y0292472D01*
X0313024Y0292472D02*
X0316093Y0292472D01*
X0315326Y0294007D02*
X0313024Y0294007D01*
X0313024Y0296309D01*
X0313791Y0297076D01*
X0314558Y0296309D01*
X0314558Y0294007D01*
X0315326Y0294007D02*
X0316093Y0294774D01*
X0316093Y0296309D01*
X0316093Y0298611D02*
X0316093Y0300146D01*
X0316860Y0299378D02*
X0313791Y0299378D01*
X0313024Y0298611D01*
X0313791Y0301680D02*
X0314558Y0302448D01*
X0314558Y0303982D01*
X0315326Y0304750D01*
X0316093Y0303982D01*
X0316093Y0301680D01*
X0313791Y0301680D02*
X0313024Y0302448D01*
X0313024Y0304750D01*
X0331441Y0307000D02*
X0331441Y0310603D01*
X0331441Y0308802D02*
X0333843Y0308802D01*
X0335124Y0309402D02*
X0336325Y0310603D01*
X0336325Y0307000D01*
X0335124Y0307000D02*
X0337526Y0307000D01*
X0333843Y0307000D02*
X0333843Y0310603D01*
X0351441Y0310603D02*
X0351441Y0307000D01*
X0351441Y0308802D02*
X0353843Y0308802D01*
X0355124Y0310003D02*
X0355725Y0310603D01*
X0356926Y0310603D01*
X0357526Y0310003D01*
X0357526Y0309402D01*
X0355124Y0307000D01*
X0357526Y0307000D01*
X0353843Y0307000D02*
X0353843Y0310603D01*
X0315326Y0103962D02*
X0314558Y0103195D01*
X0314558Y0101660D01*
X0313791Y0100893D01*
X0313024Y0101660D01*
X0313024Y0103962D01*
X0315326Y0103962D02*
X0316093Y0103195D01*
X0316093Y0100893D01*
X0316093Y0099358D02*
X0316093Y0097824D01*
X0316860Y0098591D02*
X0313791Y0098591D01*
X0313024Y0097824D01*
X0313791Y0096289D02*
X0314558Y0095522D01*
X0314558Y0093220D01*
X0315326Y0093220D02*
X0313024Y0093220D01*
X0313024Y0095522D01*
X0313791Y0096289D01*
X0316093Y0095522D02*
X0316093Y0093987D01*
X0315326Y0093220D01*
X0316093Y0091685D02*
X0313024Y0091685D01*
X0314558Y0091685D02*
X0316093Y0090150D01*
X0316093Y0089383D01*
X0316093Y0087848D02*
X0313791Y0087848D01*
X0313024Y0087081D01*
X0313791Y0086314D01*
X0313024Y0085547D01*
X0313791Y0084779D01*
X0316093Y0084779D01*
X0316093Y0082477D02*
X0316093Y0080943D01*
X0315326Y0080175D01*
X0313024Y0080175D01*
X0313024Y0082477D01*
X0313791Y0083245D01*
X0314558Y0082477D01*
X0314558Y0080175D01*
X0314558Y0078641D02*
X0316093Y0077106D01*
X0316093Y0076339D01*
X0315326Y0074804D02*
X0313791Y0074804D01*
X0313024Y0074037D01*
X0313024Y0071735D01*
X0317628Y0071735D01*
X0316093Y0071735D02*
X0316093Y0074037D01*
X0315326Y0074804D01*
X0316093Y0078641D02*
X0313024Y0078641D01*
X0313024Y0070200D02*
X0313024Y0069433D01*
X0313791Y0069433D01*
X0313791Y0070200D01*
X0313024Y0070200D01*
X0313024Y0067898D02*
X0313024Y0065596D01*
X0313791Y0064829D01*
X0314558Y0065596D01*
X0314558Y0067131D01*
X0315326Y0067898D01*
X0316093Y0067131D01*
X0316093Y0064829D01*
X0316093Y0063294D02*
X0311489Y0063294D01*
X0313024Y0063294D02*
X0313024Y0060992D01*
X0313791Y0060225D01*
X0315326Y0060225D01*
X0316093Y0060992D01*
X0316093Y0063294D01*
X0313791Y0058690D02*
X0314558Y0057923D01*
X0314558Y0055621D01*
X0315326Y0055621D02*
X0313024Y0055621D01*
X0313024Y0057923D01*
X0313791Y0058690D01*
X0316093Y0057923D02*
X0316093Y0056388D01*
X0315326Y0055621D01*
X0315326Y0054086D02*
X0313791Y0054086D01*
X0313024Y0053319D01*
X0313024Y0051017D01*
X0313791Y0049482D02*
X0315326Y0049482D01*
X0316093Y0048715D01*
X0316093Y0047180D01*
X0315326Y0046413D01*
X0314558Y0046413D01*
X0314558Y0049482D01*
X0313791Y0049482D02*
X0313024Y0048715D01*
X0313024Y0047180D01*
X0316093Y0051017D02*
X0316093Y0053319D01*
X0315326Y0054086D01*
D144*
X0324241Y0049300D02*
X0324241Y0304300D01*
X0324243Y0304398D01*
X0324249Y0304496D01*
X0324258Y0304594D01*
X0324272Y0304691D01*
X0324289Y0304788D01*
X0324310Y0304884D01*
X0324335Y0304979D01*
X0324363Y0305073D01*
X0324396Y0305165D01*
X0324431Y0305257D01*
X0324471Y0305347D01*
X0324513Y0305435D01*
X0324560Y0305522D01*
X0324609Y0305606D01*
X0324662Y0305689D01*
X0324718Y0305769D01*
X0324778Y0305848D01*
X0324840Y0305924D01*
X0324905Y0305997D01*
X0324973Y0306068D01*
X0325044Y0306136D01*
X0325117Y0306201D01*
X0325193Y0306263D01*
X0325272Y0306323D01*
X0325352Y0306379D01*
X0325435Y0306432D01*
X0325519Y0306481D01*
X0325606Y0306528D01*
X0325694Y0306570D01*
X0325784Y0306610D01*
X0325876Y0306645D01*
X0325968Y0306678D01*
X0326062Y0306706D01*
X0326157Y0306731D01*
X0326253Y0306752D01*
X0326350Y0306769D01*
X0326447Y0306783D01*
X0326545Y0306792D01*
X0326643Y0306798D01*
X0326741Y0306800D01*
X0333991Y0306800D01*
X0334491Y0306800D01*
X0341741Y0306800D01*
X0341839Y0306798D01*
X0341937Y0306792D01*
X0342035Y0306783D01*
X0342132Y0306769D01*
X0342229Y0306752D01*
X0342325Y0306731D01*
X0342420Y0306706D01*
X0342514Y0306678D01*
X0342606Y0306645D01*
X0342698Y0306610D01*
X0342788Y0306570D01*
X0342876Y0306528D01*
X0342963Y0306481D01*
X0343047Y0306432D01*
X0343130Y0306379D01*
X0343210Y0306323D01*
X0343289Y0306263D01*
X0343365Y0306201D01*
X0343438Y0306136D01*
X0343509Y0306068D01*
X0343577Y0305997D01*
X0343642Y0305924D01*
X0343704Y0305848D01*
X0343764Y0305769D01*
X0343820Y0305689D01*
X0343873Y0305606D01*
X0343922Y0305522D01*
X0343969Y0305435D01*
X0344011Y0305347D01*
X0344051Y0305257D01*
X0344086Y0305165D01*
X0344119Y0305073D01*
X0344147Y0304979D01*
X0344172Y0304884D01*
X0344193Y0304788D01*
X0344210Y0304691D01*
X0344224Y0304594D01*
X0344233Y0304496D01*
X0344239Y0304398D01*
X0344241Y0304300D01*
X0344241Y0049300D01*
X0344241Y0304300D01*
X0344243Y0304398D01*
X0344249Y0304496D01*
X0344258Y0304594D01*
X0344272Y0304691D01*
X0344289Y0304788D01*
X0344310Y0304884D01*
X0344335Y0304979D01*
X0344363Y0305073D01*
X0344396Y0305165D01*
X0344431Y0305257D01*
X0344471Y0305347D01*
X0344513Y0305435D01*
X0344560Y0305522D01*
X0344609Y0305606D01*
X0344662Y0305689D01*
X0344718Y0305769D01*
X0344778Y0305848D01*
X0344840Y0305924D01*
X0344905Y0305997D01*
X0344973Y0306068D01*
X0345044Y0306136D01*
X0345117Y0306201D01*
X0345193Y0306263D01*
X0345272Y0306323D01*
X0345352Y0306379D01*
X0345435Y0306432D01*
X0345519Y0306481D01*
X0345606Y0306528D01*
X0345694Y0306570D01*
X0345784Y0306610D01*
X0345876Y0306645D01*
X0345968Y0306678D01*
X0346062Y0306706D01*
X0346157Y0306731D01*
X0346253Y0306752D01*
X0346350Y0306769D01*
X0346447Y0306783D01*
X0346545Y0306792D01*
X0346643Y0306798D01*
X0346741Y0306800D01*
X0353991Y0306800D01*
X0354491Y0306800D01*
X0361741Y0306800D01*
X0361839Y0306798D01*
X0361937Y0306792D01*
X0362035Y0306783D01*
X0362132Y0306769D01*
X0362229Y0306752D01*
X0362325Y0306731D01*
X0362420Y0306706D01*
X0362514Y0306678D01*
X0362606Y0306645D01*
X0362698Y0306610D01*
X0362788Y0306570D01*
X0362876Y0306528D01*
X0362963Y0306481D01*
X0363047Y0306432D01*
X0363130Y0306379D01*
X0363210Y0306323D01*
X0363289Y0306263D01*
X0363365Y0306201D01*
X0363438Y0306136D01*
X0363509Y0306068D01*
X0363577Y0305997D01*
X0363642Y0305924D01*
X0363704Y0305848D01*
X0363764Y0305769D01*
X0363820Y0305689D01*
X0363873Y0305606D01*
X0363922Y0305522D01*
X0363969Y0305435D01*
X0364011Y0305347D01*
X0364051Y0305257D01*
X0364086Y0305165D01*
X0364119Y0305073D01*
X0364147Y0304979D01*
X0364172Y0304884D01*
X0364193Y0304788D01*
X0364210Y0304691D01*
X0364224Y0304594D01*
X0364233Y0304496D01*
X0364239Y0304398D01*
X0364241Y0304300D01*
X0364241Y0049300D01*
X0364239Y0049202D01*
X0364233Y0049104D01*
X0364224Y0049006D01*
X0364210Y0048909D01*
X0364193Y0048812D01*
X0364172Y0048716D01*
X0364147Y0048621D01*
X0364119Y0048527D01*
X0364086Y0048435D01*
X0364051Y0048343D01*
X0364011Y0048253D01*
X0363969Y0048165D01*
X0363922Y0048078D01*
X0363873Y0047994D01*
X0363820Y0047911D01*
X0363764Y0047831D01*
X0363704Y0047752D01*
X0363642Y0047676D01*
X0363577Y0047603D01*
X0363509Y0047532D01*
X0363438Y0047464D01*
X0363365Y0047399D01*
X0363289Y0047337D01*
X0363210Y0047277D01*
X0363130Y0047221D01*
X0363047Y0047168D01*
X0362963Y0047119D01*
X0362876Y0047072D01*
X0362788Y0047030D01*
X0362698Y0046990D01*
X0362606Y0046955D01*
X0362514Y0046922D01*
X0362420Y0046894D01*
X0362325Y0046869D01*
X0362229Y0046848D01*
X0362132Y0046831D01*
X0362035Y0046817D01*
X0361937Y0046808D01*
X0361839Y0046802D01*
X0361741Y0046800D01*
X0346741Y0046800D01*
X0346643Y0046802D01*
X0346545Y0046808D01*
X0346447Y0046817D01*
X0346350Y0046831D01*
X0346253Y0046848D01*
X0346157Y0046869D01*
X0346062Y0046894D01*
X0345968Y0046922D01*
X0345876Y0046955D01*
X0345784Y0046990D01*
X0345694Y0047030D01*
X0345606Y0047072D01*
X0345519Y0047119D01*
X0345435Y0047168D01*
X0345352Y0047221D01*
X0345272Y0047277D01*
X0345193Y0047337D01*
X0345117Y0047399D01*
X0345044Y0047464D01*
X0344973Y0047532D01*
X0344905Y0047603D01*
X0344840Y0047676D01*
X0344778Y0047752D01*
X0344718Y0047831D01*
X0344662Y0047911D01*
X0344609Y0047994D01*
X0344560Y0048078D01*
X0344513Y0048165D01*
X0344471Y0048253D01*
X0344431Y0048343D01*
X0344396Y0048435D01*
X0344363Y0048527D01*
X0344335Y0048621D01*
X0344310Y0048716D01*
X0344289Y0048812D01*
X0344272Y0048909D01*
X0344258Y0049006D01*
X0344249Y0049104D01*
X0344243Y0049202D01*
X0344241Y0049300D01*
X0344239Y0049202D01*
X0344233Y0049104D01*
X0344224Y0049006D01*
X0344210Y0048909D01*
X0344193Y0048812D01*
X0344172Y0048716D01*
X0344147Y0048621D01*
X0344119Y0048527D01*
X0344086Y0048435D01*
X0344051Y0048343D01*
X0344011Y0048253D01*
X0343969Y0048165D01*
X0343922Y0048078D01*
X0343873Y0047994D01*
X0343820Y0047911D01*
X0343764Y0047831D01*
X0343704Y0047752D01*
X0343642Y0047676D01*
X0343577Y0047603D01*
X0343509Y0047532D01*
X0343438Y0047464D01*
X0343365Y0047399D01*
X0343289Y0047337D01*
X0343210Y0047277D01*
X0343130Y0047221D01*
X0343047Y0047168D01*
X0342963Y0047119D01*
X0342876Y0047072D01*
X0342788Y0047030D01*
X0342698Y0046990D01*
X0342606Y0046955D01*
X0342514Y0046922D01*
X0342420Y0046894D01*
X0342325Y0046869D01*
X0342229Y0046848D01*
X0342132Y0046831D01*
X0342035Y0046817D01*
X0341937Y0046808D01*
X0341839Y0046802D01*
X0341741Y0046800D01*
X0326741Y0046800D01*
X0326643Y0046802D01*
X0326545Y0046808D01*
X0326447Y0046817D01*
X0326350Y0046831D01*
X0326253Y0046848D01*
X0326157Y0046869D01*
X0326062Y0046894D01*
X0325968Y0046922D01*
X0325876Y0046955D01*
X0325784Y0046990D01*
X0325694Y0047030D01*
X0325606Y0047072D01*
X0325519Y0047119D01*
X0325435Y0047168D01*
X0325352Y0047221D01*
X0325272Y0047277D01*
X0325193Y0047337D01*
X0325117Y0047399D01*
X0325044Y0047464D01*
X0324973Y0047532D01*
X0324905Y0047603D01*
X0324840Y0047676D01*
X0324778Y0047752D01*
X0324718Y0047831D01*
X0324662Y0047911D01*
X0324609Y0047994D01*
X0324560Y0048078D01*
X0324513Y0048165D01*
X0324471Y0048253D01*
X0324431Y0048343D01*
X0324396Y0048435D01*
X0324363Y0048527D01*
X0324335Y0048621D01*
X0324310Y0048716D01*
X0324289Y0048812D01*
X0324272Y0048909D01*
X0324258Y0049006D01*
X0324249Y0049104D01*
X0324243Y0049202D01*
X0324241Y0049300D01*
D145*
X0335991Y0046054D02*
X0335991Y0043802D01*
X0337492Y0044553D01*
X0338243Y0044553D01*
X0338994Y0043802D01*
X0338994Y0042301D01*
X0338243Y0041550D01*
X0336742Y0041550D01*
X0335991Y0042301D01*
X0335991Y0046054D02*
X0338994Y0046054D01*
X0340595Y0045303D02*
X0341346Y0046054D01*
X0342847Y0046054D01*
X0343597Y0045303D01*
X0343597Y0044553D01*
X0340595Y0041550D01*
X0343597Y0041550D01*
X0355991Y0042301D02*
X0356742Y0041550D01*
X0358243Y0041550D01*
X0358994Y0042301D01*
X0358994Y0043802D01*
X0358243Y0044553D01*
X0357492Y0044553D01*
X0355991Y0043802D01*
X0355991Y0046054D01*
X0358994Y0046054D01*
X0360595Y0045303D02*
X0361346Y0046054D01*
X0362847Y0046054D01*
X0363597Y0045303D01*
X0363597Y0044553D01*
X0360595Y0041550D01*
X0363597Y0041550D01*
X0345491Y0296550D02*
X0344491Y0296550D01*
X0344491Y0297050D01*
X0345241Y0297050D01*
X0346991Y0307550D02*
X0349994Y0307550D01*
X0348492Y0307550D02*
X0348492Y0312054D01*
X0346991Y0310553D01*
X0353991Y0306800D02*
X0353991Y0305800D01*
X0354491Y0305800D02*
X0354491Y0306800D01*
X0334491Y0306800D02*
X0334491Y0305800D01*
X0333991Y0305800D02*
X0333991Y0306800D01*
X0329994Y0307550D02*
X0326991Y0307550D01*
X0328492Y0307550D02*
X0328492Y0312054D01*
X0326991Y0310553D01*
X0325241Y0297050D02*
X0324491Y0297050D01*
X0324491Y0296550D01*
X0325491Y0296550D01*
D146*
X0325241Y0296800D02*
X0334241Y0296800D01*
X0334241Y0305800D01*
X0345241Y0296800D02*
X0354241Y0296800D01*
X0354241Y0305800D01*
M02*
