G75*
%MOIN*%
%OFA0B0*%
%FSLAX25Y25*%
%IPPOS*%
%LPD*%
%AMOC8*
5,1,8,0,0,1.08239X$1,22.5*
%
%ADD10C,0.05600*%
%ADD11OC8,0.05600*%
%ADD12C,0.01600*%
D10*
X0329241Y0101800D03*
X0349241Y0101800D03*
X0349241Y0301800D03*
X0329241Y0301800D03*
D11*
X0339241Y0301800D03*
X0339241Y0291800D03*
X0349241Y0291800D03*
X0359241Y0291800D03*
X0359241Y0281800D03*
X0349241Y0281800D03*
X0349241Y0271800D03*
X0359241Y0271800D03*
X0359241Y0261800D03*
X0359241Y0251800D03*
X0349241Y0251800D03*
X0349241Y0261800D03*
X0339241Y0261800D03*
X0339241Y0251800D03*
X0339241Y0241800D03*
X0349241Y0241800D03*
X0359241Y0241800D03*
X0359241Y0231800D03*
X0349241Y0231800D03*
X0349241Y0221800D03*
X0359241Y0221800D03*
X0359241Y0211800D03*
X0359241Y0201800D03*
X0349241Y0201800D03*
X0349241Y0211800D03*
X0339241Y0211800D03*
X0339241Y0201800D03*
X0339241Y0191800D03*
X0349241Y0191800D03*
X0359241Y0191800D03*
X0359241Y0181800D03*
X0349241Y0181800D03*
X0349241Y0171800D03*
X0359241Y0171800D03*
X0359241Y0161800D03*
X0349241Y0161800D03*
X0349241Y0151800D03*
X0359241Y0151800D03*
X0359241Y0141800D03*
X0349241Y0141800D03*
X0349241Y0131800D03*
X0359241Y0131800D03*
X0359241Y0121800D03*
X0359241Y0111800D03*
X0349241Y0111800D03*
X0349241Y0121800D03*
X0339241Y0121800D03*
X0339241Y0111800D03*
X0339241Y0101800D03*
X0339241Y0091800D03*
X0349241Y0091800D03*
X0359241Y0091800D03*
X0359241Y0081800D03*
X0349241Y0081800D03*
X0349241Y0071800D03*
X0359241Y0071800D03*
X0359241Y0061800D03*
X0349241Y0061800D03*
X0349241Y0051800D03*
X0359241Y0051800D03*
X0339241Y0051800D03*
X0339241Y0061800D03*
X0339241Y0071800D03*
X0339241Y0081800D03*
X0329241Y0081800D03*
X0329241Y0071800D03*
X0329241Y0061800D03*
X0329241Y0051800D03*
X0329241Y0091800D03*
X0329241Y0111800D03*
X0329241Y0121800D03*
X0329241Y0131800D03*
X0339241Y0131800D03*
X0339241Y0141800D03*
X0339241Y0151800D03*
X0339241Y0161800D03*
X0339241Y0171800D03*
X0339241Y0181800D03*
X0329241Y0181800D03*
X0329241Y0171800D03*
X0329241Y0161800D03*
X0329241Y0151800D03*
X0329241Y0141800D03*
X0359241Y0101800D03*
X0329241Y0191800D03*
X0329241Y0201800D03*
X0329241Y0211800D03*
X0329241Y0221800D03*
X0339241Y0221800D03*
X0339241Y0231800D03*
X0329241Y0231800D03*
X0329241Y0241800D03*
X0329241Y0251800D03*
X0329241Y0261800D03*
X0329241Y0271800D03*
X0339241Y0271800D03*
X0339241Y0281800D03*
X0329241Y0281800D03*
X0329241Y0291800D03*
X0359241Y0301800D03*
D12*
X0259975Y0009793D02*
X0007127Y0009793D01*
X0006391Y0010328D02*
X0004513Y0012912D01*
X0003526Y0015951D01*
X0003400Y0017548D01*
X0003400Y0341564D01*
X0003526Y0343161D01*
X0004513Y0346199D01*
X0006391Y0348784D01*
X0008975Y0350662D01*
X0012014Y0351649D01*
X0013611Y0351775D01*
X0036943Y0351775D01*
X0037292Y0351644D01*
X0037580Y0351775D01*
X0037896Y0351775D01*
X0038159Y0352038D01*
X0046241Y0355712D01*
X0314546Y0355712D01*
X0341884Y0337563D01*
X0342240Y0337208D01*
X0342420Y0337208D01*
X0342570Y0337108D01*
X0343062Y0337208D01*
X0365776Y0337208D01*
X0367374Y0337082D01*
X0370412Y0336095D01*
X0372997Y0334217D01*
X0374874Y0331633D01*
X0375862Y0328594D01*
X0375987Y0326997D01*
X0375987Y0304301D01*
X0368790Y0289793D01*
X0368507Y0289510D01*
X0368507Y0289222D01*
X0368379Y0288965D01*
X0368507Y0288585D01*
X0368507Y0065243D01*
X0368380Y0064855D01*
X0368507Y0064606D01*
X0368507Y0064326D01*
X0368796Y0064037D01*
X0375987Y0049881D01*
X0375987Y0022666D01*
X0375862Y0021069D01*
X0374874Y0018030D01*
X0372997Y0015446D01*
X0370412Y0013568D01*
X0367374Y0012581D01*
X0365776Y0012455D01*
X0265580Y0012455D01*
X0265171Y0012578D01*
X0264941Y0012455D01*
X0264681Y0012455D01*
X0264379Y0012154D01*
X0248052Y0003400D01*
X0042393Y0003400D01*
X0033454Y0007094D01*
X0033211Y0007337D01*
X0032866Y0007337D01*
X0032547Y0007469D01*
X0032229Y0007337D01*
X0013611Y0007337D01*
X0012014Y0007463D01*
X0008975Y0008450D01*
X0006391Y0010328D01*
X0005618Y0011391D02*
X0262957Y0011391D01*
X0256994Y0008194D02*
X0009763Y0008194D01*
X0004488Y0012990D02*
X0368632Y0012990D01*
X0371816Y0014588D02*
X0024646Y0014588D01*
X0025605Y0014985D02*
X0027827Y0017207D01*
X0029030Y0020111D01*
X0029030Y0023253D01*
X0027827Y0026156D01*
X0025605Y0028379D01*
X0022702Y0029581D01*
X0019559Y0029581D01*
X0016656Y0028379D01*
X0014434Y0026156D01*
X0013231Y0023253D01*
X0013231Y0020111D01*
X0014434Y0017207D01*
X0016656Y0014985D01*
X0019559Y0013783D01*
X0022702Y0013783D01*
X0025605Y0014985D01*
X0026807Y0016187D02*
X0373535Y0016187D01*
X0374696Y0017785D02*
X0028067Y0017785D01*
X0028729Y0019384D02*
X0375314Y0019384D01*
X0375834Y0020982D02*
X0029030Y0020982D01*
X0029030Y0022581D02*
X0375981Y0022581D01*
X0375987Y0024179D02*
X0361044Y0024179D01*
X0360182Y0023822D02*
X0363086Y0025025D01*
X0365308Y0027247D01*
X0366510Y0030150D01*
X0366510Y0033293D01*
X0365308Y0036196D01*
X0363086Y0038418D01*
X0360182Y0039620D01*
X0357040Y0039620D01*
X0354136Y0038418D01*
X0351914Y0036196D01*
X0350712Y0033293D01*
X0350712Y0030150D01*
X0351914Y0027247D01*
X0354136Y0025025D01*
X0357040Y0023822D01*
X0360182Y0023822D01*
X0356178Y0024179D02*
X0028646Y0024179D01*
X0027984Y0025778D02*
X0353383Y0025778D01*
X0351861Y0027376D02*
X0026608Y0027376D01*
X0024166Y0028975D02*
X0351199Y0028975D01*
X0350712Y0030573D02*
X0003400Y0030573D01*
X0003400Y0028975D02*
X0018095Y0028975D01*
X0015654Y0027376D02*
X0003400Y0027376D01*
X0003400Y0025778D02*
X0014277Y0025778D01*
X0013615Y0024179D02*
X0003400Y0024179D01*
X0003400Y0022581D02*
X0013231Y0022581D01*
X0013231Y0020982D02*
X0003400Y0020982D01*
X0003400Y0019384D02*
X0013533Y0019384D01*
X0014195Y0017785D02*
X0003400Y0017785D01*
X0003507Y0016187D02*
X0015455Y0016187D01*
X0017615Y0014588D02*
X0003968Y0014588D01*
X0003400Y0032172D02*
X0350712Y0032172D01*
X0350910Y0033770D02*
X0003400Y0033770D01*
X0003400Y0035369D02*
X0351572Y0035369D01*
X0352686Y0036967D02*
X0003400Y0036967D01*
X0003400Y0038566D02*
X0354494Y0038566D01*
X0362729Y0038566D02*
X0375987Y0038566D01*
X0375987Y0040164D02*
X0003400Y0040164D01*
X0003400Y0041763D02*
X0375987Y0041763D01*
X0375987Y0043361D02*
X0003400Y0043361D01*
X0003400Y0044960D02*
X0375987Y0044960D01*
X0375987Y0046558D02*
X0003400Y0046558D01*
X0003400Y0048157D02*
X0326662Y0048157D01*
X0327418Y0047400D02*
X0331063Y0047400D01*
X0333641Y0049977D01*
X0333641Y0053623D01*
X0331063Y0056200D01*
X0327418Y0056200D01*
X0324841Y0053623D01*
X0324841Y0049977D01*
X0327418Y0047400D01*
X0325063Y0049755D02*
X0003400Y0049755D01*
X0003400Y0051354D02*
X0324841Y0051354D01*
X0324841Y0052952D02*
X0003400Y0052952D01*
X0003400Y0054551D02*
X0325769Y0054551D01*
X0327368Y0056149D02*
X0003400Y0056149D01*
X0003400Y0057748D02*
X0327071Y0057748D01*
X0327418Y0057400D02*
X0331063Y0057400D01*
X0333641Y0059977D01*
X0333641Y0063623D01*
X0331063Y0066200D01*
X0327418Y0066200D01*
X0324841Y0063623D01*
X0324841Y0059977D01*
X0327418Y0057400D01*
X0325472Y0059346D02*
X0003400Y0059346D01*
X0003400Y0060945D02*
X0324841Y0060945D01*
X0324841Y0062543D02*
X0003400Y0062543D01*
X0003400Y0064142D02*
X0325360Y0064142D01*
X0326959Y0065740D02*
X0003400Y0065740D01*
X0003400Y0067339D02*
X0368507Y0067339D01*
X0368507Y0068937D02*
X0362601Y0068937D01*
X0363641Y0069977D02*
X0361063Y0067400D01*
X0357418Y0067400D01*
X0354841Y0069977D01*
X0354841Y0073623D01*
X0357418Y0076200D01*
X0361063Y0076200D01*
X0363641Y0073623D01*
X0363641Y0069977D01*
X0363641Y0070536D02*
X0368507Y0070536D01*
X0368507Y0072134D02*
X0363641Y0072134D01*
X0363530Y0073733D02*
X0368507Y0073733D01*
X0368507Y0075332D02*
X0361932Y0075332D01*
X0361063Y0077400D02*
X0357418Y0077400D01*
X0354841Y0079977D01*
X0354841Y0083623D01*
X0357418Y0086200D01*
X0361063Y0086200D01*
X0363641Y0083623D01*
X0363641Y0079977D01*
X0361063Y0077400D01*
X0362192Y0078529D02*
X0368507Y0078529D01*
X0368507Y0080127D02*
X0363641Y0080127D01*
X0363641Y0081726D02*
X0368507Y0081726D01*
X0368507Y0083324D02*
X0363641Y0083324D01*
X0362341Y0084923D02*
X0368507Y0084923D01*
X0368507Y0086521D02*
X0003400Y0086521D01*
X0003400Y0084923D02*
X0326141Y0084923D01*
X0327418Y0086200D02*
X0324841Y0083623D01*
X0324841Y0079977D01*
X0327418Y0077400D01*
X0331063Y0077400D01*
X0333641Y0079977D01*
X0333641Y0083623D01*
X0331063Y0086200D01*
X0327418Y0086200D01*
X0327418Y0087400D02*
X0331063Y0087400D01*
X0333641Y0089977D01*
X0333641Y0093623D01*
X0331063Y0096200D01*
X0327418Y0096200D01*
X0324841Y0093623D01*
X0324841Y0089977D01*
X0327418Y0087400D01*
X0326699Y0088120D02*
X0003400Y0088120D01*
X0003400Y0089718D02*
X0325100Y0089718D01*
X0324841Y0091317D02*
X0003400Y0091317D01*
X0003400Y0092915D02*
X0324841Y0092915D01*
X0325732Y0094514D02*
X0003400Y0094514D01*
X0003400Y0096112D02*
X0327331Y0096112D01*
X0327616Y0097711D02*
X0003400Y0097711D01*
X0003400Y0099309D02*
X0325510Y0099309D01*
X0325511Y0099308D02*
X0326749Y0098070D01*
X0328366Y0097400D01*
X0330116Y0097400D01*
X0331733Y0098070D01*
X0332971Y0099308D01*
X0333641Y0100925D01*
X0333641Y0102675D01*
X0332971Y0104292D01*
X0331733Y0105530D01*
X0330116Y0106200D01*
X0328366Y0106200D01*
X0326749Y0105530D01*
X0325511Y0104292D01*
X0324841Y0102675D01*
X0324841Y0100925D01*
X0325511Y0099308D01*
X0324848Y0100908D02*
X0003400Y0100908D01*
X0003400Y0102506D02*
X0324841Y0102506D01*
X0325433Y0104105D02*
X0003400Y0104105D01*
X0003400Y0105703D02*
X0327166Y0105703D01*
X0327418Y0107400D02*
X0331063Y0107400D01*
X0333641Y0109977D01*
X0333641Y0113623D01*
X0331063Y0116200D01*
X0327418Y0116200D01*
X0324841Y0113623D01*
X0324841Y0109977D01*
X0327418Y0107400D01*
X0325918Y0108900D02*
X0003400Y0108900D01*
X0003400Y0107302D02*
X0368507Y0107302D01*
X0368507Y0108900D02*
X0362564Y0108900D01*
X0363641Y0109977D02*
X0361063Y0107400D01*
X0357418Y0107400D01*
X0354841Y0109977D01*
X0354841Y0113623D01*
X0357418Y0116200D01*
X0361063Y0116200D01*
X0363641Y0113623D01*
X0363641Y0109977D01*
X0363641Y0110499D02*
X0368507Y0110499D01*
X0368507Y0112097D02*
X0363641Y0112097D01*
X0363568Y0113696D02*
X0368507Y0113696D01*
X0368507Y0115294D02*
X0361969Y0115294D01*
X0361063Y0117400D02*
X0363641Y0119977D01*
X0363641Y0123623D01*
X0361063Y0126200D01*
X0357418Y0126200D01*
X0354841Y0123623D01*
X0354841Y0119977D01*
X0357418Y0117400D01*
X0361063Y0117400D01*
X0362155Y0118491D02*
X0368507Y0118491D01*
X0368507Y0116893D02*
X0003400Y0116893D01*
X0003400Y0118491D02*
X0326327Y0118491D01*
X0327418Y0117400D02*
X0331063Y0117400D01*
X0333641Y0119977D01*
X0333641Y0123623D01*
X0331063Y0126200D01*
X0327418Y0126200D01*
X0324841Y0123623D01*
X0324841Y0119977D01*
X0327418Y0117400D01*
X0326513Y0115294D02*
X0003400Y0115294D01*
X0003400Y0113696D02*
X0324914Y0113696D01*
X0324841Y0112097D02*
X0003400Y0112097D01*
X0003400Y0110499D02*
X0324841Y0110499D01*
X0332564Y0108900D02*
X0335918Y0108900D01*
X0334841Y0109977D02*
X0337418Y0107400D01*
X0341063Y0107400D01*
X0343641Y0109977D01*
X0343641Y0113623D01*
X0341063Y0116200D01*
X0337418Y0116200D01*
X0334841Y0113623D01*
X0334841Y0109977D01*
X0334841Y0110499D02*
X0333641Y0110499D01*
X0333641Y0112097D02*
X0334841Y0112097D01*
X0334914Y0113696D02*
X0333568Y0113696D01*
X0331969Y0115294D02*
X0336513Y0115294D01*
X0337418Y0117400D02*
X0341063Y0117400D01*
X0343641Y0119977D01*
X0343641Y0123623D01*
X0341063Y0126200D01*
X0337418Y0126200D01*
X0334841Y0123623D01*
X0334841Y0119977D01*
X0337418Y0117400D01*
X0336327Y0118491D02*
X0332155Y0118491D01*
X0333641Y0120090D02*
X0334841Y0120090D01*
X0334841Y0121688D02*
X0333641Y0121688D01*
X0333641Y0123287D02*
X0334841Y0123287D01*
X0336104Y0124885D02*
X0332378Y0124885D01*
X0331063Y0127400D02*
X0327418Y0127400D01*
X0324841Y0129977D01*
X0324841Y0133623D01*
X0327418Y0136200D01*
X0331063Y0136200D01*
X0333641Y0133623D01*
X0333641Y0129977D01*
X0331063Y0127400D01*
X0331746Y0128082D02*
X0336736Y0128082D01*
X0337418Y0127400D02*
X0341063Y0127400D01*
X0343641Y0129977D01*
X0343641Y0133623D01*
X0341063Y0136200D01*
X0337418Y0136200D01*
X0334841Y0133623D01*
X0334841Y0129977D01*
X0337418Y0127400D01*
X0335138Y0129681D02*
X0333344Y0129681D01*
X0333641Y0131279D02*
X0334841Y0131279D01*
X0334841Y0132878D02*
X0333641Y0132878D01*
X0332787Y0134476D02*
X0335695Y0134476D01*
X0337293Y0136075D02*
X0331189Y0136075D01*
X0331063Y0137400D02*
X0327418Y0137400D01*
X0324841Y0139977D01*
X0324841Y0143623D01*
X0327418Y0146200D01*
X0331063Y0146200D01*
X0333641Y0143623D01*
X0333641Y0139977D01*
X0331063Y0137400D01*
X0331337Y0137673D02*
X0337145Y0137673D01*
X0337418Y0137400D02*
X0341063Y0137400D01*
X0343641Y0139977D01*
X0343641Y0143623D01*
X0341063Y0146200D01*
X0337418Y0146200D01*
X0334841Y0143623D01*
X0334841Y0139977D01*
X0337418Y0137400D01*
X0335546Y0139272D02*
X0332935Y0139272D01*
X0333641Y0140870D02*
X0334841Y0140870D01*
X0334841Y0142469D02*
X0333641Y0142469D01*
X0333196Y0144068D02*
X0335286Y0144068D01*
X0336884Y0145666D02*
X0331597Y0145666D01*
X0331063Y0147400D02*
X0327418Y0147400D01*
X0324841Y0149977D01*
X0324841Y0153623D01*
X0327418Y0156200D01*
X0331063Y0156200D01*
X0333641Y0153623D01*
X0333641Y0149977D01*
X0331063Y0147400D01*
X0332527Y0148863D02*
X0335955Y0148863D01*
X0334841Y0149977D02*
X0337418Y0147400D01*
X0341063Y0147400D01*
X0343641Y0149977D01*
X0343641Y0153623D01*
X0341063Y0156200D01*
X0337418Y0156200D01*
X0334841Y0153623D01*
X0334841Y0149977D01*
X0334841Y0150462D02*
X0333641Y0150462D01*
X0333641Y0152060D02*
X0334841Y0152060D01*
X0334877Y0153659D02*
X0333605Y0153659D01*
X0332006Y0155257D02*
X0336476Y0155257D01*
X0337418Y0157400D02*
X0341063Y0157400D01*
X0343641Y0159977D01*
X0343641Y0163623D01*
X0341063Y0166200D01*
X0337418Y0166200D01*
X0334841Y0163623D01*
X0334841Y0159977D01*
X0337418Y0157400D01*
X0336364Y0158454D02*
X0332118Y0158454D01*
X0331063Y0157400D02*
X0333641Y0159977D01*
X0333641Y0163623D01*
X0331063Y0166200D01*
X0327418Y0166200D01*
X0324841Y0163623D01*
X0324841Y0159977D01*
X0327418Y0157400D01*
X0331063Y0157400D01*
X0333641Y0160053D02*
X0334841Y0160053D01*
X0334841Y0161651D02*
X0333641Y0161651D01*
X0333641Y0163250D02*
X0334841Y0163250D01*
X0336067Y0164848D02*
X0332415Y0164848D01*
X0331063Y0167400D02*
X0327418Y0167400D01*
X0324841Y0169977D01*
X0324841Y0173623D01*
X0327418Y0176200D01*
X0331063Y0176200D01*
X0333641Y0173623D01*
X0333641Y0169977D01*
X0331063Y0167400D01*
X0331709Y0168045D02*
X0336773Y0168045D01*
X0337418Y0167400D02*
X0341063Y0167400D01*
X0343641Y0169977D01*
X0343641Y0173623D01*
X0341063Y0176200D01*
X0337418Y0176200D01*
X0334841Y0173623D01*
X0334841Y0169977D01*
X0337418Y0167400D01*
X0335175Y0169644D02*
X0333307Y0169644D01*
X0333641Y0171242D02*
X0334841Y0171242D01*
X0334841Y0172841D02*
X0333641Y0172841D01*
X0332824Y0174439D02*
X0335658Y0174439D01*
X0337256Y0176038D02*
X0331226Y0176038D01*
X0331063Y0177400D02*
X0333641Y0179977D01*
X0333641Y0183623D01*
X0331063Y0186200D01*
X0327418Y0186200D01*
X0324841Y0183623D01*
X0324841Y0179977D01*
X0327418Y0177400D01*
X0331063Y0177400D01*
X0331300Y0177636D02*
X0337182Y0177636D01*
X0337418Y0177400D02*
X0341063Y0177400D01*
X0343641Y0179977D01*
X0343641Y0183623D01*
X0341063Y0186200D01*
X0337418Y0186200D01*
X0334841Y0183623D01*
X0334841Y0179977D01*
X0337418Y0177400D01*
X0335584Y0179235D02*
X0332898Y0179235D01*
X0333641Y0180833D02*
X0334841Y0180833D01*
X0334841Y0182432D02*
X0333641Y0182432D01*
X0333233Y0184030D02*
X0335249Y0184030D01*
X0336847Y0185629D02*
X0331635Y0185629D01*
X0331063Y0187400D02*
X0327418Y0187400D01*
X0324841Y0189977D01*
X0324841Y0193623D01*
X0327418Y0196200D01*
X0331063Y0196200D01*
X0333641Y0193623D01*
X0333641Y0189977D01*
X0331063Y0187400D01*
X0332489Y0188826D02*
X0335993Y0188826D01*
X0334841Y0189977D02*
X0337418Y0187400D01*
X0341063Y0187400D01*
X0343641Y0189977D01*
X0343641Y0193623D01*
X0341063Y0196200D01*
X0337418Y0196200D01*
X0334841Y0193623D01*
X0334841Y0189977D01*
X0334841Y0190424D02*
X0333641Y0190424D01*
X0333641Y0192023D02*
X0334841Y0192023D01*
X0334841Y0193621D02*
X0333641Y0193621D01*
X0332044Y0195220D02*
X0336438Y0195220D01*
X0337418Y0197400D02*
X0341063Y0197400D01*
X0343641Y0199977D01*
X0343641Y0203623D01*
X0341063Y0206200D01*
X0337418Y0206200D01*
X0334841Y0203623D01*
X0334841Y0199977D01*
X0337418Y0197400D01*
X0336402Y0198417D02*
X0332080Y0198417D01*
X0331063Y0197400D02*
X0333641Y0199977D01*
X0333641Y0203623D01*
X0331063Y0206200D01*
X0327418Y0206200D01*
X0324841Y0203623D01*
X0324841Y0199977D01*
X0327418Y0197400D01*
X0331063Y0197400D01*
X0333641Y0200015D02*
X0334841Y0200015D01*
X0334841Y0201614D02*
X0333641Y0201614D01*
X0333641Y0203212D02*
X0334841Y0203212D01*
X0336029Y0204811D02*
X0332453Y0204811D01*
X0331063Y0207400D02*
X0333641Y0209977D01*
X0333641Y0213623D01*
X0331063Y0216200D01*
X0327418Y0216200D01*
X0324841Y0213623D01*
X0324841Y0209977D01*
X0327418Y0207400D01*
X0331063Y0207400D01*
X0331671Y0208008D02*
X0336810Y0208008D01*
X0337418Y0207400D02*
X0341063Y0207400D01*
X0343641Y0209977D01*
X0343641Y0213623D01*
X0341063Y0216200D01*
X0337418Y0216200D01*
X0334841Y0213623D01*
X0334841Y0209977D01*
X0337418Y0207400D01*
X0335212Y0209606D02*
X0333270Y0209606D01*
X0333641Y0211205D02*
X0334841Y0211205D01*
X0334841Y0212803D02*
X0333641Y0212803D01*
X0332861Y0214402D02*
X0335620Y0214402D01*
X0337219Y0216001D02*
X0331263Y0216001D01*
X0331063Y0217400D02*
X0333641Y0219977D01*
X0333641Y0223623D01*
X0331063Y0226200D01*
X0327418Y0226200D01*
X0324841Y0223623D01*
X0324841Y0219977D01*
X0327418Y0217400D01*
X0331063Y0217400D01*
X0331263Y0217599D02*
X0337219Y0217599D01*
X0337418Y0217400D02*
X0341063Y0217400D01*
X0343641Y0219977D01*
X0343641Y0223623D01*
X0341063Y0226200D01*
X0337418Y0226200D01*
X0334841Y0223623D01*
X0334841Y0219977D01*
X0337418Y0217400D01*
X0335621Y0219198D02*
X0332861Y0219198D01*
X0333641Y0220796D02*
X0334841Y0220796D01*
X0334841Y0222395D02*
X0333641Y0222395D01*
X0333270Y0223993D02*
X0335211Y0223993D01*
X0336810Y0225592D02*
X0331672Y0225592D01*
X0331063Y0227400D02*
X0327418Y0227400D01*
X0324841Y0229977D01*
X0324841Y0233623D01*
X0327418Y0236200D01*
X0331063Y0236200D01*
X0333641Y0233623D01*
X0333641Y0229977D01*
X0331063Y0227400D01*
X0332452Y0228789D02*
X0336030Y0228789D01*
X0334841Y0229977D02*
X0337418Y0227400D01*
X0341063Y0227400D01*
X0343641Y0229977D01*
X0343641Y0233623D01*
X0341063Y0236200D01*
X0337418Y0236200D01*
X0334841Y0233623D01*
X0334841Y0229977D01*
X0334841Y0230387D02*
X0333641Y0230387D01*
X0333641Y0231986D02*
X0334841Y0231986D01*
X0334841Y0233584D02*
X0333641Y0233584D01*
X0332081Y0235183D02*
X0336401Y0235183D01*
X0337418Y0237400D02*
X0341063Y0237400D01*
X0343641Y0239977D01*
X0343641Y0243623D01*
X0341063Y0246200D01*
X0337418Y0246200D01*
X0334841Y0243623D01*
X0334841Y0239977D01*
X0337418Y0237400D01*
X0336439Y0238380D02*
X0332043Y0238380D01*
X0331063Y0237400D02*
X0333641Y0239977D01*
X0333641Y0243623D01*
X0331063Y0246200D01*
X0327418Y0246200D01*
X0324841Y0243623D01*
X0324841Y0239977D01*
X0327418Y0237400D01*
X0331063Y0237400D01*
X0333641Y0239978D02*
X0334841Y0239978D01*
X0334841Y0241577D02*
X0333641Y0241577D01*
X0333641Y0243175D02*
X0334841Y0243175D01*
X0335992Y0244774D02*
X0332490Y0244774D01*
X0331063Y0247400D02*
X0333641Y0249977D01*
X0333641Y0253623D01*
X0331063Y0256200D01*
X0327418Y0256200D01*
X0324841Y0253623D01*
X0324841Y0249977D01*
X0327418Y0247400D01*
X0331063Y0247400D01*
X0331634Y0247971D02*
X0336848Y0247971D01*
X0337418Y0247400D02*
X0334841Y0249977D01*
X0334841Y0253623D01*
X0337418Y0256200D01*
X0341063Y0256200D01*
X0343641Y0253623D01*
X0343641Y0249977D01*
X0341063Y0247400D01*
X0337418Y0247400D01*
X0335249Y0249569D02*
X0333233Y0249569D01*
X0333641Y0251168D02*
X0334841Y0251168D01*
X0334841Y0252766D02*
X0333641Y0252766D01*
X0332899Y0254365D02*
X0335583Y0254365D01*
X0337182Y0255963D02*
X0331300Y0255963D01*
X0331063Y0257400D02*
X0333641Y0259977D01*
X0333641Y0263623D01*
X0331063Y0266200D01*
X0327418Y0266200D01*
X0324841Y0263623D01*
X0324841Y0259977D01*
X0327418Y0257400D01*
X0331063Y0257400D01*
X0331225Y0257562D02*
X0337257Y0257562D01*
X0337418Y0257400D02*
X0341063Y0257400D01*
X0343641Y0259977D01*
X0343641Y0263623D01*
X0341063Y0266200D01*
X0337418Y0266200D01*
X0334841Y0263623D01*
X0334841Y0259977D01*
X0337418Y0257400D01*
X0335658Y0259160D02*
X0332824Y0259160D01*
X0333641Y0260759D02*
X0334841Y0260759D01*
X0334841Y0262357D02*
X0333641Y0262357D01*
X0333308Y0263956D02*
X0335174Y0263956D01*
X0336773Y0265554D02*
X0331709Y0265554D01*
X0331063Y0267400D02*
X0327418Y0267400D01*
X0324841Y0269977D01*
X0324841Y0273623D01*
X0327418Y0276200D01*
X0331063Y0276200D01*
X0333641Y0273623D01*
X0333641Y0269977D01*
X0331063Y0267400D01*
X0332415Y0268751D02*
X0336067Y0268751D01*
X0334841Y0269977D02*
X0337418Y0267400D01*
X0341063Y0267400D01*
X0343641Y0269977D01*
X0343641Y0273623D01*
X0341063Y0276200D01*
X0337418Y0276200D01*
X0334841Y0273623D01*
X0334841Y0269977D01*
X0334841Y0270350D02*
X0333641Y0270350D01*
X0333641Y0271948D02*
X0334841Y0271948D01*
X0334841Y0273547D02*
X0333641Y0273547D01*
X0332118Y0275145D02*
X0336364Y0275145D01*
X0337418Y0277400D02*
X0341063Y0277400D01*
X0343641Y0279977D01*
X0343641Y0283623D01*
X0341063Y0286200D01*
X0337418Y0286200D01*
X0334841Y0283623D01*
X0334841Y0279977D01*
X0337418Y0277400D01*
X0336476Y0278342D02*
X0332006Y0278342D01*
X0331063Y0277400D02*
X0333641Y0279977D01*
X0333641Y0283623D01*
X0331063Y0286200D01*
X0327418Y0286200D01*
X0324841Y0283623D01*
X0324841Y0279977D01*
X0327418Y0277400D01*
X0331063Y0277400D01*
X0333604Y0279941D02*
X0334877Y0279941D01*
X0334841Y0281539D02*
X0333641Y0281539D01*
X0333641Y0283138D02*
X0334841Y0283138D01*
X0335955Y0284737D02*
X0332527Y0284737D01*
X0331063Y0287400D02*
X0327418Y0287400D01*
X0324841Y0289977D01*
X0324841Y0293623D01*
X0327418Y0296200D01*
X0331063Y0296200D01*
X0333641Y0293623D01*
X0333641Y0289977D01*
X0331063Y0287400D01*
X0331597Y0287934D02*
X0336885Y0287934D01*
X0337418Y0287400D02*
X0341063Y0287400D01*
X0343641Y0289977D01*
X0343641Y0293623D01*
X0341063Y0296200D01*
X0337418Y0296200D01*
X0334841Y0293623D01*
X0334841Y0289977D01*
X0337418Y0287400D01*
X0335286Y0289532D02*
X0333196Y0289532D01*
X0333641Y0291131D02*
X0334841Y0291131D01*
X0334841Y0292729D02*
X0333641Y0292729D01*
X0332936Y0294328D02*
X0335546Y0294328D01*
X0337145Y0295926D02*
X0331337Y0295926D01*
X0330417Y0297525D02*
X0337294Y0297525D01*
X0337418Y0297400D02*
X0341063Y0297400D01*
X0343641Y0299977D01*
X0343641Y0303623D01*
X0341063Y0306200D01*
X0337418Y0306200D01*
X0334841Y0303623D01*
X0334841Y0299977D01*
X0337418Y0297400D01*
X0335695Y0299123D02*
X0332787Y0299123D01*
X0332971Y0299308D02*
X0333641Y0300925D01*
X0333641Y0302675D01*
X0332971Y0304292D01*
X0331733Y0305530D01*
X0330116Y0306200D01*
X0328366Y0306200D01*
X0326749Y0305530D01*
X0325511Y0304292D01*
X0324841Y0302675D01*
X0324841Y0300925D01*
X0325511Y0299308D01*
X0326749Y0298070D01*
X0328366Y0297400D01*
X0330116Y0297400D01*
X0331733Y0298070D01*
X0332971Y0299308D01*
X0333557Y0300722D02*
X0334841Y0300722D01*
X0334841Y0302320D02*
X0333641Y0302320D01*
X0333126Y0303919D02*
X0335137Y0303919D01*
X0336736Y0305517D02*
X0331746Y0305517D01*
X0326736Y0305517D02*
X0003400Y0305517D01*
X0003400Y0303919D02*
X0325356Y0303919D01*
X0324841Y0302320D02*
X0003400Y0302320D01*
X0003400Y0300722D02*
X0324925Y0300722D01*
X0325695Y0299123D02*
X0003400Y0299123D01*
X0003400Y0297525D02*
X0328065Y0297525D01*
X0327145Y0295926D02*
X0003400Y0295926D01*
X0003400Y0294328D02*
X0325546Y0294328D01*
X0324841Y0292729D02*
X0003400Y0292729D01*
X0003400Y0291131D02*
X0324841Y0291131D01*
X0325286Y0289532D02*
X0003400Y0289532D01*
X0003400Y0287934D02*
X0326885Y0287934D01*
X0325955Y0284737D02*
X0003400Y0284737D01*
X0003400Y0286335D02*
X0368507Y0286335D01*
X0368507Y0284737D02*
X0362527Y0284737D01*
X0363641Y0283623D02*
X0361063Y0286200D01*
X0357418Y0286200D01*
X0354841Y0283623D01*
X0354841Y0279977D01*
X0357418Y0277400D01*
X0361063Y0277400D01*
X0363641Y0279977D01*
X0363641Y0283623D01*
X0363641Y0283138D02*
X0368507Y0283138D01*
X0368507Y0281539D02*
X0363641Y0281539D01*
X0363604Y0279941D02*
X0368507Y0279941D01*
X0368507Y0278342D02*
X0362006Y0278342D01*
X0361063Y0276200D02*
X0357418Y0276200D01*
X0354841Y0273623D01*
X0354841Y0269977D01*
X0357418Y0267400D01*
X0361063Y0267400D01*
X0363641Y0269977D01*
X0363641Y0273623D01*
X0361063Y0276200D01*
X0362118Y0275145D02*
X0368507Y0275145D01*
X0368507Y0273547D02*
X0363641Y0273547D01*
X0363641Y0271948D02*
X0368507Y0271948D01*
X0368507Y0270350D02*
X0363641Y0270350D01*
X0362415Y0268751D02*
X0368507Y0268751D01*
X0368507Y0267153D02*
X0003400Y0267153D01*
X0003400Y0268751D02*
X0326067Y0268751D01*
X0324841Y0270350D02*
X0003400Y0270350D01*
X0003400Y0271948D02*
X0324841Y0271948D01*
X0324841Y0273547D02*
X0003400Y0273547D01*
X0003400Y0275145D02*
X0326364Y0275145D01*
X0326476Y0278342D02*
X0003400Y0278342D01*
X0003400Y0276744D02*
X0368507Y0276744D01*
X0368507Y0287934D02*
X0361597Y0287934D01*
X0361063Y0287400D02*
X0363641Y0289977D01*
X0363641Y0293623D01*
X0361063Y0296200D01*
X0357418Y0296200D01*
X0354841Y0293623D01*
X0354841Y0289977D01*
X0357418Y0287400D01*
X0361063Y0287400D01*
X0363196Y0289532D02*
X0368529Y0289532D01*
X0369454Y0291131D02*
X0363641Y0291131D01*
X0363641Y0292729D02*
X0370247Y0292729D01*
X0371040Y0294328D02*
X0362936Y0294328D01*
X0361337Y0295926D02*
X0371833Y0295926D01*
X0372626Y0297525D02*
X0361188Y0297525D01*
X0361063Y0297400D02*
X0363641Y0299977D01*
X0363641Y0303623D01*
X0361063Y0306200D01*
X0357418Y0306200D01*
X0354841Y0303623D01*
X0354841Y0299977D01*
X0357418Y0297400D01*
X0361063Y0297400D01*
X0362787Y0299123D02*
X0373419Y0299123D01*
X0374212Y0300722D02*
X0363641Y0300722D01*
X0363641Y0302320D02*
X0375005Y0302320D01*
X0375798Y0303919D02*
X0363345Y0303919D01*
X0361746Y0305517D02*
X0375987Y0305517D01*
X0375987Y0307116D02*
X0003400Y0307116D01*
X0003400Y0308714D02*
X0375987Y0308714D01*
X0375987Y0310313D02*
X0003400Y0310313D01*
X0003400Y0311911D02*
X0375987Y0311911D01*
X0375987Y0313510D02*
X0003400Y0313510D01*
X0003400Y0315108D02*
X0354053Y0315108D01*
X0354136Y0315025D02*
X0357040Y0313822D01*
X0360182Y0313822D01*
X0363086Y0315025D01*
X0365308Y0317247D01*
X0366510Y0320150D01*
X0366510Y0323293D01*
X0365308Y0326196D01*
X0363086Y0328418D01*
X0360182Y0329620D01*
X0357040Y0329620D01*
X0354136Y0328418D01*
X0351914Y0326196D01*
X0350712Y0323293D01*
X0350712Y0320150D01*
X0351914Y0317247D01*
X0354136Y0315025D01*
X0352454Y0316707D02*
X0003400Y0316707D01*
X0003400Y0318305D02*
X0351476Y0318305D01*
X0350814Y0319904D02*
X0003400Y0319904D01*
X0003400Y0321502D02*
X0350712Y0321502D01*
X0350712Y0323101D02*
X0003400Y0323101D01*
X0003400Y0324699D02*
X0351295Y0324699D01*
X0352016Y0326298D02*
X0003400Y0326298D01*
X0003400Y0327896D02*
X0353615Y0327896D01*
X0356736Y0329495D02*
X0024326Y0329495D01*
X0025605Y0330025D02*
X0027827Y0332247D01*
X0029030Y0335150D01*
X0029030Y0338293D01*
X0027827Y0341196D01*
X0025605Y0343418D01*
X0022702Y0344620D01*
X0019559Y0344620D01*
X0016656Y0343418D01*
X0014434Y0341196D01*
X0013231Y0338293D01*
X0013231Y0335150D01*
X0014434Y0332247D01*
X0016656Y0330025D01*
X0019559Y0328822D01*
X0022702Y0328822D01*
X0025605Y0330025D01*
X0026674Y0331093D02*
X0375050Y0331093D01*
X0375569Y0329495D02*
X0360486Y0329495D01*
X0363607Y0327896D02*
X0375917Y0327896D01*
X0375987Y0326298D02*
X0365206Y0326298D01*
X0365928Y0324699D02*
X0375987Y0324699D01*
X0375987Y0323101D02*
X0366510Y0323101D01*
X0366510Y0321502D02*
X0375987Y0321502D01*
X0375987Y0319904D02*
X0366408Y0319904D01*
X0365746Y0318305D02*
X0375987Y0318305D01*
X0375987Y0316707D02*
X0364768Y0316707D01*
X0363169Y0315108D02*
X0375987Y0315108D01*
X0374105Y0332692D02*
X0028012Y0332692D01*
X0028674Y0334290D02*
X0372896Y0334290D01*
X0370696Y0335889D02*
X0029030Y0335889D01*
X0029030Y0337487D02*
X0341960Y0337487D01*
X0339591Y0339086D02*
X0028701Y0339086D01*
X0028039Y0340684D02*
X0337183Y0340684D01*
X0334775Y0342283D02*
X0026740Y0342283D01*
X0024486Y0343881D02*
X0332367Y0343881D01*
X0329959Y0345480D02*
X0004279Y0345480D01*
X0003760Y0343881D02*
X0017775Y0343881D01*
X0015521Y0342283D02*
X0003457Y0342283D01*
X0003400Y0340684D02*
X0014222Y0340684D01*
X0013560Y0339086D02*
X0003400Y0339086D01*
X0003400Y0337487D02*
X0013231Y0337487D01*
X0013231Y0335889D02*
X0003400Y0335889D01*
X0003400Y0334290D02*
X0013588Y0334290D01*
X0014250Y0332692D02*
X0003400Y0332692D01*
X0003400Y0331093D02*
X0015587Y0331093D01*
X0017935Y0329495D02*
X0003400Y0329495D01*
X0005152Y0347078D02*
X0327551Y0347078D01*
X0325143Y0348677D02*
X0006313Y0348677D01*
X0008443Y0350275D02*
X0322735Y0350275D01*
X0320327Y0351874D02*
X0037995Y0351874D01*
X0041315Y0353472D02*
X0317919Y0353472D01*
X0315511Y0355071D02*
X0044831Y0355071D01*
X0003400Y0283138D02*
X0324841Y0283138D01*
X0324841Y0281539D02*
X0003400Y0281539D01*
X0003400Y0279941D02*
X0324877Y0279941D01*
X0326773Y0265554D02*
X0003400Y0265554D01*
X0003400Y0263956D02*
X0325174Y0263956D01*
X0324841Y0262357D02*
X0003400Y0262357D01*
X0003400Y0260759D02*
X0324841Y0260759D01*
X0325658Y0259160D02*
X0003400Y0259160D01*
X0003400Y0257562D02*
X0327257Y0257562D01*
X0327182Y0255963D02*
X0003400Y0255963D01*
X0003400Y0254365D02*
X0325583Y0254365D01*
X0324841Y0252766D02*
X0003400Y0252766D01*
X0003400Y0251168D02*
X0324841Y0251168D01*
X0325249Y0249569D02*
X0003400Y0249569D01*
X0003400Y0247971D02*
X0326848Y0247971D01*
X0325992Y0244774D02*
X0003400Y0244774D01*
X0003400Y0246372D02*
X0368507Y0246372D01*
X0368507Y0244774D02*
X0362490Y0244774D01*
X0363641Y0243623D02*
X0361063Y0246200D01*
X0357418Y0246200D01*
X0354841Y0243623D01*
X0354841Y0239977D01*
X0357418Y0237400D01*
X0361063Y0237400D01*
X0363641Y0239977D01*
X0363641Y0243623D01*
X0363641Y0243175D02*
X0368507Y0243175D01*
X0368507Y0241577D02*
X0363641Y0241577D01*
X0363641Y0239978D02*
X0368507Y0239978D01*
X0368507Y0238380D02*
X0362043Y0238380D01*
X0361063Y0236200D02*
X0357418Y0236200D01*
X0354841Y0233623D01*
X0354841Y0229977D01*
X0357418Y0227400D01*
X0361063Y0227400D01*
X0363641Y0229977D01*
X0363641Y0233623D01*
X0361063Y0236200D01*
X0362081Y0235183D02*
X0368507Y0235183D01*
X0368507Y0236781D02*
X0003400Y0236781D01*
X0003400Y0235183D02*
X0326401Y0235183D01*
X0324841Y0233584D02*
X0003400Y0233584D01*
X0003400Y0231986D02*
X0324841Y0231986D01*
X0324841Y0230387D02*
X0003400Y0230387D01*
X0003400Y0228789D02*
X0326030Y0228789D01*
X0326810Y0225592D02*
X0003400Y0225592D01*
X0003400Y0227190D02*
X0368507Y0227190D01*
X0368507Y0225592D02*
X0361672Y0225592D01*
X0361063Y0226200D02*
X0357418Y0226200D01*
X0354841Y0223623D01*
X0354841Y0219977D01*
X0357418Y0217400D01*
X0361063Y0217400D01*
X0363641Y0219977D01*
X0363641Y0223623D01*
X0361063Y0226200D01*
X0362452Y0228789D02*
X0368507Y0228789D01*
X0368507Y0230387D02*
X0363641Y0230387D01*
X0363641Y0231986D02*
X0368507Y0231986D01*
X0368507Y0233584D02*
X0363641Y0233584D01*
X0356401Y0235183D02*
X0352081Y0235183D01*
X0351063Y0236200D02*
X0347418Y0236200D01*
X0344841Y0233623D01*
X0344841Y0229977D01*
X0347418Y0227400D01*
X0351063Y0227400D01*
X0353641Y0229977D01*
X0353641Y0233623D01*
X0351063Y0236200D01*
X0351063Y0237400D02*
X0347418Y0237400D01*
X0344841Y0239977D01*
X0344841Y0243623D01*
X0347418Y0246200D01*
X0351063Y0246200D01*
X0353641Y0243623D01*
X0353641Y0239977D01*
X0351063Y0237400D01*
X0352043Y0238380D02*
X0356439Y0238380D01*
X0354841Y0239978D02*
X0353641Y0239978D01*
X0353641Y0241577D02*
X0354841Y0241577D01*
X0354841Y0243175D02*
X0353641Y0243175D01*
X0352490Y0244774D02*
X0355992Y0244774D01*
X0357418Y0247400D02*
X0354841Y0249977D01*
X0354841Y0253623D01*
X0357418Y0256200D01*
X0361063Y0256200D01*
X0363641Y0253623D01*
X0363641Y0249977D01*
X0361063Y0247400D01*
X0357418Y0247400D01*
X0356848Y0247971D02*
X0351634Y0247971D01*
X0351063Y0247400D02*
X0347418Y0247400D01*
X0344841Y0249977D01*
X0344841Y0253623D01*
X0347418Y0256200D01*
X0351063Y0256200D01*
X0353641Y0253623D01*
X0353641Y0249977D01*
X0351063Y0247400D01*
X0353233Y0249569D02*
X0355249Y0249569D01*
X0354841Y0251168D02*
X0353641Y0251168D01*
X0353641Y0252766D02*
X0354841Y0252766D01*
X0355583Y0254365D02*
X0352899Y0254365D01*
X0351300Y0255963D02*
X0357182Y0255963D01*
X0357418Y0257400D02*
X0361063Y0257400D01*
X0363641Y0259977D01*
X0363641Y0263623D01*
X0361063Y0266200D01*
X0357418Y0266200D01*
X0354841Y0263623D01*
X0354841Y0259977D01*
X0357418Y0257400D01*
X0357257Y0257562D02*
X0351225Y0257562D01*
X0351063Y0257400D02*
X0353641Y0259977D01*
X0353641Y0263623D01*
X0351063Y0266200D01*
X0347418Y0266200D01*
X0344841Y0263623D01*
X0344841Y0259977D01*
X0347418Y0257400D01*
X0351063Y0257400D01*
X0352824Y0259160D02*
X0355658Y0259160D01*
X0354841Y0260759D02*
X0353641Y0260759D01*
X0353641Y0262357D02*
X0354841Y0262357D01*
X0355174Y0263956D02*
X0353308Y0263956D01*
X0351709Y0265554D02*
X0356773Y0265554D01*
X0356067Y0268751D02*
X0352415Y0268751D01*
X0353641Y0269977D02*
X0351063Y0267400D01*
X0347418Y0267400D01*
X0344841Y0269977D01*
X0344841Y0273623D01*
X0347418Y0276200D01*
X0351063Y0276200D01*
X0353641Y0273623D01*
X0353641Y0269977D01*
X0353641Y0270350D02*
X0354841Y0270350D01*
X0354841Y0271948D02*
X0353641Y0271948D01*
X0353641Y0273547D02*
X0354841Y0273547D01*
X0356364Y0275145D02*
X0352118Y0275145D01*
X0351063Y0277400D02*
X0347418Y0277400D01*
X0344841Y0279977D01*
X0344841Y0283623D01*
X0347418Y0286200D01*
X0351063Y0286200D01*
X0353641Y0283623D01*
X0353641Y0279977D01*
X0351063Y0277400D01*
X0352006Y0278342D02*
X0356476Y0278342D01*
X0354877Y0279941D02*
X0353604Y0279941D01*
X0353641Y0281539D02*
X0354841Y0281539D01*
X0354841Y0283138D02*
X0353641Y0283138D01*
X0352527Y0284737D02*
X0355955Y0284737D01*
X0356885Y0287934D02*
X0351597Y0287934D01*
X0351063Y0287400D02*
X0353641Y0289977D01*
X0353641Y0293623D01*
X0351063Y0296200D01*
X0347418Y0296200D01*
X0344841Y0293623D01*
X0344841Y0289977D01*
X0347418Y0287400D01*
X0351063Y0287400D01*
X0353196Y0289532D02*
X0355286Y0289532D01*
X0354841Y0291131D02*
X0353641Y0291131D01*
X0353641Y0292729D02*
X0354841Y0292729D01*
X0355546Y0294328D02*
X0352936Y0294328D01*
X0351337Y0295926D02*
X0357145Y0295926D01*
X0357294Y0297525D02*
X0350417Y0297525D01*
X0350116Y0297400D02*
X0351733Y0298070D01*
X0352971Y0299308D01*
X0353641Y0300925D01*
X0353641Y0302675D01*
X0352971Y0304292D01*
X0351733Y0305530D01*
X0350116Y0306200D01*
X0348366Y0306200D01*
X0346749Y0305530D01*
X0345511Y0304292D01*
X0344841Y0302675D01*
X0344841Y0300925D01*
X0345511Y0299308D01*
X0346749Y0298070D01*
X0348366Y0297400D01*
X0350116Y0297400D01*
X0348065Y0297525D02*
X0341188Y0297525D01*
X0341337Y0295926D02*
X0347145Y0295926D01*
X0345546Y0294328D02*
X0342936Y0294328D01*
X0343641Y0292729D02*
X0344841Y0292729D01*
X0344841Y0291131D02*
X0343641Y0291131D01*
X0343196Y0289532D02*
X0345286Y0289532D01*
X0346885Y0287934D02*
X0341597Y0287934D01*
X0342527Y0284737D02*
X0345955Y0284737D01*
X0344841Y0283138D02*
X0343641Y0283138D01*
X0343641Y0281539D02*
X0344841Y0281539D01*
X0344877Y0279941D02*
X0343604Y0279941D01*
X0342006Y0278342D02*
X0346476Y0278342D01*
X0346364Y0275145D02*
X0342118Y0275145D01*
X0343641Y0273547D02*
X0344841Y0273547D01*
X0344841Y0271948D02*
X0343641Y0271948D01*
X0343641Y0270350D02*
X0344841Y0270350D01*
X0346067Y0268751D02*
X0342415Y0268751D01*
X0341709Y0265554D02*
X0346773Y0265554D01*
X0345174Y0263956D02*
X0343308Y0263956D01*
X0343641Y0262357D02*
X0344841Y0262357D01*
X0344841Y0260759D02*
X0343641Y0260759D01*
X0342824Y0259160D02*
X0345658Y0259160D01*
X0347257Y0257562D02*
X0341225Y0257562D01*
X0341300Y0255963D02*
X0347182Y0255963D01*
X0345583Y0254365D02*
X0342899Y0254365D01*
X0343641Y0252766D02*
X0344841Y0252766D01*
X0344841Y0251168D02*
X0343641Y0251168D01*
X0343233Y0249569D02*
X0345249Y0249569D01*
X0346848Y0247971D02*
X0341634Y0247971D01*
X0342490Y0244774D02*
X0345992Y0244774D01*
X0344841Y0243175D02*
X0343641Y0243175D01*
X0343641Y0241577D02*
X0344841Y0241577D01*
X0344841Y0239978D02*
X0343641Y0239978D01*
X0342043Y0238380D02*
X0346439Y0238380D01*
X0346401Y0235183D02*
X0342081Y0235183D01*
X0343641Y0233584D02*
X0344841Y0233584D01*
X0344841Y0231986D02*
X0343641Y0231986D01*
X0343641Y0230387D02*
X0344841Y0230387D01*
X0346030Y0228789D02*
X0342452Y0228789D01*
X0341672Y0225592D02*
X0346810Y0225592D01*
X0347418Y0226200D02*
X0344841Y0223623D01*
X0344841Y0219977D01*
X0347418Y0217400D01*
X0351063Y0217400D01*
X0353641Y0219977D01*
X0353641Y0223623D01*
X0351063Y0226200D01*
X0347418Y0226200D01*
X0345211Y0223993D02*
X0343270Y0223993D01*
X0343641Y0222395D02*
X0344841Y0222395D01*
X0344841Y0220796D02*
X0343641Y0220796D01*
X0342861Y0219198D02*
X0345621Y0219198D01*
X0347219Y0217599D02*
X0341263Y0217599D01*
X0341263Y0216001D02*
X0347219Y0216001D01*
X0347418Y0216200D02*
X0344841Y0213623D01*
X0344841Y0209977D01*
X0347418Y0207400D01*
X0351063Y0207400D01*
X0353641Y0209977D01*
X0353641Y0213623D01*
X0351063Y0216200D01*
X0347418Y0216200D01*
X0345620Y0214402D02*
X0342861Y0214402D01*
X0343641Y0212803D02*
X0344841Y0212803D01*
X0344841Y0211205D02*
X0343641Y0211205D01*
X0343270Y0209606D02*
X0345212Y0209606D01*
X0346810Y0208008D02*
X0341671Y0208008D01*
X0342453Y0204811D02*
X0346029Y0204811D01*
X0344841Y0203623D02*
X0347418Y0206200D01*
X0351063Y0206200D01*
X0353641Y0203623D01*
X0353641Y0199977D01*
X0351063Y0197400D01*
X0347418Y0197400D01*
X0344841Y0199977D01*
X0344841Y0203623D01*
X0344841Y0203212D02*
X0343641Y0203212D01*
X0343641Y0201614D02*
X0344841Y0201614D01*
X0344841Y0200015D02*
X0343641Y0200015D01*
X0342080Y0198417D02*
X0346402Y0198417D01*
X0347418Y0196200D02*
X0344841Y0193623D01*
X0344841Y0189977D01*
X0347418Y0187400D01*
X0351063Y0187400D01*
X0353641Y0189977D01*
X0353641Y0193623D01*
X0351063Y0196200D01*
X0347418Y0196200D01*
X0346438Y0195220D02*
X0342044Y0195220D01*
X0343641Y0193621D02*
X0344841Y0193621D01*
X0344841Y0192023D02*
X0343641Y0192023D01*
X0343641Y0190424D02*
X0344841Y0190424D01*
X0345993Y0188826D02*
X0342489Y0188826D01*
X0341635Y0185629D02*
X0346847Y0185629D01*
X0347418Y0186200D02*
X0344841Y0183623D01*
X0344841Y0179977D01*
X0347418Y0177400D01*
X0351063Y0177400D01*
X0353641Y0179977D01*
X0353641Y0183623D01*
X0351063Y0186200D01*
X0347418Y0186200D01*
X0345249Y0184030D02*
X0343233Y0184030D01*
X0343641Y0182432D02*
X0344841Y0182432D01*
X0344841Y0180833D02*
X0343641Y0180833D01*
X0342898Y0179235D02*
X0345584Y0179235D01*
X0347182Y0177636D02*
X0341300Y0177636D01*
X0341226Y0176038D02*
X0347256Y0176038D01*
X0347418Y0176200D02*
X0344841Y0173623D01*
X0344841Y0169977D01*
X0347418Y0167400D01*
X0351063Y0167400D01*
X0353641Y0169977D01*
X0353641Y0173623D01*
X0351063Y0176200D01*
X0347418Y0176200D01*
X0345658Y0174439D02*
X0342824Y0174439D01*
X0343641Y0172841D02*
X0344841Y0172841D01*
X0344841Y0171242D02*
X0343641Y0171242D01*
X0343307Y0169644D02*
X0345175Y0169644D01*
X0346773Y0168045D02*
X0341709Y0168045D01*
X0342415Y0164848D02*
X0346067Y0164848D01*
X0344841Y0163623D02*
X0344841Y0159977D01*
X0347418Y0157400D01*
X0351063Y0157400D01*
X0353641Y0159977D01*
X0353641Y0163623D01*
X0351063Y0166200D01*
X0347418Y0166200D01*
X0344841Y0163623D01*
X0344841Y0163250D02*
X0343641Y0163250D01*
X0343641Y0161651D02*
X0344841Y0161651D01*
X0344841Y0160053D02*
X0343641Y0160053D01*
X0342118Y0158454D02*
X0346364Y0158454D01*
X0347418Y0156200D02*
X0344841Y0153623D01*
X0344841Y0149977D01*
X0347418Y0147400D01*
X0351063Y0147400D01*
X0353641Y0149977D01*
X0353641Y0153623D01*
X0351063Y0156200D01*
X0347418Y0156200D01*
X0346476Y0155257D02*
X0342006Y0155257D01*
X0343605Y0153659D02*
X0344877Y0153659D01*
X0344841Y0152060D02*
X0343641Y0152060D01*
X0343641Y0150462D02*
X0344841Y0150462D01*
X0345955Y0148863D02*
X0342527Y0148863D01*
X0341597Y0145666D02*
X0346884Y0145666D01*
X0347418Y0146200D02*
X0344841Y0143623D01*
X0344841Y0139977D01*
X0347418Y0137400D01*
X0351063Y0137400D01*
X0353641Y0139977D01*
X0353641Y0143623D01*
X0351063Y0146200D01*
X0347418Y0146200D01*
X0345286Y0144068D02*
X0343196Y0144068D01*
X0343641Y0142469D02*
X0344841Y0142469D01*
X0344841Y0140870D02*
X0343641Y0140870D01*
X0342935Y0139272D02*
X0345546Y0139272D01*
X0347145Y0137673D02*
X0341337Y0137673D01*
X0341189Y0136075D02*
X0347293Y0136075D01*
X0347418Y0136200D02*
X0344841Y0133623D01*
X0344841Y0129977D01*
X0347418Y0127400D01*
X0351063Y0127400D01*
X0353641Y0129977D01*
X0353641Y0133623D01*
X0351063Y0136200D01*
X0347418Y0136200D01*
X0345695Y0134476D02*
X0342787Y0134476D01*
X0343641Y0132878D02*
X0344841Y0132878D01*
X0344841Y0131279D02*
X0343641Y0131279D01*
X0343344Y0129681D02*
X0345137Y0129681D01*
X0346736Y0128082D02*
X0341746Y0128082D01*
X0342378Y0124885D02*
X0346104Y0124885D01*
X0344841Y0123623D02*
X0344841Y0119977D01*
X0347418Y0117400D01*
X0351063Y0117400D01*
X0353641Y0119977D01*
X0353641Y0123623D01*
X0351063Y0126200D01*
X0347418Y0126200D01*
X0344841Y0123623D01*
X0344841Y0123287D02*
X0343641Y0123287D01*
X0343641Y0121688D02*
X0344841Y0121688D01*
X0344841Y0120090D02*
X0343641Y0120090D01*
X0342155Y0118491D02*
X0346327Y0118491D01*
X0347418Y0116200D02*
X0344841Y0113623D01*
X0344841Y0109977D01*
X0347418Y0107400D01*
X0351063Y0107400D01*
X0353641Y0109977D01*
X0353641Y0113623D01*
X0351063Y0116200D01*
X0347418Y0116200D01*
X0346513Y0115294D02*
X0341969Y0115294D01*
X0343568Y0113696D02*
X0344914Y0113696D01*
X0344841Y0112097D02*
X0343641Y0112097D01*
X0343641Y0110499D02*
X0344841Y0110499D01*
X0345918Y0108900D02*
X0342564Y0108900D01*
X0341063Y0106200D02*
X0337418Y0106200D01*
X0334841Y0103623D01*
X0334841Y0099977D01*
X0337418Y0097400D01*
X0341063Y0097400D01*
X0343641Y0099977D01*
X0343641Y0103623D01*
X0341063Y0106200D01*
X0341560Y0105703D02*
X0347166Y0105703D01*
X0346749Y0105530D02*
X0345511Y0104292D01*
X0344841Y0102675D01*
X0344841Y0100925D01*
X0345511Y0099308D01*
X0346749Y0098070D01*
X0348366Y0097400D01*
X0350116Y0097400D01*
X0351733Y0098070D01*
X0352971Y0099308D01*
X0353641Y0100925D01*
X0353641Y0102675D01*
X0352971Y0104292D01*
X0351733Y0105530D01*
X0350116Y0106200D01*
X0348366Y0106200D01*
X0346749Y0105530D01*
X0345433Y0104105D02*
X0343159Y0104105D01*
X0343641Y0102506D02*
X0344841Y0102506D01*
X0344848Y0100908D02*
X0343641Y0100908D01*
X0342973Y0099309D02*
X0345510Y0099309D01*
X0347616Y0097711D02*
X0341374Y0097711D01*
X0341063Y0096200D02*
X0337418Y0096200D01*
X0334841Y0093623D01*
X0334841Y0089977D01*
X0337418Y0087400D01*
X0341063Y0087400D01*
X0343641Y0089977D01*
X0343641Y0093623D01*
X0341063Y0096200D01*
X0341151Y0096112D02*
X0347331Y0096112D01*
X0347418Y0096200D02*
X0344841Y0093623D01*
X0344841Y0089977D01*
X0347418Y0087400D01*
X0351063Y0087400D01*
X0353641Y0089977D01*
X0353641Y0093623D01*
X0351063Y0096200D01*
X0347418Y0096200D01*
X0345732Y0094514D02*
X0342750Y0094514D01*
X0343641Y0092915D02*
X0344841Y0092915D01*
X0344841Y0091317D02*
X0343641Y0091317D01*
X0343382Y0089718D02*
X0345100Y0089718D01*
X0346699Y0088120D02*
X0341783Y0088120D01*
X0341063Y0086200D02*
X0343641Y0083623D01*
X0343641Y0079977D01*
X0341063Y0077400D01*
X0337418Y0077400D01*
X0334841Y0079977D01*
X0334841Y0083623D01*
X0337418Y0086200D01*
X0341063Y0086200D01*
X0342341Y0084923D02*
X0346141Y0084923D01*
X0347418Y0086200D02*
X0344841Y0083623D01*
X0344841Y0079977D01*
X0347418Y0077400D01*
X0351063Y0077400D01*
X0353641Y0079977D01*
X0353641Y0083623D01*
X0351063Y0086200D01*
X0347418Y0086200D01*
X0344841Y0083324D02*
X0343641Y0083324D01*
X0343641Y0081726D02*
X0344841Y0081726D01*
X0344841Y0080127D02*
X0343641Y0080127D01*
X0342192Y0078529D02*
X0346290Y0078529D01*
X0347418Y0076200D02*
X0344841Y0073623D01*
X0344841Y0069977D01*
X0347418Y0067400D01*
X0351063Y0067400D01*
X0353641Y0069977D01*
X0353641Y0073623D01*
X0351063Y0076200D01*
X0347418Y0076200D01*
X0346550Y0075332D02*
X0341932Y0075332D01*
X0341063Y0076200D02*
X0343641Y0073623D01*
X0343641Y0069977D01*
X0341063Y0067400D01*
X0337418Y0067400D01*
X0334841Y0069977D01*
X0334841Y0073623D01*
X0337418Y0076200D01*
X0341063Y0076200D01*
X0343530Y0073733D02*
X0344951Y0073733D01*
X0344841Y0072134D02*
X0343641Y0072134D01*
X0343641Y0070536D02*
X0344841Y0070536D01*
X0345881Y0068937D02*
X0342601Y0068937D01*
X0341063Y0066200D02*
X0337418Y0066200D01*
X0334841Y0063623D01*
X0334841Y0059977D01*
X0337418Y0057400D01*
X0341063Y0057400D01*
X0343641Y0059977D01*
X0343641Y0063623D01*
X0341063Y0066200D01*
X0341523Y0065740D02*
X0346959Y0065740D01*
X0347418Y0066200D02*
X0344841Y0063623D01*
X0344841Y0059977D01*
X0347418Y0057400D01*
X0351063Y0057400D01*
X0353641Y0059977D01*
X0353641Y0063623D01*
X0351063Y0066200D01*
X0347418Y0066200D01*
X0345360Y0064142D02*
X0343122Y0064142D01*
X0343641Y0062543D02*
X0344841Y0062543D01*
X0344841Y0060945D02*
X0343641Y0060945D01*
X0343010Y0059346D02*
X0345472Y0059346D01*
X0347071Y0057748D02*
X0341411Y0057748D01*
X0341063Y0056200D02*
X0337418Y0056200D01*
X0334841Y0053623D01*
X0334841Y0049977D01*
X0337418Y0047400D01*
X0341063Y0047400D01*
X0343641Y0049977D01*
X0343641Y0053623D01*
X0341063Y0056200D01*
X0341114Y0056149D02*
X0347368Y0056149D01*
X0347418Y0056200D02*
X0344841Y0053623D01*
X0344841Y0049977D01*
X0347418Y0047400D01*
X0351063Y0047400D01*
X0353641Y0049977D01*
X0353641Y0053623D01*
X0351063Y0056200D01*
X0347418Y0056200D01*
X0345769Y0054551D02*
X0342713Y0054551D01*
X0343641Y0052952D02*
X0344841Y0052952D01*
X0344841Y0051354D02*
X0343641Y0051354D01*
X0343419Y0049755D02*
X0345063Y0049755D01*
X0346662Y0048157D02*
X0341820Y0048157D01*
X0336662Y0048157D02*
X0331820Y0048157D01*
X0333419Y0049755D02*
X0335063Y0049755D01*
X0334841Y0051354D02*
X0333641Y0051354D01*
X0333641Y0052952D02*
X0334841Y0052952D01*
X0335769Y0054551D02*
X0332713Y0054551D01*
X0331114Y0056149D02*
X0337368Y0056149D01*
X0337071Y0057748D02*
X0331411Y0057748D01*
X0333010Y0059346D02*
X0335472Y0059346D01*
X0334841Y0060945D02*
X0333641Y0060945D01*
X0333641Y0062543D02*
X0334841Y0062543D01*
X0335360Y0064142D02*
X0333122Y0064142D01*
X0331523Y0065740D02*
X0336959Y0065740D01*
X0335881Y0068937D02*
X0332601Y0068937D01*
X0333641Y0069977D02*
X0331063Y0067400D01*
X0327418Y0067400D01*
X0324841Y0069977D01*
X0324841Y0073623D01*
X0327418Y0076200D01*
X0331063Y0076200D01*
X0333641Y0073623D01*
X0333641Y0069977D01*
X0333641Y0070536D02*
X0334841Y0070536D01*
X0334841Y0072134D02*
X0333641Y0072134D01*
X0333530Y0073733D02*
X0334951Y0073733D01*
X0336550Y0075332D02*
X0331932Y0075332D01*
X0332192Y0078529D02*
X0336290Y0078529D01*
X0334841Y0080127D02*
X0333641Y0080127D01*
X0333641Y0081726D02*
X0334841Y0081726D01*
X0334841Y0083324D02*
X0333641Y0083324D01*
X0332341Y0084923D02*
X0336141Y0084923D01*
X0336699Y0088120D02*
X0331783Y0088120D01*
X0333382Y0089718D02*
X0335100Y0089718D01*
X0334841Y0091317D02*
X0333641Y0091317D01*
X0333641Y0092915D02*
X0334841Y0092915D01*
X0335732Y0094514D02*
X0332750Y0094514D01*
X0331151Y0096112D02*
X0337331Y0096112D01*
X0337108Y0097711D02*
X0330866Y0097711D01*
X0332972Y0099309D02*
X0335509Y0099309D01*
X0334841Y0100908D02*
X0333634Y0100908D01*
X0333641Y0102506D02*
X0334841Y0102506D01*
X0335323Y0104105D02*
X0333049Y0104105D01*
X0331315Y0105703D02*
X0336922Y0105703D01*
X0351315Y0105703D02*
X0356922Y0105703D01*
X0357418Y0106200D02*
X0354841Y0103623D01*
X0354841Y0099977D01*
X0357418Y0097400D01*
X0361063Y0097400D01*
X0363641Y0099977D01*
X0363641Y0103623D01*
X0361063Y0106200D01*
X0357418Y0106200D01*
X0355323Y0104105D02*
X0353049Y0104105D01*
X0353641Y0102506D02*
X0354841Y0102506D01*
X0354841Y0100908D02*
X0353634Y0100908D01*
X0352972Y0099309D02*
X0355509Y0099309D01*
X0357108Y0097711D02*
X0350866Y0097711D01*
X0351151Y0096112D02*
X0357331Y0096112D01*
X0357418Y0096200D02*
X0354841Y0093623D01*
X0354841Y0089977D01*
X0357418Y0087400D01*
X0361063Y0087400D01*
X0363641Y0089977D01*
X0363641Y0093623D01*
X0361063Y0096200D01*
X0357418Y0096200D01*
X0355732Y0094514D02*
X0352750Y0094514D01*
X0353641Y0092915D02*
X0354841Y0092915D01*
X0354841Y0091317D02*
X0353641Y0091317D01*
X0353382Y0089718D02*
X0355100Y0089718D01*
X0356699Y0088120D02*
X0351783Y0088120D01*
X0352341Y0084923D02*
X0356141Y0084923D01*
X0354841Y0083324D02*
X0353641Y0083324D01*
X0353641Y0081726D02*
X0354841Y0081726D01*
X0354841Y0080127D02*
X0353641Y0080127D01*
X0352192Y0078529D02*
X0356290Y0078529D01*
X0356550Y0075332D02*
X0351932Y0075332D01*
X0353530Y0073733D02*
X0354951Y0073733D01*
X0354841Y0072134D02*
X0353641Y0072134D01*
X0353641Y0070536D02*
X0354841Y0070536D01*
X0355881Y0068937D02*
X0352601Y0068937D01*
X0351523Y0065740D02*
X0356959Y0065740D01*
X0357418Y0066200D02*
X0354841Y0063623D01*
X0354841Y0059977D01*
X0357418Y0057400D01*
X0361063Y0057400D01*
X0363641Y0059977D01*
X0363641Y0063623D01*
X0361063Y0066200D01*
X0357418Y0066200D01*
X0355360Y0064142D02*
X0353122Y0064142D01*
X0353641Y0062543D02*
X0354841Y0062543D01*
X0354841Y0060945D02*
X0353641Y0060945D01*
X0353010Y0059346D02*
X0355472Y0059346D01*
X0357071Y0057748D02*
X0351411Y0057748D01*
X0351114Y0056149D02*
X0357368Y0056149D01*
X0357418Y0056200D02*
X0354841Y0053623D01*
X0354841Y0049977D01*
X0357418Y0047400D01*
X0361063Y0047400D01*
X0363641Y0049977D01*
X0363641Y0053623D01*
X0361063Y0056200D01*
X0357418Y0056200D01*
X0355769Y0054551D02*
X0352713Y0054551D01*
X0353641Y0052952D02*
X0354841Y0052952D01*
X0354841Y0051354D02*
X0353641Y0051354D01*
X0353419Y0049755D02*
X0355063Y0049755D01*
X0356662Y0048157D02*
X0351820Y0048157D01*
X0361820Y0048157D02*
X0375987Y0048157D01*
X0375987Y0049755D02*
X0363419Y0049755D01*
X0363641Y0051354D02*
X0375239Y0051354D01*
X0374427Y0052952D02*
X0363641Y0052952D01*
X0362713Y0054551D02*
X0373615Y0054551D01*
X0372803Y0056149D02*
X0361114Y0056149D01*
X0361411Y0057748D02*
X0371991Y0057748D01*
X0371179Y0059346D02*
X0363010Y0059346D01*
X0363641Y0060945D02*
X0370367Y0060945D01*
X0369555Y0062543D02*
X0363641Y0062543D01*
X0363122Y0064142D02*
X0368691Y0064142D01*
X0368507Y0065740D02*
X0361523Y0065740D01*
X0368507Y0076930D02*
X0003400Y0076930D01*
X0003400Y0075332D02*
X0326550Y0075332D01*
X0324951Y0073733D02*
X0003400Y0073733D01*
X0003400Y0072134D02*
X0324841Y0072134D01*
X0324841Y0070536D02*
X0003400Y0070536D01*
X0003400Y0068937D02*
X0325881Y0068937D01*
X0326290Y0078529D02*
X0003400Y0078529D01*
X0003400Y0080127D02*
X0324841Y0080127D01*
X0324841Y0081726D02*
X0003400Y0081726D01*
X0003400Y0083324D02*
X0324841Y0083324D01*
X0352564Y0108900D02*
X0355918Y0108900D01*
X0354841Y0110499D02*
X0353641Y0110499D01*
X0353641Y0112097D02*
X0354841Y0112097D01*
X0354914Y0113696D02*
X0353568Y0113696D01*
X0351969Y0115294D02*
X0356513Y0115294D01*
X0356327Y0118491D02*
X0352155Y0118491D01*
X0353641Y0120090D02*
X0354841Y0120090D01*
X0354841Y0121688D02*
X0353641Y0121688D01*
X0353641Y0123287D02*
X0354841Y0123287D01*
X0356104Y0124885D02*
X0352378Y0124885D01*
X0351746Y0128082D02*
X0356736Y0128082D01*
X0357418Y0127400D02*
X0361063Y0127400D01*
X0363641Y0129977D01*
X0363641Y0133623D01*
X0361063Y0136200D01*
X0357418Y0136200D01*
X0354841Y0133623D01*
X0354841Y0129977D01*
X0357418Y0127400D01*
X0355137Y0129681D02*
X0353344Y0129681D01*
X0353641Y0131279D02*
X0354841Y0131279D01*
X0354841Y0132878D02*
X0353641Y0132878D01*
X0352787Y0134476D02*
X0355695Y0134476D01*
X0357293Y0136075D02*
X0351189Y0136075D01*
X0351337Y0137673D02*
X0357145Y0137673D01*
X0357418Y0137400D02*
X0361063Y0137400D01*
X0363641Y0139977D01*
X0363641Y0143623D01*
X0361063Y0146200D01*
X0357418Y0146200D01*
X0354841Y0143623D01*
X0354841Y0139977D01*
X0357418Y0137400D01*
X0355546Y0139272D02*
X0352935Y0139272D01*
X0353641Y0140870D02*
X0354841Y0140870D01*
X0354841Y0142469D02*
X0353641Y0142469D01*
X0353196Y0144068D02*
X0355286Y0144068D01*
X0356884Y0145666D02*
X0351597Y0145666D01*
X0352527Y0148863D02*
X0355955Y0148863D01*
X0354841Y0149977D02*
X0357418Y0147400D01*
X0361063Y0147400D01*
X0363641Y0149977D01*
X0363641Y0153623D01*
X0361063Y0156200D01*
X0357418Y0156200D01*
X0354841Y0153623D01*
X0354841Y0149977D01*
X0354841Y0150462D02*
X0353641Y0150462D01*
X0353641Y0152060D02*
X0354841Y0152060D01*
X0354877Y0153659D02*
X0353605Y0153659D01*
X0352006Y0155257D02*
X0356476Y0155257D01*
X0357418Y0157400D02*
X0354841Y0159977D01*
X0354841Y0163623D01*
X0357418Y0166200D01*
X0361063Y0166200D01*
X0363641Y0163623D01*
X0363641Y0159977D01*
X0361063Y0157400D01*
X0357418Y0157400D01*
X0356364Y0158454D02*
X0352118Y0158454D01*
X0353641Y0160053D02*
X0354841Y0160053D01*
X0354841Y0161651D02*
X0353641Y0161651D01*
X0353641Y0163250D02*
X0354841Y0163250D01*
X0356067Y0164848D02*
X0352415Y0164848D01*
X0351709Y0168045D02*
X0356773Y0168045D01*
X0357418Y0167400D02*
X0361063Y0167400D01*
X0363641Y0169977D01*
X0363641Y0173623D01*
X0361063Y0176200D01*
X0357418Y0176200D01*
X0354841Y0173623D01*
X0354841Y0169977D01*
X0357418Y0167400D01*
X0355175Y0169644D02*
X0353307Y0169644D01*
X0353641Y0171242D02*
X0354841Y0171242D01*
X0354841Y0172841D02*
X0353641Y0172841D01*
X0352824Y0174439D02*
X0355658Y0174439D01*
X0357256Y0176038D02*
X0351226Y0176038D01*
X0351300Y0177636D02*
X0357182Y0177636D01*
X0357418Y0177400D02*
X0361063Y0177400D01*
X0363641Y0179977D01*
X0363641Y0183623D01*
X0361063Y0186200D01*
X0357418Y0186200D01*
X0354841Y0183623D01*
X0354841Y0179977D01*
X0357418Y0177400D01*
X0355584Y0179235D02*
X0352898Y0179235D01*
X0353641Y0180833D02*
X0354841Y0180833D01*
X0354841Y0182432D02*
X0353641Y0182432D01*
X0353233Y0184030D02*
X0355249Y0184030D01*
X0356847Y0185629D02*
X0351635Y0185629D01*
X0352489Y0188826D02*
X0355993Y0188826D01*
X0354841Y0189977D02*
X0357418Y0187400D01*
X0361063Y0187400D01*
X0363641Y0189977D01*
X0363641Y0193623D01*
X0361063Y0196200D01*
X0357418Y0196200D01*
X0354841Y0193623D01*
X0354841Y0189977D01*
X0354841Y0190424D02*
X0353641Y0190424D01*
X0353641Y0192023D02*
X0354841Y0192023D01*
X0354841Y0193621D02*
X0353641Y0193621D01*
X0352044Y0195220D02*
X0356438Y0195220D01*
X0357418Y0197400D02*
X0354841Y0199977D01*
X0354841Y0203623D01*
X0357418Y0206200D01*
X0361063Y0206200D01*
X0363641Y0203623D01*
X0363641Y0199977D01*
X0361063Y0197400D01*
X0357418Y0197400D01*
X0356402Y0198417D02*
X0352080Y0198417D01*
X0353641Y0200015D02*
X0354841Y0200015D01*
X0354841Y0201614D02*
X0353641Y0201614D01*
X0353641Y0203212D02*
X0354841Y0203212D01*
X0356029Y0204811D02*
X0352453Y0204811D01*
X0351671Y0208008D02*
X0356810Y0208008D01*
X0357418Y0207400D02*
X0361063Y0207400D01*
X0363641Y0209977D01*
X0363641Y0213623D01*
X0361063Y0216200D01*
X0357418Y0216200D01*
X0354841Y0213623D01*
X0354841Y0209977D01*
X0357418Y0207400D01*
X0355212Y0209606D02*
X0353270Y0209606D01*
X0353641Y0211205D02*
X0354841Y0211205D01*
X0354841Y0212803D02*
X0353641Y0212803D01*
X0352861Y0214402D02*
X0355620Y0214402D01*
X0357219Y0216001D02*
X0351263Y0216001D01*
X0351262Y0217599D02*
X0357219Y0217599D01*
X0355621Y0219198D02*
X0352861Y0219198D01*
X0353641Y0220796D02*
X0354841Y0220796D01*
X0354841Y0222395D02*
X0353641Y0222395D01*
X0353270Y0223993D02*
X0355211Y0223993D01*
X0356810Y0225592D02*
X0351672Y0225592D01*
X0352452Y0228789D02*
X0356030Y0228789D01*
X0354841Y0230387D02*
X0353641Y0230387D01*
X0353641Y0231986D02*
X0354841Y0231986D01*
X0354841Y0233584D02*
X0353641Y0233584D01*
X0363270Y0223993D02*
X0368507Y0223993D01*
X0368507Y0222395D02*
X0363641Y0222395D01*
X0363641Y0220796D02*
X0368507Y0220796D01*
X0368507Y0219198D02*
X0362861Y0219198D01*
X0361262Y0217599D02*
X0368507Y0217599D01*
X0368507Y0216001D02*
X0361263Y0216001D01*
X0362861Y0214402D02*
X0368507Y0214402D01*
X0368507Y0212803D02*
X0363641Y0212803D01*
X0363641Y0211205D02*
X0368507Y0211205D01*
X0368507Y0209606D02*
X0363270Y0209606D01*
X0361671Y0208008D02*
X0368507Y0208008D01*
X0368507Y0206409D02*
X0003400Y0206409D01*
X0003400Y0204811D02*
X0326029Y0204811D01*
X0324841Y0203212D02*
X0003400Y0203212D01*
X0003400Y0201614D02*
X0324841Y0201614D01*
X0324841Y0200015D02*
X0003400Y0200015D01*
X0003400Y0198417D02*
X0326402Y0198417D01*
X0326438Y0195220D02*
X0003400Y0195220D01*
X0003400Y0196818D02*
X0368507Y0196818D01*
X0368507Y0195220D02*
X0362044Y0195220D01*
X0363641Y0193621D02*
X0368507Y0193621D01*
X0368507Y0192023D02*
X0363641Y0192023D01*
X0363641Y0190424D02*
X0368507Y0190424D01*
X0368507Y0188826D02*
X0362489Y0188826D01*
X0361635Y0185629D02*
X0368507Y0185629D01*
X0368507Y0187227D02*
X0003400Y0187227D01*
X0003400Y0185629D02*
X0326847Y0185629D01*
X0325249Y0184030D02*
X0003400Y0184030D01*
X0003400Y0182432D02*
X0324841Y0182432D01*
X0324841Y0180833D02*
X0003400Y0180833D01*
X0003400Y0179235D02*
X0325584Y0179235D01*
X0327182Y0177636D02*
X0003400Y0177636D01*
X0003400Y0176038D02*
X0327256Y0176038D01*
X0325658Y0174439D02*
X0003400Y0174439D01*
X0003400Y0172841D02*
X0324841Y0172841D01*
X0324841Y0171242D02*
X0003400Y0171242D01*
X0003400Y0169644D02*
X0325175Y0169644D01*
X0326773Y0168045D02*
X0003400Y0168045D01*
X0003400Y0166447D02*
X0368507Y0166447D01*
X0368507Y0168045D02*
X0361709Y0168045D01*
X0363307Y0169644D02*
X0368507Y0169644D01*
X0368507Y0171242D02*
X0363641Y0171242D01*
X0363641Y0172841D02*
X0368507Y0172841D01*
X0368507Y0174439D02*
X0362824Y0174439D01*
X0361226Y0176038D02*
X0368507Y0176038D01*
X0368507Y0177636D02*
X0361300Y0177636D01*
X0362898Y0179235D02*
X0368507Y0179235D01*
X0368507Y0180833D02*
X0363641Y0180833D01*
X0363641Y0182432D02*
X0368507Y0182432D01*
X0368507Y0184030D02*
X0363233Y0184030D01*
X0362080Y0198417D02*
X0368507Y0198417D01*
X0368507Y0200015D02*
X0363641Y0200015D01*
X0363641Y0201614D02*
X0368507Y0201614D01*
X0368507Y0203212D02*
X0363641Y0203212D01*
X0362453Y0204811D02*
X0368507Y0204811D01*
X0326810Y0208008D02*
X0003400Y0208008D01*
X0003400Y0209606D02*
X0325212Y0209606D01*
X0324841Y0211205D02*
X0003400Y0211205D01*
X0003400Y0212803D02*
X0324841Y0212803D01*
X0325620Y0214402D02*
X0003400Y0214402D01*
X0003400Y0216001D02*
X0327219Y0216001D01*
X0327219Y0217599D02*
X0003400Y0217599D01*
X0003400Y0219198D02*
X0325621Y0219198D01*
X0324841Y0220796D02*
X0003400Y0220796D01*
X0003400Y0222395D02*
X0324841Y0222395D01*
X0325211Y0223993D02*
X0003400Y0223993D01*
X0003400Y0238380D02*
X0326439Y0238380D01*
X0324841Y0239978D02*
X0003400Y0239978D01*
X0003400Y0241577D02*
X0324841Y0241577D01*
X0324841Y0243175D02*
X0003400Y0243175D01*
X0003400Y0193621D02*
X0324841Y0193621D01*
X0324841Y0192023D02*
X0003400Y0192023D01*
X0003400Y0190424D02*
X0324841Y0190424D01*
X0325993Y0188826D02*
X0003400Y0188826D01*
X0003400Y0164848D02*
X0326067Y0164848D01*
X0324841Y0163250D02*
X0003400Y0163250D01*
X0003400Y0161651D02*
X0324841Y0161651D01*
X0324841Y0160053D02*
X0003400Y0160053D01*
X0003400Y0158454D02*
X0326364Y0158454D01*
X0326476Y0155257D02*
X0003400Y0155257D01*
X0003400Y0153659D02*
X0324877Y0153659D01*
X0324841Y0152060D02*
X0003400Y0152060D01*
X0003400Y0150462D02*
X0324841Y0150462D01*
X0325955Y0148863D02*
X0003400Y0148863D01*
X0003400Y0147265D02*
X0368507Y0147265D01*
X0368507Y0148863D02*
X0362527Y0148863D01*
X0363641Y0150462D02*
X0368507Y0150462D01*
X0368507Y0152060D02*
X0363641Y0152060D01*
X0363605Y0153659D02*
X0368507Y0153659D01*
X0368507Y0155257D02*
X0362006Y0155257D01*
X0362118Y0158454D02*
X0368507Y0158454D01*
X0368507Y0156856D02*
X0003400Y0156856D01*
X0003400Y0145666D02*
X0326884Y0145666D01*
X0325286Y0144068D02*
X0003400Y0144068D01*
X0003400Y0142469D02*
X0324841Y0142469D01*
X0324841Y0140870D02*
X0003400Y0140870D01*
X0003400Y0139272D02*
X0325546Y0139272D01*
X0327145Y0137673D02*
X0003400Y0137673D01*
X0003400Y0136075D02*
X0327293Y0136075D01*
X0325695Y0134476D02*
X0003400Y0134476D01*
X0003400Y0132878D02*
X0324841Y0132878D01*
X0324841Y0131279D02*
X0003400Y0131279D01*
X0003400Y0129681D02*
X0325138Y0129681D01*
X0326736Y0128082D02*
X0003400Y0128082D01*
X0003400Y0126484D02*
X0368507Y0126484D01*
X0368507Y0128082D02*
X0361746Y0128082D01*
X0363344Y0129681D02*
X0368507Y0129681D01*
X0368507Y0131279D02*
X0363641Y0131279D01*
X0363641Y0132878D02*
X0368507Y0132878D01*
X0368507Y0134476D02*
X0362787Y0134476D01*
X0361189Y0136075D02*
X0368507Y0136075D01*
X0368507Y0137673D02*
X0361337Y0137673D01*
X0362935Y0139272D02*
X0368507Y0139272D01*
X0368507Y0140870D02*
X0363641Y0140870D01*
X0363641Y0142469D02*
X0368507Y0142469D01*
X0368507Y0144068D02*
X0363196Y0144068D01*
X0361597Y0145666D02*
X0368507Y0145666D01*
X0368507Y0160053D02*
X0363641Y0160053D01*
X0363641Y0161651D02*
X0368507Y0161651D01*
X0368507Y0163250D02*
X0363641Y0163250D01*
X0362415Y0164848D02*
X0368507Y0164848D01*
X0368507Y0124885D02*
X0362378Y0124885D01*
X0363641Y0123287D02*
X0368507Y0123287D01*
X0368507Y0121688D02*
X0363641Y0121688D01*
X0363641Y0120090D02*
X0368507Y0120090D01*
X0368507Y0105703D02*
X0361560Y0105703D01*
X0363159Y0104105D02*
X0368507Y0104105D01*
X0368507Y0102506D02*
X0363641Y0102506D01*
X0363641Y0100908D02*
X0368507Y0100908D01*
X0368507Y0099309D02*
X0362973Y0099309D01*
X0361374Y0097711D02*
X0368507Y0097711D01*
X0368507Y0096112D02*
X0361151Y0096112D01*
X0362750Y0094514D02*
X0368507Y0094514D01*
X0368507Y0092915D02*
X0363641Y0092915D01*
X0363641Y0091317D02*
X0368507Y0091317D01*
X0368507Y0089718D02*
X0363382Y0089718D01*
X0361783Y0088120D02*
X0368507Y0088120D01*
X0324841Y0120090D02*
X0003400Y0120090D01*
X0003400Y0121688D02*
X0324841Y0121688D01*
X0324841Y0123287D02*
X0003400Y0123287D01*
X0003400Y0124885D02*
X0326104Y0124885D01*
X0364536Y0036967D02*
X0375987Y0036967D01*
X0375987Y0035369D02*
X0365650Y0035369D01*
X0366312Y0033770D02*
X0375987Y0033770D01*
X0375987Y0032172D02*
X0366510Y0032172D01*
X0366510Y0030573D02*
X0375987Y0030573D01*
X0375987Y0028975D02*
X0366023Y0028975D01*
X0365361Y0027376D02*
X0375987Y0027376D01*
X0375987Y0025778D02*
X0363839Y0025778D01*
X0254012Y0006596D02*
X0034660Y0006596D01*
X0038528Y0004997D02*
X0251031Y0004997D01*
X0361634Y0247971D02*
X0368507Y0247971D01*
X0368507Y0249569D02*
X0363233Y0249569D01*
X0363641Y0251168D02*
X0368507Y0251168D01*
X0368507Y0252766D02*
X0363641Y0252766D01*
X0362899Y0254365D02*
X0368507Y0254365D01*
X0368507Y0255963D02*
X0361300Y0255963D01*
X0361225Y0257562D02*
X0368507Y0257562D01*
X0368507Y0259160D02*
X0362824Y0259160D01*
X0363641Y0260759D02*
X0368507Y0260759D01*
X0368507Y0262357D02*
X0363641Y0262357D01*
X0363308Y0263956D02*
X0368507Y0263956D01*
X0368507Y0265554D02*
X0361709Y0265554D01*
X0355695Y0299123D02*
X0352787Y0299123D01*
X0353557Y0300722D02*
X0354841Y0300722D01*
X0354841Y0302320D02*
X0353641Y0302320D01*
X0353126Y0303919D02*
X0355137Y0303919D01*
X0356736Y0305517D02*
X0351746Y0305517D01*
X0346736Y0305517D02*
X0341746Y0305517D01*
X0343345Y0303919D02*
X0345356Y0303919D01*
X0344841Y0302320D02*
X0343641Y0302320D01*
X0343641Y0300722D02*
X0344925Y0300722D01*
X0345695Y0299123D02*
X0342787Y0299123D01*
M02*
