%
M48
M72
T01C0.03600
T02C0.12598
%
T01
X329241Y51800
X339241Y51800
X349241Y51800
X359241Y51800
X359241Y61800
X359241Y71800
X349241Y71800
X349241Y61800
X339241Y61800
X339241Y71800
X339241Y81800
X349241Y81800
X359241Y81800
X359241Y91800
X349241Y91800
X349241Y101800
X359241Y101800
X359241Y111800
X359241Y121800
X349241Y121800
X349241Y111800
X339241Y111800
X339241Y121800
X339241Y131800
X349241Y131800
X359241Y131800
X359241Y141800
X349241Y141800
X349241Y151800
X359241Y151800
X359241Y161800
X359241Y171800
X349241Y171800
X349241Y161800
X339241Y161800
X339241Y171800
X339241Y181800
X349241Y181800
X359241Y181800
X359241Y191800
X349241Y191800
X349241Y201800
X359241Y201800
X359241Y211800
X349241Y211800
X349241Y221800
X359241Y221800
X359241Y231800
X349241Y231800
X349241Y241800
X359241Y241800
X359241Y251800
X359241Y261800
X349241Y261800
X349241Y251800
X339241Y251800
X339241Y261800
X339241Y271800
X349241Y271800
X359241Y271800
X359241Y281800
X349241Y281800
X349241Y291800
X359241Y291800
X359241Y301800
X349241Y301800
X339241Y301800
X339241Y291800
X339241Y281800
X329241Y281800
X329241Y271800
X329241Y261800
X329241Y251800
X329241Y241800
X339241Y241800
X339241Y231800
X339241Y221800
X339241Y211800
X339241Y201800
X339241Y191800
X329241Y191800
X329241Y181800
X329241Y171800
X329241Y161800
X329241Y151800
X339241Y151800
X339241Y141800
X329241Y141800
X329241Y131800
X329241Y121800
X329241Y111800
X329241Y101800
X339241Y101800
X339241Y91800
X329241Y91800
X329241Y81800
X329241Y71800
X329241Y61800
X329241Y201800
X329241Y211800
X329241Y221800
X329241Y231800
X329241Y291800
X329241Y301800
T02
X21131Y21682
X21131Y336721
X358611Y321721
X358611Y31721
M30
